<?xml version="1.0" encoding="UTF-8" standalone="no"?>
<!DOCTYPE svg PUBLIC "-//W3C//DTD SVG 1.1//EN"
 "http://www.w3.org/Graphics/SVG/1.1/DTD/svg11.dtd">
<!-- Generated by graphviz version 15.0.0 (20260523.1842)
 -->
<!-- Title: connector_system Pages: 1 -->
<svg width="1103pt" height="166pt"
 viewBox="0.00 0.00 1103.00 166.00" xmlns="http://www.w3.org/2000/svg" xmlns:xlink="http://www.w3.org/1999/xlink">
<g id="graph0" class="graph" transform="scale(1 1) rotate(0) translate(4 161.75)">
<title>connector_system</title>
<polygon fill="white" stroke="none" points="-4,4 -4,-161.75 1099.25,-161.75 1099.25,4 -4,4"/>
<!-- BaseConnector -->
<g id="node1" class="node">
<title>BaseConnector</title>
<polygon fill="#e8f0fe" stroke="black" points="387.75,-92.5 387.75,-157.25 512.5,-157.25 512.5,-92.5 387.75,-92.5"/>
<text xml:space="preserve" text-anchor="middle" x="450.12" y="-144.7" font-family="Helvetica,sans-Serif" font-size="9.00">«abstract» BaseConnector</text>
<polyline fill="none" stroke="black" points="387.75,-139.5 512.5,-139.5"/>
<text xml:space="preserve" text-anchor="start" x="395.75" y="-126.95" font-family="Helvetica,sans-Serif" font-size="9.00">+ get_auth_url(state)</text>
<text xml:space="preserve" text-anchor="start" x="395.75" y="-117.2" font-family="Helvetica,sans-Serif" font-size="9.00">+ exchange_code(code)</text>
<text xml:space="preserve" text-anchor="start" x="395.75" y="-107.45" font-family="Helvetica,sans-Serif" font-size="9.00">+ get_current_user(token)</text>
<text xml:space="preserve" text-anchor="start" x="395.75" y="-97.7" font-family="Helvetica,sans-Serif" font-size="9.00">+ connection_config()</text>
</g>
<!-- Connectable -->
<g id="node2" class="node">
<title>Connectable</title>
<polygon fill="#fffde7" stroke="black" points="856,-102.25 856,-147.5 970.25,-147.5 970.25,-102.25 856,-102.25"/>
<text xml:space="preserve" text-anchor="middle" x="913.12" y="-134.95" font-family="Helvetica,sans-Serif" font-size="9.00">«protocol» Connectable</text>
<polyline fill="none" stroke="black" points="856,-129.75 970.25,-129.75"/>
<text xml:space="preserve" text-anchor="start" x="864" y="-117.2" font-family="Helvetica,sans-Serif" font-size="9.00">+ service_type</text>
<text xml:space="preserve" text-anchor="start" x="864" y="-107.45" font-family="Helvetica,sans-Serif" font-size="9.00">+ connection_config()</text>
</g>
<!-- SpotifyConnector -->
<g id="node3" class="node">
<title>SpotifyConnector</title>
<polygon fill="#f5f5f5" stroke="black" points="0,-0.5 0,-55.5 144.25,-55.5 144.25,-0.5 0,-0.5"/>
<text xml:space="preserve" text-anchor="middle" x="72.12" y="-42.95" font-family="Helvetica,sans-Serif" font-size="9.00">SpotifyConnector</text>
<polyline fill="none" stroke="black" points="0,-37.75 144.25,-37.75"/>
<text xml:space="preserve" text-anchor="start" x="8" y="-25.2" font-family="Helvetica,sans-Serif" font-size="9.00">AUTHN, LISTENING_HISTORY</text>
<text xml:space="preserve" text-anchor="start" x="8" y="-15.45" font-family="Helvetica,sans-Serif" font-size="9.00">FOLLOWS, TRACK_RATINGS</text>
<text xml:space="preserve" text-anchor="start" x="8" y="-5.7" font-family="Helvetica,sans-Serif" font-size="9.00">PLAYLIST_WRITE</text>
</g>
<!-- SpotifyConnector&#45;&gt;BaseConnector -->
<g id="edge1" class="edge">
<title>SpotifyConnector&#45;&gt;BaseConnector</title>
<path fill="none" stroke="black" d="M144.44,-53.49C147.37,-54.36 150.27,-55.2 153.12,-56 228.52,-77.13 316.03,-96.52 376.44,-109.11"/>
<polygon fill="none" stroke="black" points="375.41,-112.47 385.91,-111.08 376.83,-105.62 375.41,-112.47"/>
</g>
<!-- LastFmConnector -->
<g id="node4" class="node">
<title>LastFmConnector</title>
<polygon fill="#f5f5f5" stroke="black" points="162.62,-5.38 162.62,-50.62 337.62,-50.62 337.62,-5.38 162.62,-5.38"/>
<text xml:space="preserve" text-anchor="middle" x="250.12" y="-38.08" font-family="Helvetica,sans-Serif" font-size="9.00">LastFmConnector</text>
<polyline fill="none" stroke="black" points="162.62,-32.88 337.62,-32.88"/>
<text xml:space="preserve" text-anchor="start" x="170.62" y="-20.32" font-family="Helvetica,sans-Serif" font-size="9.00">AUTHN, LISTENING_HISTORY</text>
<text xml:space="preserve" text-anchor="start" x="170.62" y="-10.57" font-family="Helvetica,sans-Serif" font-size="9.00">SIMILAR_ARTISTS, TRACK_RATINGS</text>
</g>
<!-- LastFmConnector&#45;&gt;BaseConnector -->
<g id="edge2" class="edge">
<title>LastFmConnector&#45;&gt;BaseConnector</title>
<path fill="none" stroke="black" d="M296.76,-51.12C320.71,-62.49 350.44,-76.59 377.33,-89.34"/>
<polygon fill="none" stroke="black" points="375.57,-92.38 386.11,-93.51 378.57,-86.06 375.57,-92.38"/>
</g>
<!-- ListenBrainzConnector -->
<g id="node5" class="node">
<title>ListenBrainzConnector</title>
<polygon fill="#f5f5f5" stroke="black" points="355.88,-5.38 355.88,-50.62 544.38,-50.62 544.38,-5.38 355.88,-5.38"/>
<text xml:space="preserve" text-anchor="middle" x="450.12" y="-38.08" font-family="Helvetica,sans-Serif" font-size="9.00">ListenBrainzConnector</text>
<polyline fill="none" stroke="black" points="355.88,-32.88 544.38,-32.88"/>
<text xml:space="preserve" text-anchor="start" x="363.88" y="-20.32" font-family="Helvetica,sans-Serif" font-size="9.00">AUTHN, LISTENING_HISTORY</text>
<text xml:space="preserve" text-anchor="start" x="363.88" y="-10.57" font-family="Helvetica,sans-Serif" font-size="9.00">SIMILAR_ARTISTS, TRACK_DISCOVERY</text>
</g>
<!-- ListenBrainzConnector&#45;&gt;BaseConnector -->
<g id="edge3" class="edge">
<title>ListenBrainzConnector&#45;&gt;BaseConnector</title>
<path fill="none" stroke="black" d="M450.12,-51C450.12,-59.91 450.12,-70.52 450.12,-80.85"/>
<polygon fill="none" stroke="black" points="446.63,-80.77 450.13,-90.77 453.63,-80.77 446.63,-80.77"/>
</g>
<!-- GitHubConnector -->
<g id="node6" class="node">
<title>GitHubConnector</title>
<polygon fill="#f5f5f5" stroke="black" points="562.5,-10 562.5,-46 649.75,-46 649.75,-10 562.5,-10"/>
<text xml:space="preserve" text-anchor="middle" x="606.12" y="-33.45" font-family="Helvetica,sans-Serif" font-size="9.00">GitHubConnector</text>
<polyline fill="none" stroke="black" points="562.5,-28.25 649.75,-28.25"/>
<text xml:space="preserve" text-anchor="start" x="570.5" y="-15.7" font-family="Helvetica,sans-Serif" font-size="9.00">AUTHN, AUTHZ</text>
</g>
<!-- GitHubConnector&#45;&gt;BaseConnector -->
<g id="edge4" class="edge">
<title>GitHubConnector&#45;&gt;BaseConnector</title>
<path fill="none" stroke="black" d="M577.51,-46.4C559.12,-57.59 534.5,-72.56 511.81,-86.36"/>
<polygon fill="none" stroke="black" points="510.24,-83.22 503.52,-91.4 513.88,-89.2 510.24,-83.22"/>
</g>
<!-- TestConnector -->
<g id="node7" class="node">
<title>TestConnector</title>
<polygon fill="#f5f5f5" stroke="black" points="667.5,-10 667.5,-46 742.75,-46 742.75,-10 667.5,-10"/>
<text xml:space="preserve" text-anchor="middle" x="705.12" y="-24.32" font-family="Helvetica,sans-Serif" font-size="9.00">TestConnector</text>
</g>
<!-- TestConnector&#45;&gt;BaseConnector -->
<g id="edge5" class="edge">
<title>TestConnector&#45;&gt;BaseConnector</title>
<path fill="none" stroke="black" d="M677.91,-46.28C671.86,-49.75 665.38,-53.19 659.12,-56 615.46,-75.63 564.38,-92.32 523.65,-104.24"/>
<polygon fill="none" stroke="black" points="522.81,-100.84 514.17,-106.98 524.75,-107.57 522.81,-100.84"/>
</g>
<!-- SongkickConnector -->
<g id="node8" class="node">
<title>SongkickConnector</title>
<polygon fill="#f5f5f5" stroke="black" points="761,-10 761,-46 857.25,-46 857.25,-10 761,-10"/>
<text xml:space="preserve" text-anchor="middle" x="809.12" y="-24.32" font-family="Helvetica,sans-Serif" font-size="9.00">SongkickConnector</text>
</g>
<!-- SongkickConnector&#45;&gt;Connectable -->
<g id="edge6" class="edge">
<title>SongkickConnector&#45;&gt;Connectable</title>
<path fill="none" stroke="black" stroke-dasharray="5,2" d="M828.2,-46.4C842.92,-59.83 863.61,-78.7 880.88,-94.46"/>
<polygon fill="none" stroke="black" points="878.18,-96.73 887.93,-100.89 882.9,-91.56 878.18,-96.73"/>
</g>
<!-- ICalConnector -->
<g id="node9" class="node">
<title>ICalConnector</title>
<polygon fill="#f5f5f5" stroke="black" points="875.5,-10 875.5,-46 950.75,-46 950.75,-10 875.5,-10"/>
<text xml:space="preserve" text-anchor="middle" x="913.12" y="-24.32" font-family="Helvetica,sans-Serif" font-size="9.00">ICalConnector</text>
</g>
<!-- ICalConnector&#45;&gt;Connectable -->
<g id="edge7" class="edge">
<title>ICalConnector&#45;&gt;Connectable</title>
<path fill="none" stroke="black" stroke-dasharray="5,2" d="M913.12,-46.4C913.12,-58.73 913.12,-75.65 913.12,-90.53"/>
<polygon fill="none" stroke="black" points="909.63,-90.39 913.13,-100.39 916.63,-90.39 909.63,-90.39"/>
</g>
<!-- ConcertArchivesConnector -->
<g id="node10" class="node">
<title>ConcertArchivesConnector</title>
<polygon fill="#f5f5f5" stroke="black" points="969,-10 969,-46 1095.25,-46 1095.25,-10 969,-10"/>
<text xml:space="preserve" text-anchor="middle" x="1032.12" y="-24.32" font-family="Helvetica,sans-Serif" font-size="9.00">ConcertArchivesConnector</text>
</g>
<!-- ConcertArchivesConnector&#45;&gt;Connectable -->
<g id="edge8" class="edge">
<title>ConcertArchivesConnector&#45;&gt;Connectable</title>
<path fill="none" stroke="black" stroke-dasharray="5,2" d="M1010.3,-46.4C993.31,-59.95 969.36,-79.04 949.48,-94.89"/>
<polygon fill="none" stroke="black" points="947.5,-91.99 941.86,-100.96 951.86,-97.47 947.5,-91.99"/>
</g>
</g>
</svg>
