<?xml version="1.0" encoding="UTF-8" standalone="no"?>
<!DOCTYPE svg PUBLIC "-//W3C//DTD SVG 1.1//EN"
 "http://www.w3.org/Graphics/SVG/1.1/DTD/svg11.dtd">
<!-- Generated by graphviz version 15.0.0 (20260523.1842)
 -->
<!-- Title: connector_system Pages: 1 -->
<svg width="1180pt" height="180pt"
 viewBox="0.00 0.00 1180.00 180.00" xmlns="http://www.w3.org/2000/svg" xmlns:xlink="http://www.w3.org/1999/xlink">
<g id="graph0" class="graph" transform="scale(1 1) rotate(0) translate(4 175.75)">
<title>connector_system</title>
<polygon fill="white" stroke="none" points="-4,4 -4,-175.75 1176.25,-175.75 1176.25,4 -4,4"/>
<!-- BaseConnector -->
<g id="node1" class="node">
<title>BaseConnector</title>
<polygon fill="#eef2ff" stroke="#3730a3" points="409.75,-106.5 409.75,-171.25 534.5,-171.25 534.5,-106.5 409.75,-106.5"/>
<text xml:space="preserve" text-anchor="middle" x="472.12" y="-158.7" font-family="Helvetica,sans-Serif" font-size="9.00">«abstract» BaseConnector</text>
<polyline fill="none" stroke="#3730a3" points="409.75,-153.5 534.5,-153.5"/>
<text xml:space="preserve" text-anchor="start" x="417.75" y="-140.95" font-family="Helvetica,sans-Serif" font-size="9.00">+ get_auth_url(state)</text>
<text xml:space="preserve" text-anchor="start" x="417.75" y="-131.2" font-family="Helvetica,sans-Serif" font-size="9.00">+ exchange_code(code)</text>
<text xml:space="preserve" text-anchor="start" x="417.75" y="-121.45" font-family="Helvetica,sans-Serif" font-size="9.00">+ get_current_user(token)</text>
<text xml:space="preserve" text-anchor="start" x="417.75" y="-111.7" font-family="Helvetica,sans-Serif" font-size="9.00">+ connection_config()</text>
</g>
<!-- Connectable -->
<g id="node2" class="node">
<title>Connectable</title>
<polygon fill="#fef3c7" stroke="#b45309" points="922,-116.25 922,-161.5 1036.25,-161.5 1036.25,-116.25 922,-116.25"/>
<text xml:space="preserve" text-anchor="middle" x="979.12" y="-148.95" font-family="Helvetica,sans-Serif" font-size="9.00">«protocol» Connectable</text>
<polyline fill="none" stroke="#b45309" points="922,-143.75 1036.25,-143.75"/>
<text xml:space="preserve" text-anchor="start" x="930" y="-131.2" font-family="Helvetica,sans-Serif" font-size="9.00">+ service_type</text>
<text xml:space="preserve" text-anchor="start" x="930" y="-121.45" font-family="Helvetica,sans-Serif" font-size="9.00">+ connection_config()</text>
</g>
<!-- SpotifyConnector -->
<g id="node3" class="node">
<title>SpotifyConnector</title>
<polygon fill="#eef2ff" stroke="#3730a3" points="0,-0.5 0,-55.5 144.25,-55.5 144.25,-0.5 0,-0.5"/>
<text xml:space="preserve" text-anchor="middle" x="72.12" y="-42.95" font-family="Helvetica,sans-Serif" font-size="9.00">SpotifyConnector</text>
<polyline fill="none" stroke="#3730a3" points="0,-37.75 144.25,-37.75"/>
<text xml:space="preserve" text-anchor="start" x="8" y="-25.2" font-family="Helvetica,sans-Serif" font-size="9.00">AUTHN, LISTENING_HISTORY</text>
<text xml:space="preserve" text-anchor="start" x="8" y="-15.45" font-family="Helvetica,sans-Serif" font-size="9.00">FOLLOWS, TRACK_RATINGS</text>
<text xml:space="preserve" text-anchor="start" x="8" y="-5.7" font-family="Helvetica,sans-Serif" font-size="9.00">PLAYLIST_WRITE</text>
</g>
<!-- SpotifyConnector&#45;&gt;BaseConnector -->
<g id="edge1" class="edge">
<title>SpotifyConnector&#45;&gt;BaseConnector</title>
<path fill="none" stroke="#475569" d="M144.68,-51.79C149.56,-53.24 154.41,-54.65 159.12,-56 240.64,-79.3 334.84,-103.58 398.43,-119.6"/>
<polygon fill="none" stroke="#475569" points="397.52,-122.98 408.08,-122.02 399.23,-116.19 397.52,-122.98"/>
</g>
<!-- LastFmConnector -->
<g id="node4" class="node">
<title>LastFmConnector</title>
<polygon fill="#eef2ff" stroke="#3730a3" points="173.62,-5.38 173.62,-50.62 348.62,-50.62 348.62,-5.38 173.62,-5.38"/>
<text xml:space="preserve" text-anchor="middle" x="261.12" y="-38.08" font-family="Helvetica,sans-Serif" font-size="9.00">LastFmConnector</text>
<polyline fill="none" stroke="#3730a3" points="173.62,-32.88 348.62,-32.88"/>
<text xml:space="preserve" text-anchor="start" x="181.62" y="-20.32" font-family="Helvetica,sans-Serif" font-size="9.00">AUTHN, LISTENING_HISTORY</text>
<text xml:space="preserve" text-anchor="start" x="181.62" y="-10.57" font-family="Helvetica,sans-Serif" font-size="9.00">SIMILAR_ARTISTS, TRACK_RATINGS</text>
</g>
<!-- LastFmConnector&#45;&gt;BaseConnector -->
<g id="edge2" class="edge">
<title>LastFmConnector&#45;&gt;BaseConnector</title>
<path fill="none" stroke="#475569" d="M303.82,-51.03C331.65,-65.39 368.65,-84.48 400.86,-101.1"/>
<polygon fill="none" stroke="#475569" points="398.86,-104.01 409.35,-105.48 402.07,-97.79 398.86,-104.01"/>
</g>
<!-- ListenBrainzConnector -->
<g id="node5" class="node">
<title>ListenBrainzConnector</title>
<polygon fill="#eef2ff" stroke="#3730a3" points="377.88,-5.38 377.88,-50.62 566.38,-50.62 566.38,-5.38 377.88,-5.38"/>
<text xml:space="preserve" text-anchor="middle" x="472.12" y="-38.08" font-family="Helvetica,sans-Serif" font-size="9.00">ListenBrainzConnector</text>
<polyline fill="none" stroke="#3730a3" points="377.88,-32.88 566.38,-32.88"/>
<text xml:space="preserve" text-anchor="start" x="385.88" y="-20.32" font-family="Helvetica,sans-Serif" font-size="9.00">AUTHN, LISTENING_HISTORY</text>
<text xml:space="preserve" text-anchor="start" x="385.88" y="-10.57" font-family="Helvetica,sans-Serif" font-size="9.00">SIMILAR_ARTISTS, TRACK_DISCOVERY</text>
</g>
<!-- ListenBrainzConnector&#45;&gt;BaseConnector -->
<g id="edge3" class="edge">
<title>ListenBrainzConnector&#45;&gt;BaseConnector</title>
<path fill="none" stroke="#475569" d="M472.12,-51.03C472.12,-63.71 472.12,-80.07 472.12,-95.17"/>
<polygon fill="none" stroke="#475569" points="468.63,-94.87 472.13,-104.87 475.63,-94.87 468.63,-94.87"/>
</g>
<!-- GitHubConnector -->
<g id="node6" class="node">
<title>GitHubConnector</title>
<polygon fill="#eef2ff" stroke="#3730a3" points="595.5,-10 595.5,-46 682.75,-46 682.75,-10 595.5,-10"/>
<text xml:space="preserve" text-anchor="middle" x="639.12" y="-33.45" font-family="Helvetica,sans-Serif" font-size="9.00">GitHubConnector</text>
<polyline fill="none" stroke="#3730a3" points="595.5,-28.25 682.75,-28.25"/>
<text xml:space="preserve" text-anchor="start" x="603.5" y="-15.7" font-family="Helvetica,sans-Serif" font-size="9.00">AUTHN, AUTHZ</text>
</g>
<!-- GitHubConnector&#45;&gt;BaseConnector -->
<g id="edge4" class="edge">
<title>GitHubConnector&#45;&gt;BaseConnector</title>
<path fill="none" stroke="#475569" d="M612.29,-46.49C590.18,-60.91 558.01,-81.88 530.08,-100.09"/>
<polygon fill="none" stroke="#475569" points="528.52,-96.93 522.05,-105.33 532.34,-102.8 528.52,-96.93"/>
</g>
<!-- TestConnector -->
<g id="node7" class="node">
<title>TestConnector</title>
<polygon fill="#eef2ff" stroke="#3730a3" points="711.5,-10 711.5,-46 786.75,-46 786.75,-10 711.5,-10"/>
<text xml:space="preserve" text-anchor="middle" x="749.12" y="-24.32" font-family="Helvetica,sans-Serif" font-size="9.00">TestConnector</text>
</g>
<!-- TestConnector&#45;&gt;BaseConnector -->
<g id="edge5" class="edge">
<title>TestConnector&#45;&gt;BaseConnector</title>
<path fill="none" stroke="#475569" d="M717.27,-46.37C710.68,-49.72 703.74,-53.09 697.12,-56 647.38,-77.86 589.77,-98.74 545.3,-113.95"/>
<polygon fill="none" stroke="#475569" points="544.35,-110.57 536.01,-117.1 546.6,-117.2 544.35,-110.57"/>
</g>
<!-- SongkickConnector -->
<g id="node8" class="node">
<title>SongkickConnector</title>
<polygon fill="#eef2ff" stroke="#3730a3" points="816,-10 816,-46 912.25,-46 912.25,-10 816,-10"/>
<text xml:space="preserve" text-anchor="middle" x="864.12" y="-24.32" font-family="Helvetica,sans-Serif" font-size="9.00">SongkickConnector</text>
</g>
<!-- SongkickConnector&#45;&gt;Connectable -->
<g id="edge6" class="edge">
<title>SongkickConnector&#45;&gt;Connectable</title>
<path fill="none" stroke="#475569" stroke-dasharray="5,2" d="M882.6,-46.49C900.12,-63.08 926.8,-88.34 947.67,-108.1"/>
<polygon fill="none" stroke="#475569" points="945.16,-110.54 954.83,-114.87 949.97,-105.46 945.16,-110.54"/>
</g>
<!-- ICalConnector -->
<g id="node9" class="node">
<title>ICalConnector</title>
<polygon fill="#eef2ff" stroke="#3730a3" points="941.5,-10 941.5,-46 1016.75,-46 1016.75,-10 941.5,-10"/>
<text xml:space="preserve" text-anchor="middle" x="979.12" y="-24.32" font-family="Helvetica,sans-Serif" font-size="9.00">ICalConnector</text>
</g>
<!-- ICalConnector&#45;&gt;Connectable -->
<g id="edge7" class="edge">
<title>ICalConnector&#45;&gt;Connectable</title>
<path fill="none" stroke="#475569" stroke-dasharray="5,2" d="M979.12,-46.49C979.12,-62.12 979.12,-85.45 979.12,-104.62"/>
<polygon fill="none" stroke="#475569" points="975.63,-104.4 979.13,-114.4 982.63,-104.4 975.63,-104.4"/>
</g>
<!-- ConcertArchivesConnector -->
<g id="node10" class="node">
<title>ConcertArchivesConnector</title>
<polygon fill="#eef2ff" stroke="#3730a3" points="1046,-10 1046,-46 1172.25,-46 1172.25,-10 1046,-10"/>
<text xml:space="preserve" text-anchor="middle" x="1109.12" y="-24.32" font-family="Helvetica,sans-Serif" font-size="9.00">ConcertArchivesConnector</text>
</g>
<!-- ConcertArchivesConnector&#45;&gt;Connectable -->
<g id="edge8" class="edge">
<title>ConcertArchivesConnector&#45;&gt;Connectable</title>
<path fill="none" stroke="#475569" stroke-dasharray="5,2" d="M1088.24,-46.49C1068.25,-63.23 1037.74,-88.79 1014.05,-108.62"/>
<polygon fill="none" stroke="#475569" points="1011.93,-105.84 1006.51,-114.94 1016.42,-111.2 1011.93,-105.84"/>
</g>
</g>
</svg>
