<?xml version="1.0" encoding="UTF-8" standalone="no"?>
<!DOCTYPE svg PUBLIC "-//W3C//DTD SVG 1.1//EN"
 "http://www.w3.org/Graphics/SVG/1.1/DTD/svg11.dtd">
<!-- Generated by graphviz version 15.0.0 (20260523.1842)
 -->
<!-- Title: data_model Pages: 1 -->
<svg width="469pt" height="654pt"
 viewBox="0.00 0.00 469.00 654.00" xmlns="http://www.w3.org/2000/svg" xmlns:xlink="http://www.w3.org/1999/xlink">
<g id="graph0" class="graph" transform="scale(1 1) rotate(0) translate(4 650.42)">
<title>data_model</title>
<polygon fill="white" stroke="none" points="-4,4 -4,-650.42 465,-650.42 465,4 -4,4"/>
<!-- users -->
<g id="node1" class="node">
<title>users</title>
<path fill="#eef2ff" stroke="#3730a3" d="M42,-413.42C42,-413.42 12,-413.42 12,-413.42 6,-413.42 0,-407.42 0,-401.42 0,-401.42 0,-389.42 0,-389.42 0,-383.42 6,-377.42 12,-377.42 12,-377.42 42,-377.42 42,-377.42 48,-377.42 54,-383.42 54,-389.42 54,-389.42 54,-401.42 54,-401.42 54,-407.42 48,-413.42 42,-413.42"/>
<text xml:space="preserve" text-anchor="middle" x="27" y="-391.54" font-family="Helvetica,sans-Serif" font-size="10.00">users</text>
</g>
<!-- service_connections -->
<g id="node2" class="node">
<title>service_connections</title>
<path fill="#eef2ff" stroke="#3730a3" d="M232,-472.42C232,-472.42 150.75,-472.42 150.75,-472.42 144.75,-472.42 138.75,-466.42 138.75,-460.42 138.75,-460.42 138.75,-448.42 138.75,-448.42 138.75,-442.42 144.75,-436.42 150.75,-436.42 150.75,-436.42 232,-436.42 232,-436.42 238,-436.42 244,-442.42 244,-448.42 244,-448.42 244,-460.42 244,-460.42 244,-466.42 238,-472.42 232,-472.42"/>
<text xml:space="preserve" text-anchor="middle" x="191.38" y="-450.54" font-family="Helvetica,sans-Serif" font-size="10.00">service_connections</text>
</g>
<!-- users&#45;&gt;service_connections -->
<g id="edge1" class="edge">
<title>users&#45;&gt;service_connections</title>
<path fill="none" stroke="#475569" d="M63.56,-408.34C80.55,-414.51 101.48,-422.12 121.41,-429.36"/>
<polygon fill="#475569" stroke="#475569" points="53.68,-410.07 57.1,-400.67 58.98,-401.35 55.56,-410.75 53.68,-410.07"/>
<polyline fill="none" stroke="#475569" points="54.45,-405.03 59.15,-406.74"/>
<polygon fill="#475569" stroke="#475569" points="58.38,-411.78 61.8,-402.38 63.68,-403.06 60.26,-412.46 58.38,-411.78"/>
<polyline fill="none" stroke="#475569" points="59.15,-406.74 63.85,-408.44"/>
<polygon fill="#475569" stroke="#475569" points="129.95,-432.46 137.82,-440.11 134.97,-434.29 139.04,-435.76 139.04,-435.76 139.04,-435.76 134.97,-434.29 140.89,-431.65 129.95,-432.46"/>
<ellipse fill="none" stroke="#475569" cx="124.58" cy="-430.51" rx="4" ry="4"/>
<text xml:space="preserve" text-anchor="middle" x="96.38" y="-424.55" font-family="Helvetica,sans-Serif" font-size="8.00">has</text>
</g>
<!-- listening_events -->
<g id="node3" class="node">
<title>listening_events</title>
<path fill="#eef2ff" stroke="#3730a3" d="M440.38,-39.42C440.38,-39.42 377.88,-39.42 377.88,-39.42 371.88,-39.42 365.88,-33.42 365.88,-27.42 365.88,-27.42 365.88,-15.42 365.88,-15.42 365.88,-9.42 371.88,-3.42 377.88,-3.42 377.88,-3.42 440.38,-3.42 440.38,-3.42 446.38,-3.42 452.38,-9.42 452.38,-15.42 452.38,-15.42 452.38,-27.42 452.38,-27.42 452.38,-33.42 446.38,-39.42 440.38,-39.42"/>
<text xml:space="preserve" text-anchor="middle" x="409.12" y="-17.54" font-family="Helvetica,sans-Serif" font-size="10.00">listening_events</text>
</g>
<!-- users&#45;&gt;listening_events -->
<g id="edge2" class="edge">
<title>users&#45;&gt;listening_events</title>
<path fill="none" stroke="#475569" d="M32.51,-367.57C45.5,-291.02 85.54,-80.27 138.75,-38.42 197.32,7.65 287.07,3.05 346.66,-7.05"/>
<polygon fill="#475569" stroke="#475569" points="36.02,-376.88 26.16,-375.23 26.49,-373.26 36.35,-374.91 36.02,-376.88"/>
<polyline fill="none" stroke="#475569" points="30.92,-377.05 31.75,-372.11"/>
<polygon fill="#475569" stroke="#475569" points="36.84,-371.95 26.98,-370.3 27.31,-368.33 37.17,-369.98 36.84,-371.95"/>
<polyline fill="none" stroke="#475569" points="31.75,-372.11 32.57,-367.18"/>
<polygon fill="#475569" stroke="#475569" points="355.47,-8.71 364.46,-14.99 360.71,-9.7 364.97,-10.5 364.97,-10.5 364.97,-10.5 360.71,-9.7 366.13,-6.14 355.47,-8.71"/>
<ellipse fill="none" stroke="#475569" cx="349.85" cy="-7.66" rx="4" ry="4"/>
<text xml:space="preserve" text-anchor="middle" x="191.38" y="-39.82" font-family="Helvetica,sans-Serif" font-size="8.00">logs</text>
</g>
<!-- user_artist_relations -->
<g id="node4" class="node">
<title>user_artist_relations</title>
<path fill="#eef2ff" stroke="#3730a3" d="M449,-350.42C449,-350.42 369.25,-350.42 369.25,-350.42 363.25,-350.42 357.25,-344.42 357.25,-338.42 357.25,-338.42 357.25,-326.42 357.25,-326.42 357.25,-320.42 363.25,-314.42 369.25,-314.42 369.25,-314.42 449,-314.42 449,-314.42 455,-314.42 461,-320.42 461,-326.42 461,-326.42 461,-338.42 461,-338.42 461,-344.42 455,-350.42 449,-350.42"/>
<text xml:space="preserve" text-anchor="middle" x="409.12" y="-328.54" font-family="Helvetica,sans-Serif" font-size="10.00">user_artist_relations</text>
</g>
<!-- users&#45;&gt;user_artist_relations -->
<g id="edge3" class="edge">
<title>users&#45;&gt;user_artist_relations</title>
<path fill="none" stroke="#475569" d="M63.85,-389.28C112.21,-381.01 201.07,-365.9 277,-353.42 296.79,-350.16 318.28,-346.7 338.02,-343.54"/>
<polygon fill="#475569" stroke="#475569" points="55.99,-395.69 54.3,-385.84 56.27,-385.5 57.96,-395.36 55.99,-395.69"/>
<polyline fill="none" stroke="#475569" points="54.16,-390.93 59.09,-390.09"/>
<polygon fill="#475569" stroke="#475569" points="60.92,-394.85 59.23,-384.99 61.2,-384.66 62.89,-394.51 60.92,-394.85"/>
<polyline fill="none" stroke="#475569" points="59.09,-390.09 64.01,-389.25"/>
<polygon fill="#475569" stroke="#475569" points="346.84,-342.13 357.43,-344.99 352.11,-341.29 356.39,-340.6 356.39,-340.6 356.39,-340.6 352.11,-341.29 356.01,-336.11 346.84,-342.13"/>
<ellipse fill="none" stroke="#475569" cx="341.19" cy="-343.03" rx="4" ry="4"/>
<text xml:space="preserve" text-anchor="middle" x="191.38" y="-377.47" font-family="Helvetica,sans-Serif" font-size="8.00">follows</text>
</g>
<!-- user_track_relations -->
<g id="node5" class="node">
<title>user_track_relations</title>
<path fill="#eef2ff" stroke="#3730a3" d="M449,-199.42C449,-199.42 369.25,-199.42 369.25,-199.42 363.25,-199.42 357.25,-193.42 357.25,-187.42 357.25,-187.42 357.25,-175.42 357.25,-175.42 357.25,-169.42 363.25,-163.42 369.25,-163.42 369.25,-163.42 449,-163.42 449,-163.42 455,-163.42 461,-169.42 461,-175.42 461,-175.42 461,-187.42 461,-187.42 461,-193.42 455,-199.42 449,-199.42"/>
<text xml:space="preserve" text-anchor="middle" x="409.12" y="-177.54" font-family="Helvetica,sans-Serif" font-size="10.00">user_track_relations</text>
</g>
<!-- users&#45;&gt;user_track_relations -->
<g id="edge4" class="edge">
<title>users&#45;&gt;user_track_relations</title>
<path fill="none" stroke="#475569" d="M35.33,-367.56C48.26,-324.56 79.53,-243.04 138.75,-205.42 197.99,-167.78 279.9,-165.92 337.8,-170.88"/>
<polygon fill="#475569" stroke="#475569" points="37.65,-377.55 28.04,-374.77 28.6,-372.85 38.21,-375.62 37.65,-377.55"/>
<polyline fill="none" stroke="#475569" points="32.57,-377.12 33.96,-372.31"/>
<polygon fill="#475569" stroke="#475569" points="39.04,-372.74 29.43,-369.97 29.99,-368.05 39.59,-370.82 39.04,-372.74"/>
<polyline fill="none" stroke="#475569" points="33.96,-372.31 35.35,-367.51"/>
<polygon fill="#475569" stroke="#475569" points="346.55,-171.77 356.04,-177.27 351.85,-172.32 356.16,-172.76 356.16,-172.76 356.16,-172.76 351.85,-172.32 356.95,-168.32 346.55,-171.77"/>
<ellipse fill="none" stroke="#475569" cx="340.86" cy="-171.19" rx="4" ry="4"/>
<text xml:space="preserve" text-anchor="middle" x="191.38" y="-206.82" font-family="Helvetica,sans-Serif" font-size="8.00">rates</text>
</g>
<!-- playlists -->
<g id="node6" class="node">
<title>playlists</title>
<path fill="#eef2ff" stroke="#3730a3" d="M206.38,-331.42C206.38,-331.42 176.38,-331.42 176.38,-331.42 170.38,-331.42 164.38,-325.42 164.38,-319.42 164.38,-319.42 164.38,-307.42 164.38,-307.42 164.38,-301.42 170.38,-295.42 176.38,-295.42 176.38,-295.42 206.38,-295.42 206.38,-295.42 212.38,-295.42 218.38,-301.42 218.38,-307.42 218.38,-307.42 218.38,-319.42 218.38,-319.42 218.38,-325.42 212.38,-331.42 206.38,-331.42"/>
<text xml:space="preserve" text-anchor="middle" x="191.38" y="-309.54" font-family="Helvetica,sans-Serif" font-size="10.00">playlists</text>
</g>
<!-- users&#45;&gt;playlists -->
<g id="edge5" class="edge">
<title>users&#45;&gt;playlists</title>
<path fill="none" stroke="#475569" d="M63.02,-374.56C70.84,-370.09 79.15,-365.49 87,-361.42 106.26,-351.42 127.99,-341.18 146.54,-332.74"/>
<polygon fill="#475569" stroke="#475569" points="57.82,-383.34 52.82,-374.68 54.55,-373.68 59.55,-382.34 57.82,-383.34"/>
<polyline fill="none" stroke="#475569" points="54.45,-379.51 58.78,-377.01"/>
<polygon fill="#475569" stroke="#475569" points="62.15,-380.84 57.15,-372.18 58.88,-371.18 63.88,-379.84 62.15,-380.84"/>
<polyline fill="none" stroke="#475569" points="58.78,-377.01 63.11,-374.51"/>
<polygon fill="#475569" stroke="#475569" points="154.73,-329.06 165.69,-329.07 159.59,-326.87 163.54,-325.1 163.54,-325.1 163.54,-325.1 159.59,-326.87 162,-320.86 154.73,-329.06"/>
<ellipse fill="none" stroke="#475569" cx="149.51" cy="-331.4" rx="4" ry="4"/>
<text xml:space="preserve" text-anchor="middle" x="96.38" y="-362.82" font-family="Helvetica,sans-Serif" font-size="8.00">owns</text>
</g>
<!-- generator_profiles -->
<g id="node7" class="node">
<title>generator_profiles</title>
<path fill="#eef2ff" stroke="#3730a3" d="M226,-540.42C226,-540.42 156.75,-540.42 156.75,-540.42 150.75,-540.42 144.75,-534.42 144.75,-528.42 144.75,-528.42 144.75,-516.42 144.75,-516.42 144.75,-510.42 150.75,-504.42 156.75,-504.42 156.75,-504.42 226,-504.42 226,-504.42 232,-504.42 238,-510.42 238,-516.42 238,-516.42 238,-528.42 238,-528.42 238,-534.42 232,-540.42 226,-540.42"/>
<text xml:space="preserve" text-anchor="middle" x="191.38" y="-518.54" font-family="Helvetica,sans-Serif" font-size="10.00">generator_profiles</text>
</g>
<!-- users&#45;&gt;generator_profiles -->
<g id="edge6" class="edge">
<title>users&#45;&gt;generator_profiles</title>
<path fill="none" stroke="#475569" d="M55.58,-420.12C77.55,-439.42 109.4,-466.54 138.75,-488.42 140.84,-489.98 143.01,-491.55 145.21,-493.12"/>
<polygon fill="#475569" stroke="#475569" points="45.68,-418.05 52.29,-410.55 53.79,-411.87 47.18,-419.37 45.68,-418.05"/>
<polyline fill="none" stroke="#475569" points="48.24,-413.64 51.99,-416.95"/>
<polygon fill="#475569" stroke="#475569" points="49.43,-421.36 56.04,-413.86 57.54,-415.18 50.93,-422.68 49.43,-421.36"/>
<polyline fill="none" stroke="#475569" points="51.99,-416.95 55.73,-420.26"/>
<polygon fill="#475569" stroke="#475569" points="152.5,-498.1 158.21,-507.46 156.9,-501.11 160.47,-503.56 160.47,-503.56 160.47,-503.56 156.9,-501.11 163.29,-500.03 152.5,-498.1"/>
<ellipse fill="none" stroke="#475569" cx="147.78" cy="-494.87" rx="4" ry="4"/>
<text xml:space="preserve" text-anchor="middle" x="96.38" y="-462.87" font-family="Helvetica,sans-Serif" font-size="8.00">owns</text>
</g>
<!-- sync_tasks -->
<g id="node8" class="node">
<title>sync_tasks</title>
<path fill="#eef2ff" stroke="#3730a3" d="M430.25,-605.42C430.25,-605.42 388,-605.42 388,-605.42 382,-605.42 376,-599.42 376,-593.42 376,-593.42 376,-581.42 376,-581.42 376,-575.42 382,-569.42 388,-569.42 388,-569.42 430.25,-569.42 430.25,-569.42 436.25,-569.42 442.25,-575.42 442.25,-581.42 442.25,-581.42 442.25,-593.42 442.25,-593.42 442.25,-599.42 436.25,-605.42 430.25,-605.42"/>
<text xml:space="preserve" text-anchor="middle" x="409.12" y="-583.54" font-family="Helvetica,sans-Serif" font-size="10.00">sync_tasks</text>
</g>
<!-- users&#45;&gt;sync_tasks -->
<g id="edge7" class="edge">
<title>users&#45;&gt;sync_tasks</title>
<path fill="none" stroke="#475569" d="M38.38,-423C53.98,-460.23 87.24,-525.44 138.75,-556.42 205.73,-596.69 299.12,-597.77 356.5,-593.55"/>
<polygon fill="#475569" stroke="#475569" points="30.37,-416.55 39.63,-412.79 40.39,-414.64 31.12,-418.4 30.37,-416.55"/>
<polyline fill="none" stroke="#475569" points="34.63,-413.74 36.51,-418.37"/>
<polygon fill="#475569" stroke="#475569" points="32.25,-421.18 41.51,-417.42 42.27,-419.27 33,-423.03 32.25,-421.18"/>
<polyline fill="none" stroke="#475569" points="36.51,-418.37 38.39,-423.01"/>
<polygon fill="#475569" stroke="#475569" points="365.25,-592.77 375.61,-596.37 370.57,-592.3 374.88,-591.91 374.88,-591.91 374.88,-591.91 370.57,-592.3 374.82,-587.4 365.25,-592.77"/>
<ellipse fill="none" stroke="#475569" cx="359.56" cy="-593.28" rx="4" ry="4"/>
<text xml:space="preserve" text-anchor="middle" x="191.38" y="-591.9" font-family="Helvetica,sans-Serif" font-size="8.00">runs</text>
</g>
<!-- service_connections&#45;&gt;user_artist_relations -->
<g id="edge13" class="edge">
<title>service_connections&#45;&gt;user_artist_relations</title>
<path fill="none" stroke="#475569" d="M254.14,-459C277.36,-458.18 303.21,-454.05 324.25,-442.42 354.38,-425.76 377.06,-393.27 391.19,-367.9"/>
<polygon fill="#475569" stroke="#475569" points="245.45,-464.14 245.28,-454.14 247.28,-454.11 247.45,-464.11 245.45,-464.14"/>
<polyline fill="none" stroke="#475569" points="244.36,-459.16 249.36,-459.08"/>
<polygon fill="#475569" stroke="#475569" points="250.45,-464.06 250.28,-454.06 252.28,-454.03 252.45,-464.03 250.45,-464.06"/>
<polyline fill="none" stroke="#475569" points="249.36,-459.08 254.36,-458.99"/>
<polygon fill="#475569" stroke="#475569" points="395.38,-359.82 403.98,-353.01 397.84,-355.08 399.83,-351.24 399.83,-351.24 399.83,-351.24 397.84,-355.08 395.99,-348.87 395.38,-359.82"/>
<ellipse fill="none" stroke="#475569" cx="392.75" cy="-364.89" rx="4" ry="4"/>
<text xml:space="preserve" text-anchor="middle" x="300.62" y="-457.99" font-family="Helvetica,sans-Serif" font-size="8.00">sourced from</text>
</g>
<!-- service_connections&#45;&gt;user_track_relations -->
<g id="edge14" class="edge">
<title>service_connections&#45;&gt;user_track_relations</title>
<path fill="none" stroke="#475569" d="M225.27,-429.9C231.76,-424.45 238.32,-418.48 244,-412.42 303.24,-349.19 358.65,-263.62 387.46,-216.38"/>
<polygon fill="#475569" stroke="#475569" points="221.65,-439.28 215.34,-431.52 216.9,-430.26 223.2,-438.02 221.65,-439.28"/>
<polyline fill="none" stroke="#475569" points="217.72,-436.03 221.6,-432.88"/>
<polygon fill="#475569" stroke="#475569" points="225.53,-436.12 219.22,-428.37 220.77,-427.1 227.08,-434.86 225.53,-436.12"/>
<polyline fill="none" stroke="#475569" points="221.6,-432.88 225.48,-429.72"/>
<polygon fill="#475569" stroke="#475569" points="392.15,-208.6 401.16,-202.35 394.9,-204.02 397.13,-200.31 397.13,-200.31 397.13,-200.31 394.9,-204.02 393.45,-197.71 392.15,-208.6"/>
<ellipse fill="none" stroke="#475569" cx="389.2" cy="-213.5" rx="4" ry="4"/>
<text xml:space="preserve" text-anchor="middle" x="300.62" y="-372.95" font-family="Helvetica,sans-Serif" font-size="8.00">sourced from</text>
</g>
<!-- service_connections&#45;&gt;sync_tasks -->
<g id="edge15" class="edge">
<title>service_connections&#45;&gt;sync_tasks</title>
<path fill="none" stroke="#475569" d="M231.05,-478.45C235.53,-481.65 239.94,-485.01 244,-488.42 260.37,-502.17 259.78,-510.75 277,-523.42 301.67,-541.57 332.29,-556.86 357.73,-567.93"/>
<polygon fill="#475569" stroke="#475569" points="220.96,-477.57 226.64,-469.33 228.28,-470.47 222.61,-478.7 220.96,-477.57"/>
<polyline fill="none" stroke="#475569" points="222.97,-472.88 227.09,-475.72"/>
<polygon fill="#475569" stroke="#475569" points="225.08,-480.41 230.75,-472.17 232.4,-473.31 226.72,-481.54 225.08,-480.41"/>
<polyline fill="none" stroke="#475569" points="227.09,-475.72 231.21,-478.56"/>
<polygon fill="#475569" stroke="#475569" points="366.06,-571.41 373.55,-579.42 370.98,-573.46 374.97,-575.13 374.97,-575.13 374.97,-575.13 370.98,-573.46 377.02,-571.11 366.06,-571.41"/>
<ellipse fill="none" stroke="#475569" cx="360.78" cy="-569.2" rx="4" ry="4"/>
<text xml:space="preserve" text-anchor="middle" x="300.62" y="-551.97" font-family="Helvetica,sans-Serif" font-size="8.00">scoped to</text>
</g>
<!-- playlist_tracks -->
<g id="node11" class="node">
<title>playlist_tracks</title>
<path fill="#eef2ff" stroke="#3730a3" d="M436.62,-127.42C436.62,-127.42 381.62,-127.42 381.62,-127.42 375.62,-127.42 369.62,-121.42 369.62,-115.42 369.62,-115.42 369.62,-103.42 369.62,-103.42 369.62,-97.42 375.62,-91.42 381.62,-91.42 381.62,-91.42 436.62,-91.42 436.62,-91.42 442.62,-91.42 448.62,-97.42 448.62,-103.42 448.62,-103.42 448.62,-115.42 448.62,-115.42 448.62,-121.42 442.62,-127.42 436.62,-127.42"/>
<text xml:space="preserve" text-anchor="middle" x="409.12" y="-105.54" font-family="Helvetica,sans-Serif" font-size="10.00">playlist_tracks</text>
</g>
<!-- playlists&#45;&gt;playlist_tracks -->
<g id="edge16" class="edge">
<title>playlists&#45;&gt;playlist_tracks</title>
<path fill="none" stroke="#475569" d="M224.12,-288.83C230.84,-283.28 237.78,-277.29 244,-271.42 298.26,-220.17 301.94,-197.53 357.25,-147.42 360.19,-144.76 363.3,-142.1 366.49,-139.48"/>
<polygon fill="#475569" stroke="#475569" points="220.31,-298.35 214.01,-290.59 215.56,-289.33 221.86,-297.09 220.31,-298.35"/>
<polyline fill="none" stroke="#475569" points="216.38,-295.1 220.27,-291.95"/>
<polygon fill="#475569" stroke="#475569" points="224.19,-295.2 217.89,-287.44 219.45,-286.18 225.75,-293.94 224.19,-295.2"/>
<polyline fill="none" stroke="#475569" points="220.27,-291.95 224.15,-288.8"/>
<polygon fill="#475569" stroke="#475569" points="373.33,-134.17 383.99,-131.6 377.54,-130.9 380.96,-128.25 380.96,-128.25 380.96,-128.25 377.54,-130.9 378.47,-124.49 373.33,-134.17"/>
<ellipse fill="none" stroke="#475569" cx="368.81" cy="-137.68" rx="4" ry="4"/>
<text xml:space="preserve" text-anchor="middle" x="300.62" y="-237.66" font-family="Helvetica,sans-Serif" font-size="8.00">contains</text>
</g>
<!-- generation_records -->
<g id="node12" class="node">
<title>generation_records</title>
<path fill="#eef2ff" stroke="#3730a3" d="M446.38,-502.42C446.38,-502.42 371.88,-502.42 371.88,-502.42 365.88,-502.42 359.88,-496.42 359.88,-490.42 359.88,-490.42 359.88,-478.42 359.88,-478.42 359.88,-472.42 365.88,-466.42 371.88,-466.42 371.88,-466.42 446.38,-466.42 446.38,-466.42 452.38,-466.42 458.38,-472.42 458.38,-478.42 458.38,-478.42 458.38,-490.42 458.38,-490.42 458.38,-496.42 452.38,-502.42 446.38,-502.42"/>
<text xml:space="preserve" text-anchor="middle" x="409.12" y="-480.54" font-family="Helvetica,sans-Serif" font-size="10.00">generation_records</text>
</g>
<!-- playlists&#45;&gt;generation_records -->
<g id="edge18" class="edge">
<title>playlists&#45;&gt;generation_records</title>
<path fill="none" stroke="#475569" d="M224.79,-338.04C231.37,-343.52 238.08,-349.47 244,-355.42 260.5,-372 259.76,-380.61 277,-396.42 291.43,-409.65 330.58,-435.51 362.37,-455.79"/>
<polygon fill="#475569" stroke="#475569" points="214.81,-336.38 221.11,-328.61 222.66,-329.87 216.36,-337.64 214.81,-336.38"/>
<polyline fill="none" stroke="#475569" points="217.18,-331.87 221.06,-335.02"/>
<polygon fill="#475569" stroke="#475569" points="218.69,-339.53 224.99,-331.77 226.54,-333.03 220.24,-340.79 218.69,-339.53"/>
<polyline fill="none" stroke="#475569" points="221.06,-335.02 224.95,-338.17"/>
<polygon fill="#475569" stroke="#475569" points="369.88,-460.55 375.92,-469.7 374.38,-463.4 378.04,-465.72 378.04,-465.72 378.04,-465.72 374.38,-463.4 380.73,-462.09 369.88,-460.55"/>
<ellipse fill="none" stroke="#475569" cx="365.05" cy="-457.49" rx="4" ry="4"/>
<text xml:space="preserve" text-anchor="middle" x="300.62" y="-431.96" font-family="Helvetica,sans-Serif" font-size="8.00">result of</text>
</g>
<!-- generator_profiles&#45;&gt;generation_records -->
<g id="edge17" class="edge">
<title>generator_profiles&#45;&gt;generation_records</title>
<path fill="none" stroke="#475569" d="M247.87,-512.64C276.2,-507.65 310.9,-501.54 340.75,-496.28"/>
<polygon fill="#475569" stroke="#475569" points="240.25,-519.06 238.51,-509.21 240.48,-508.87 242.22,-518.72 240.25,-519.06"/>
<polyline fill="none" stroke="#475569" points="238.39,-514.31 243.32,-513.45"/>
<polygon fill="#475569" stroke="#475569" points="245.17,-518.2 243.44,-508.35 245.41,-508 247.14,-517.85 245.17,-518.2"/>
<polyline fill="none" stroke="#475569" points="243.32,-513.45 248.24,-512.58"/>
<polygon fill="#475569" stroke="#475569" points="349.38,-494.77 360.01,-497.46 354.63,-493.84 358.9,-493.09 358.9,-493.09 358.9,-493.09 354.63,-493.84 358.45,-488.6 349.38,-494.77"/>
<ellipse fill="none" stroke="#475569" cx="343.75" cy="-495.76" rx="4" ry="4"/>
<text xml:space="preserve" text-anchor="middle" x="300.62" y="-508.22" font-family="Helvetica,sans-Serif" font-size="8.00">produces</text>
</g>
<!-- sync_tasks&#45;&gt;sync_tasks -->
<g id="edge19" class="edge">
<title>sync_tasks&#45;&gt;sync_tasks</title>
<path fill="none" stroke="#475569" d="M389.02,-615.22C387.39,-627.18 394.1,-637.42 409.12,-637.42 419.73,-637.42 426.19,-632.32 428.5,-625.11"/>
<polygon fill="#475569" stroke="#475569" points="386.81,-605.37 396.37,-608.3 395.79,-610.21 386.23,-607.28 386.81,-605.37"/>
<polyline fill="none" stroke="#475569" points="391.89,-605.88 390.42,-610.66"/>
<polygon fill="#475569" stroke="#475569" points="385.35,-610.15 394.91,-613.08 394.32,-614.99 384.76,-612.06 385.35,-610.15"/>
<polyline fill="none" stroke="#475569" points="390.42,-610.66 388.95,-615.44"/>
<polygon fill="#475569" stroke="#475569" points="427.51,-616.15 430.87,-605.71 426.92,-610.85 426.44,-606.54 426.44,-606.54 426.44,-606.54 426.92,-610.85 421.93,-606.71 427.51,-616.15"/>
<ellipse fill="none" stroke="#475569" cx="428.14" cy="-621.83" rx="4" ry="4"/>
<text xml:space="preserve" text-anchor="middle" x="409.12" y="-638.82" font-family="Helvetica,sans-Serif" font-size="8.00">parent of</text>
</g>
<!-- artists -->
<g id="node9" class="node">
<title>artists</title>
<path fill="#eef2ff" stroke="#3730a3" d="M42,-120.42C42,-120.42 12,-120.42 12,-120.42 6,-120.42 0,-114.42 0,-108.42 0,-108.42 0,-96.42 0,-96.42 0,-90.42 6,-84.42 12,-84.42 12,-84.42 42,-84.42 42,-84.42 48,-84.42 54,-90.42 54,-96.42 54,-96.42 54,-108.42 54,-108.42 54,-114.42 48,-120.42 42,-120.42"/>
<text xml:space="preserve" text-anchor="middle" x="27" y="-98.54" font-family="Helvetica,sans-Serif" font-size="10.00">artists</text>
</g>
<!-- artists&#45;&gt;user_artist_relations -->
<g id="edge11" class="edge">
<title>artists&#45;&gt;user_artist_relations</title>
<path fill="none" stroke="#475569" d="M47.69,-128.58C68.12,-154.26 102.16,-193.14 138.75,-218.42 172.67,-241.85 271.92,-281.41 339.99,-307.22"/>
<polygon fill="#475569" stroke="#475569" points="38.23,-124.61 46.1,-118.44 47.33,-120.02 39.46,-126.18 38.23,-124.61"/>
<polyline fill="none" stroke="#475569" points="41.55,-120.74 44.63,-124.67"/>
<polygon fill="#475569" stroke="#475569" points="41.31,-128.55 49.18,-122.38 50.42,-123.95 42.54,-130.12 41.31,-128.55"/>
<polyline fill="none" stroke="#475569" points="44.63,-124.67 47.71,-128.61"/>
<polygon fill="#475569" stroke="#475569" points="348.18,-310.31 355.95,-318.05 353.17,-312.19 357.22,-313.72 357.22,-313.72 357.22,-313.72 353.17,-312.19 359.12,-309.62 348.18,-310.31"/>
<ellipse fill="none" stroke="#475569" cx="342.83" cy="-308.29" rx="4" ry="4"/>
<text xml:space="preserve" text-anchor="middle" x="191.38" y="-269.17" font-family="Helvetica,sans-Serif" font-size="8.00">target of</text>
</g>
<!-- tracks -->
<g id="node10" class="node">
<title>tracks</title>
<path fill="#eef2ff" stroke="#3730a3" d="M206.38,-99.42C206.38,-99.42 176.38,-99.42 176.38,-99.42 170.38,-99.42 164.38,-93.42 164.38,-87.42 164.38,-87.42 164.38,-75.42 164.38,-75.42 164.38,-69.42 170.38,-63.42 176.38,-63.42 176.38,-63.42 206.38,-63.42 206.38,-63.42 212.38,-63.42 218.38,-69.42 218.38,-75.42 218.38,-75.42 218.38,-87.42 218.38,-87.42 218.38,-93.42 212.38,-99.42 206.38,-99.42"/>
<text xml:space="preserve" text-anchor="middle" x="191.38" y="-77.54" font-family="Helvetica,sans-Serif" font-size="10.00">tracks</text>
</g>
<!-- artists&#45;&gt;tracks -->
<g id="edge8" class="edge">
<title>artists&#45;&gt;tracks</title>
<path fill="none" stroke="#475569" d="M64.2,-97.74C88.05,-94.65 119.47,-90.59 144.99,-87.29"/>
<polygon fill="#475569" stroke="#475569" points="56.08,-103.83 54.8,-93.91 56.78,-93.65 58.07,-103.57 56.08,-103.83"/>
<polyline fill="none" stroke="#475569" points="54.45,-99 59.41,-98.36"/>
<polygon fill="#475569" stroke="#475569" points="61.04,-103.19 59.76,-93.27 61.74,-93.01 63.03,-102.93 61.04,-103.19"/>
<polyline fill="none" stroke="#475569" points="59.41,-98.36 64.37,-97.71"/>
<polygon fill="#475569" stroke="#475569" points="153.69,-86.16 164.18,-89.34 158.98,-85.48 163.27,-84.92 163.27,-84.92 163.27,-84.92 158.98,-85.48 163.03,-80.42 153.69,-86.16"/>
<ellipse fill="none" stroke="#475569" cx="148.02" cy="-86.9" rx="4" ry="4"/>
<text xml:space="preserve" text-anchor="middle" x="96.38" y="-95.82" font-family="Helvetica,sans-Serif" font-size="8.00">by</text>
</g>
<!-- tracks&#45;&gt;listening_events -->
<g id="edge9" class="edge">
<title>tracks&#45;&gt;listening_events</title>
<path fill="none" stroke="#475569" d="M228.4,-71.4C260.61,-62.44 308.5,-49.12 346.74,-38.49"/>
<polygon fill="#475569" stroke="#475569" points="221.13,-78.61 218.45,-68.98 220.38,-68.44 223.06,-78.07 221.13,-78.61"/>
<polyline fill="none" stroke="#475569" points="218.83,-74.06 223.65,-72.72"/>
<polygon fill="#475569" stroke="#475569" points="225.95,-77.27 223.27,-67.64 225.2,-67.1 227.88,-76.73 225.95,-77.27"/>
<polyline fill="none" stroke="#475569" points="223.65,-72.72 228.46,-71.38"/>
<polygon fill="#475569" stroke="#475569" points="355.49,-36.05 366.33,-37.71 360.63,-34.63 364.81,-33.46 364.81,-33.46 364.81,-33.46 360.63,-34.63 363.92,-29.04 355.49,-36.05"/>
<ellipse fill="none" stroke="#475569" cx="349.99" cy="-37.59" rx="4" ry="4"/>
<text xml:space="preserve" text-anchor="middle" x="300.62" y="-58.19" font-family="Helvetica,sans-Serif" font-size="8.00">played in</text>
</g>
<!-- tracks&#45;&gt;user_track_relations -->
<g id="edge12" class="edge">
<title>tracks&#45;&gt;user_track_relations</title>
<path fill="none" stroke="#475569" d="M227.64,-97.76C260.94,-113.2 311.48,-136.62 350.62,-154.76"/>
<polygon fill="#475569" stroke="#475569" points="217.63,-98.64 221.84,-89.56 223.65,-90.41 219.45,-99.48 217.63,-98.64"/>
<polyline fill="none" stroke="#475569" points="218.83,-93.68 223.37,-95.78"/>
<polygon fill="#475569" stroke="#475569" points="222.17,-100.74 226.38,-91.67 228.19,-92.51 223.99,-101.58 222.17,-100.74"/>
<polyline fill="none" stroke="#475569" points="223.37,-95.78 227.9,-97.89"/>
<polygon fill="#475569" stroke="#475569" points="358.86,-158.58 366.04,-166.87 363.7,-160.83 367.63,-162.65 367.63,-162.65 367.63,-162.65 363.7,-160.83 369.83,-158.71 358.86,-158.58"/>
<ellipse fill="none" stroke="#475569" cx="353.67" cy="-156.18" rx="4" ry="4"/>
<text xml:space="preserve" text-anchor="middle" x="300.62" y="-141.77" font-family="Helvetica,sans-Serif" font-size="8.00">target of</text>
</g>
<!-- tracks&#45;&gt;playlist_tracks -->
<g id="edge10" class="edge">
<title>tracks&#45;&gt;playlist_tracks</title>
<path fill="none" stroke="#475569" d="M228.72,-86.13C261.95,-90.45 311.66,-96.9 350.34,-101.92"/>
<polygon fill="#475569" stroke="#475569" points="219.18,-89.94 220.47,-80.02 222.45,-80.28 221.16,-90.2 219.18,-89.94"/>
<polyline fill="none" stroke="#475569" points="218.83,-84.85 223.79,-85.49"/>
<polygon fill="#475569" stroke="#475569" points="224.14,-90.58 225.42,-80.67 227.41,-80.92 226.12,-90.84 224.14,-90.58"/>
<polyline fill="none" stroke="#475569" points="223.79,-85.49 228.75,-86.14"/>
<polygon fill="#475569" stroke="#475569" points="359.16,-103.06 368.5,-108.81 364.45,-103.75 368.75,-104.31 368.75,-104.31 368.75,-104.31 364.45,-103.75 369.66,-99.89 359.16,-103.06"/>
<ellipse fill="none" stroke="#475569" cx="353.49" cy="-102.33" rx="4" ry="4"/>
<text xml:space="preserve" text-anchor="middle" x="300.62" y="-99.33" font-family="Helvetica,sans-Serif" font-size="8.00">appears in</text>
</g>
</g>
</svg>
