<?xml version="1.0" encoding="UTF-8" standalone="no"?>
<!DOCTYPE svg PUBLIC "-//W3C//DTD SVG 1.1//EN"
 "http://www.w3.org/Graphics/SVG/1.1/DTD/svg11.dtd">
<!-- Generated by graphviz version 15.0.0 (20260523.1842)
 -->
<!-- Title: data_model Pages: 1 -->
<svg width="432pt" height="575pt"
 viewBox="0.00 0.00 432.00 575.00" xmlns="http://www.w3.org/2000/svg" xmlns:xlink="http://www.w3.org/1999/xlink">
<g id="graph0" class="graph" transform="scale(1 1) rotate(0) translate(4 571)">
<title>data_model</title>
<polygon fill="white" stroke="none" points="-4,4 -4,-571 427.5,-571 427.5,4 -4,4"/>
<!-- users -->
<g id="node1" class="node">
<title>users</title>
<path fill="#f5f5f5" stroke="black" d="M42,-396C42,-396 12,-396 12,-396 6,-396 0,-390 0,-384 0,-384 0,-372 0,-372 0,-366 6,-360 12,-360 12,-360 42,-360 42,-360 48,-360 54,-366 54,-372 54,-372 54,-384 54,-384 54,-390 48,-396 42,-396"/>
<text xml:space="preserve" text-anchor="middle" x="27" y="-374.12" font-family="Helvetica,sans-Serif" font-size="10.00">users</text>
</g>
<!-- service_connections -->
<g id="node2" class="node">
<title>service_connections</title>
<path fill="#f5f5f5" stroke="black" d="M224.5,-441C224.5,-441 143.25,-441 143.25,-441 137.25,-441 131.25,-435 131.25,-429 131.25,-429 131.25,-417 131.25,-417 131.25,-411 137.25,-405 143.25,-405 143.25,-405 224.5,-405 224.5,-405 230.5,-405 236.5,-411 236.5,-417 236.5,-417 236.5,-429 236.5,-429 236.5,-435 230.5,-441 224.5,-441"/>
<text xml:space="preserve" text-anchor="middle" x="183.88" y="-419.12" font-family="Helvetica,sans-Serif" font-size="10.00">service_connections</text>
</g>
<!-- users&#45;&gt;service_connections -->
<g id="edge1" class="edge">
<title>users&#45;&gt;service_connections</title>
<path fill="none" stroke="#666666" d="M63.82,-389.51C66.59,-390.37 69.34,-391.2 72,-392 85.02,-395.89 98.94,-399.9 112.36,-403.69"/>
<polygon fill="#666666" stroke="#666666" points="53.94,-391.66 56.92,-382.12 58.83,-382.72 55.85,-392.26 53.94,-391.66"/>
<polyline fill="none" stroke="#666666" points="54.48,-386.59 59.25,-388.08"/>
<polygon fill="#666666" stroke="#666666" points="58.71,-393.15 61.7,-383.61 63.61,-384.21 60.62,-393.75 58.71,-393.15"/>
<polyline fill="none" stroke="#666666" points="59.25,-388.08 64.02,-389.58"/>
<polygon fill="#666666" stroke="#666666" points="120.92,-406.08 129.34,-413.11 126.06,-407.52 130.23,-408.69 130.23,-408.69 130.23,-408.69 126.06,-407.52 131.76,-404.45 120.92,-406.08"/>
<ellipse fill="none" stroke="#666666" cx="115.41" cy="-404.54" rx="4" ry="4"/>
<text xml:space="preserve" text-anchor="middle" x="92.62" y="-404.85" font-family="Helvetica,sans-Serif" font-size="8.00">has</text>
</g>
<!-- listening_events -->
<g id="node3" class="node">
<title>listening_events</title>
<path fill="#f5f5f5" stroke="black" d="M402.88,-162C402.88,-162 340.38,-162 340.38,-162 334.38,-162 328.38,-156 328.38,-150 328.38,-150 328.38,-138 328.38,-138 328.38,-132 334.38,-126 340.38,-126 340.38,-126 402.88,-126 402.88,-126 408.88,-126 414.88,-132 414.88,-138 414.88,-138 414.88,-150 414.88,-150 414.88,-156 408.88,-162 402.88,-162"/>
<text xml:space="preserve" text-anchor="middle" x="371.62" y="-140.12" font-family="Helvetica,sans-Serif" font-size="10.00">listening_events</text>
</g>
<!-- users&#45;&gt;listening_events -->
<g id="edge2" class="edge">
<title>users&#45;&gt;listening_events</title>
<path fill="none" stroke="#666666" d="M34.17,-350.14C45.31,-307.17 73.24,-225.81 131.25,-189 160.14,-170.67 248.18,-157.53 309.03,-150.34"/>
<polygon fill="#666666" stroke="#666666" points="36.9,-359.93 27.19,-357.53 27.67,-355.58 37.38,-357.99 36.9,-359.93"/>
<polyline fill="none" stroke="#666666" points="31.8,-359.7 33,-354.84"/>
<polygon fill="#666666" stroke="#666666" points="38.1,-355.07 28.39,-352.67 28.87,-350.73 38.58,-353.13 38.1,-355.07"/>
<polyline fill="none" stroke="#666666" points="33,-354.84 34.2,-349.99"/>
<polygon fill="#666666" stroke="#666666" points="317.84,-149.34 328.28,-152.69 323.14,-148.74 327.44,-148.25 327.44,-148.25 327.44,-148.25 323.14,-148.74 327.27,-143.75 317.84,-149.34"/>
<ellipse fill="none" stroke="#666666" cx="312.16" cy="-149.99" rx="4" ry="4"/>
<text xml:space="preserve" text-anchor="middle" x="183.88" y="-190.4" font-family="Helvetica,sans-Serif" font-size="8.00">logs</text>
</g>
<!-- user_artist_relations -->
<g id="node4" class="node">
<title>user_artist_relations</title>
<path fill="#f5f5f5" stroke="black" d="M411.5,-461C411.5,-461 331.75,-461 331.75,-461 325.75,-461 319.75,-455 319.75,-449 319.75,-449 319.75,-437 319.75,-437 319.75,-431 325.75,-425 331.75,-425 331.75,-425 411.5,-425 411.5,-425 417.5,-425 423.5,-431 423.5,-437 423.5,-437 423.5,-449 423.5,-449 423.5,-455 417.5,-461 411.5,-461"/>
<text xml:space="preserve" text-anchor="middle" x="371.62" y="-439.12" font-family="Helvetica,sans-Serif" font-size="10.00">user_artist_relations</text>
</g>
<!-- users&#45;&gt;user_artist_relations -->
<g id="edge3" class="edge">
<title>users&#45;&gt;user_artist_relations</title>
<path fill="none" stroke="#666666" d="M52.94,-402.99C72.37,-420.42 101.05,-441.95 131.25,-450 186.86,-464.82 252.32,-461.57 300.72,-455.45"/>
<polygon fill="#666666" stroke="#666666" points="43.04,-400.66 49.83,-393.31 51.3,-394.67 44.51,-402.01 43.04,-400.66"/>
<polyline fill="none" stroke="#666666" points="45.7,-396.31 49.37,-399.7"/>
<polygon fill="#666666" stroke="#666666" points="46.72,-404.05 53.5,-396.71 54.97,-398.06 48.18,-405.41 46.72,-404.05"/>
<polyline fill="none" stroke="#666666" points="49.37,-399.7 53.05,-403.09"/>
<polygon fill="#666666" stroke="#666666" points="309.45,-454.23 319.97,-457.3 314.73,-453.49 319.02,-452.89 319.02,-452.89 319.02,-452.89 314.73,-453.49 318.73,-448.39 309.45,-454.23"/>
<ellipse fill="none" stroke="#666666" cx="303.78" cy="-455.02" rx="4" ry="4"/>
<text xml:space="preserve" text-anchor="middle" x="183.88" y="-462" font-family="Helvetica,sans-Serif" font-size="8.00">follows</text>
</g>
<!-- user_track_relations -->
<g id="node5" class="node">
<title>user_track_relations</title>
<path fill="#f5f5f5" stroke="black" d="M411.5,-396C411.5,-396 331.75,-396 331.75,-396 325.75,-396 319.75,-390 319.75,-384 319.75,-384 319.75,-372 319.75,-372 319.75,-366 325.75,-360 331.75,-360 331.75,-360 411.5,-360 411.5,-360 417.5,-360 423.5,-366 423.5,-372 423.5,-372 423.5,-384 423.5,-384 423.5,-390 417.5,-396 411.5,-396"/>
<text xml:space="preserve" text-anchor="middle" x="371.62" y="-374.12" font-family="Helvetica,sans-Serif" font-size="10.00">user_track_relations</text>
</g>
<!-- users&#45;&gt;user_track_relations -->
<g id="edge4" class="edge">
<title>users&#45;&gt;user_track_relations</title>
<path fill="none" stroke="#666666" d="M64.28,-378C120.22,-378 228.53,-378 300.21,-378"/>
<polygon fill="#666666" stroke="#666666" points="55.32,-383 55.32,-373 57.32,-373 57.32,-383 55.32,-383"/>
<polyline fill="none" stroke="#666666" points="54.32,-378 59.32,-378"/>
<polygon fill="#666666" stroke="#666666" points="60.32,-383 60.32,-373 62.32,-373 62.32,-383 60.32,-383"/>
<polyline fill="none" stroke="#666666" points="59.32,-378 64.32,-378"/>
<polygon fill="#666666" stroke="#666666" points="309.05,-378 319.05,-382.5 314.38,-378 318.72,-378 318.72,-378 318.72,-378 314.38,-378 319.05,-373.5 309.05,-378"/>
<ellipse fill="none" stroke="#666666" cx="303.33" cy="-378" rx="4" ry="4"/>
<text xml:space="preserve" text-anchor="middle" x="183.88" y="-379.4" font-family="Helvetica,sans-Serif" font-size="8.00">rates</text>
</g>
<!-- playlists -->
<g id="node6" class="node">
<title>playlists</title>
<path fill="#f5f5f5" stroke="black" d="M198.88,-243C198.88,-243 168.88,-243 168.88,-243 162.88,-243 156.88,-237 156.88,-231 156.88,-231 156.88,-219 156.88,-219 156.88,-213 162.88,-207 168.88,-207 168.88,-207 198.88,-207 198.88,-207 204.88,-207 210.88,-213 210.88,-219 210.88,-219 210.88,-231 210.88,-231 210.88,-237 204.88,-243 198.88,-243"/>
<text xml:space="preserve" text-anchor="middle" x="183.88" y="-221.12" font-family="Helvetica,sans-Serif" font-size="10.00">playlists</text>
</g>
<!-- users&#45;&gt;playlists -->
<g id="edge5" class="edge">
<title>users&#45;&gt;playlists</title>
<path fill="none" stroke="#666666" d="M46.63,-351.72C65.89,-325.71 97.79,-285.74 131.25,-257 134.13,-254.53 137.22,-252.12 140.41,-249.8"/>
<polygon fill="#666666" stroke="#666666" points="45.46,-361.79 37.39,-355.88 38.57,-354.27 46.64,-360.17 45.46,-361.79"/>
<polyline fill="none" stroke="#666666" points="40.84,-359.64 43.79,-355.61"/>
<polygon fill="#666666" stroke="#666666" points="48.41,-357.75 40.34,-351.85 41.52,-350.23 49.59,-356.14 48.41,-357.75"/>
<polyline fill="none" stroke="#666666" points="43.79,-355.61 46.74,-351.57"/>
<polygon fill="#666666" stroke="#666666" points="147.95,-244.83 158.78,-243.09 152.41,-241.9 156.02,-239.51 156.02,-239.51 156.02,-239.51 152.41,-241.9 153.83,-235.57 147.95,-244.83"/>
<ellipse fill="none" stroke="#666666" cx="143.18" cy="-247.97" rx="4" ry="4"/>
<text xml:space="preserve" text-anchor="middle" x="92.62" y="-317.72" font-family="Helvetica,sans-Serif" font-size="8.00">owns</text>
</g>
<!-- generator_profiles -->
<g id="node7" class="node">
<title>generator_profiles</title>
<path fill="#f5f5f5" stroke="black" d="M218.5,-342C218.5,-342 149.25,-342 149.25,-342 143.25,-342 137.25,-336 137.25,-330 137.25,-330 137.25,-318 137.25,-318 137.25,-312 143.25,-306 149.25,-306 149.25,-306 218.5,-306 218.5,-306 224.5,-306 230.5,-312 230.5,-318 230.5,-318 230.5,-330 230.5,-330 230.5,-336 224.5,-342 218.5,-342"/>
<text xml:space="preserve" text-anchor="middle" x="183.88" y="-320.12" font-family="Helvetica,sans-Serif" font-size="10.00">generator_profiles</text>
</g>
<!-- users&#45;&gt;generator_profiles -->
<g id="edge6" class="edge">
<title>users&#45;&gt;generator_profiles</title>
<path fill="none" stroke="#666666" d="M63,-358.88C66.01,-357.49 69.03,-356.17 72,-355 86.72,-349.17 102.94,-343.98 118.32,-339.59"/>
<polygon fill="#666666" stroke="#666666" points="57.19,-367.27 52.81,-358.28 54.61,-357.41 58.99,-366.4 57.19,-367.27"/>
<polyline fill="none" stroke="#666666" points="54.1,-363.22 58.6,-361.03"/>
<polygon fill="#666666" stroke="#666666" points="61.69,-365.08 57.31,-356.09 59.1,-355.22 63.49,-364.21 61.69,-365.08"/>
<polyline fill="none" stroke="#666666" points="58.6,-361.03 63.09,-358.83"/>
<polygon fill="#666666" stroke="#666666" points="126.88,-337.27 137.71,-339 132.03,-335.88 136.21,-334.74 136.21,-334.74 136.21,-334.74 132.03,-335.88 135.35,-330.31 126.88,-337.27"/>
<ellipse fill="none" stroke="#666666" cx="121.36" cy="-338.77" rx="4" ry="4"/>
<text xml:space="preserve" text-anchor="middle" x="92.62" y="-356.4" font-family="Helvetica,sans-Serif" font-size="8.00">owns</text>
</g>
<!-- sync_tasks -->
<g id="node8" class="node">
<title>sync_tasks</title>
<path fill="#f5f5f5" stroke="black" d="M392.75,-540C392.75,-540 350.5,-540 350.5,-540 344.5,-540 338.5,-534 338.5,-528 338.5,-528 338.5,-516 338.5,-516 338.5,-510 344.5,-504 350.5,-504 350.5,-504 392.75,-504 392.75,-504 398.75,-504 404.75,-510 404.75,-516 404.75,-516 404.75,-528 404.75,-528 404.75,-534 398.75,-540 392.75,-540"/>
<text xml:space="preserve" text-anchor="middle" x="371.62" y="-518.12" font-family="Helvetica,sans-Serif" font-size="10.00">sync_tasks</text>
</g>
<!-- users&#45;&gt;sync_tasks -->
<g id="edge7" class="edge">
<title>users&#45;&gt;sync_tasks</title>
<path fill="none" stroke="#666666" d="M41.41,-405.2C48.98,-418.48 59.45,-433.94 72,-445 141.59,-506.33 253.76,-519.92 319,-522.29"/>
<polygon fill="#666666" stroke="#666666" points="32.72,-399.71 41.51,-394.93 42.46,-396.69 33.68,-401.47 32.72,-399.71"/>
<polyline fill="none" stroke="#666666" points="36.64,-396.44 39.03,-400.83"/>
<polygon fill="#666666" stroke="#666666" points="35.11,-404.1 43.9,-399.32 44.85,-401.08 36.07,-405.86 35.11,-404.1"/>
<polyline fill="none" stroke="#666666" points="39.03,-400.83 41.42,-405.22"/>
<polygon fill="#666666" stroke="#666666" points="328.09,-522.49 337.99,-527.21 333.43,-522.6 337.76,-522.7 337.76,-522.7 337.76,-522.7 333.43,-522.6 338.19,-518.21 328.09,-522.49"/>
<ellipse fill="none" stroke="#666666" cx="322.38" cy="-522.36" rx="4" ry="4"/>
<text xml:space="preserve" text-anchor="middle" x="183.88" y="-515.08" font-family="Helvetica,sans-Serif" font-size="8.00">runs</text>
</g>
<!-- service_connections&#45;&gt;user_artist_relations -->
<g id="edge15" class="edge">
<title>service_connections&#45;&gt;user_artist_relations</title>
<path fill="none" stroke="#666666" d="M246.55,-429.64C263.74,-431.49 282.54,-433.52 300.19,-435.42"/>
<polygon fill="#666666" stroke="#666666" points="237.08,-433.65 238.15,-423.71 240.13,-423.92 239.06,-433.86 237.08,-433.65"/>
<polyline fill="none" stroke="#666666" points="236.62,-428.57 241.59,-429.11"/>
<polygon fill="#666666" stroke="#666666" points="242.05,-434.18 243.12,-424.24 245.11,-424.46 244.04,-434.4 242.05,-434.18"/>
<polyline fill="none" stroke="#666666" points="241.59,-429.11 246.56,-429.64"/>
<polygon fill="#666666" stroke="#666666" points="309.21,-436.39 318.67,-441.93 314.51,-436.96 318.82,-437.42 318.82,-437.42 318.82,-437.42 314.51,-436.96 319.63,-432.98 309.21,-436.39"/>
<ellipse fill="none" stroke="#666666" cx="303.52" cy="-435.77" rx="4" ry="4"/>
<text xml:space="preserve" text-anchor="middle" x="278.12" y="-436.78" font-family="Helvetica,sans-Serif" font-size="8.00">sourced from</text>
</g>
<!-- service_connections&#45;&gt;user_track_relations -->
<g id="edge16" class="edge">
<title>service_connections&#45;&gt;user_track_relations</title>
<path fill="none" stroke="#666666" d="M246.23,-408.14C263.66,-403.91 282.77,-399.28 300.67,-394.95"/>
<polygon fill="#666666" stroke="#666666" points="238.77,-415.09 236.41,-405.37 238.36,-404.9 240.71,-414.62 238.77,-415.09"/>
<polyline fill="none" stroke="#666666" points="236.62,-410.46 241.48,-409.29"/>
<polygon fill="#666666" stroke="#666666" points="243.63,-413.91 241.27,-404.19 243.21,-403.72 245.57,-413.44 243.63,-413.91"/>
<polyline fill="none" stroke="#666666" points="241.48,-409.29 246.34,-408.11"/>
<polygon fill="#666666" stroke="#666666" points="309.44,-392.82 320.22,-394.84 314.62,-391.57 318.83,-390.55 318.83,-390.55 318.83,-390.55 314.62,-391.57 318.1,-386.1 309.44,-392.82"/>
<ellipse fill="none" stroke="#666666" cx="303.88" cy="-394.17" rx="4" ry="4"/>
<text xml:space="preserve" text-anchor="middle" x="278.12" y="-407.25" font-family="Helvetica,sans-Serif" font-size="8.00">sourced from</text>
</g>
<!-- service_connections&#45;&gt;sync_tasks -->
<g id="edge17" class="edge">
<title>service_connections&#45;&gt;sync_tasks</title>
<path fill="none" stroke="#666666" d="M228.08,-446.03C255.92,-460.87 292.21,-480.21 321.2,-495.66"/>
<polygon fill="#666666" stroke="#666666" points="217.91,-446.27 222.61,-437.45 224.38,-438.39 219.67,-447.21 217.91,-446.27"/>
<polyline fill="none" stroke="#666666" points="219.38,-441.39 223.79,-443.74"/>
<polygon fill="#666666" stroke="#666666" points="222.32,-448.62 227.02,-439.8 228.79,-440.74 224.09,-449.56 222.32,-448.62"/>
<polyline fill="none" stroke="#666666" points="223.79,-443.74 228.2,-446.09"/>
<polygon fill="#666666" stroke="#666666" points="329.05,-499.84 335.76,-508.52 333.76,-502.35 337.58,-504.39 337.58,-504.39 337.58,-504.39 333.76,-502.35 339.99,-500.58 329.05,-499.84"/>
<ellipse fill="none" stroke="#666666" cx="324.01" cy="-497.15" rx="4" ry="4"/>
<text xml:space="preserve" text-anchor="middle" x="278.12" y="-485.68" font-family="Helvetica,sans-Serif" font-size="8.00">scoped to</text>
</g>
<!-- playlist_tracks -->
<g id="node13" class="node">
<title>playlist_tracks</title>
<path fill="#f5f5f5" stroke="black" d="M399.12,-236C399.12,-236 344.12,-236 344.12,-236 338.12,-236 332.12,-230 332.12,-224 332.12,-224 332.12,-212 332.12,-212 332.12,-206 338.12,-200 344.12,-200 344.12,-200 399.12,-200 399.12,-200 405.12,-200 411.12,-206 411.12,-212 411.12,-212 411.12,-224 411.12,-224 411.12,-230 405.12,-236 399.12,-236"/>
<text xml:space="preserve" text-anchor="middle" x="371.62" y="-214.12" font-family="Helvetica,sans-Serif" font-size="10.00">playlist_tracks</text>
</g>
<!-- playlists&#45;&gt;playlist_tracks -->
<g id="edge18" class="edge">
<title>playlists&#45;&gt;playlist_tracks</title>
<path fill="none" stroke="#666666" d="M220.91,-223.64C246.95,-222.66 282.69,-221.31 312.72,-220.18"/>
<polygon fill="#666666" stroke="#666666" points="212.28,-228.97 211.91,-218.98 213.9,-218.9 214.28,-228.9 212.28,-228.97"/>
<polyline fill="none" stroke="#666666" points="211.09,-224.01 216.09,-223.82"/>
<polygon fill="#666666" stroke="#666666" points="217.28,-228.78 216.9,-218.79 218.9,-218.71 219.28,-228.71 217.28,-228.78"/>
<polyline fill="none" stroke="#666666" points="216.09,-223.82 221.09,-223.64"/>
<polygon fill="#666666" stroke="#666666" points="321.61,-219.85 331.77,-223.97 326.94,-219.65 331.27,-219.48 331.27,-219.48 331.27,-219.48 326.94,-219.65 331.43,-214.97 321.61,-219.85"/>
<ellipse fill="none" stroke="#666666" cx="315.9" cy="-220.06" rx="4" ry="4"/>
<text xml:space="preserve" text-anchor="middle" x="278.12" y="-223.73" font-family="Helvetica,sans-Serif" font-size="8.00">contains</text>
</g>
<!-- generation_records -->
<g id="node14" class="node">
<title>generation_records</title>
<path fill="#f5f5f5" stroke="black" d="M408.88,-321C408.88,-321 334.38,-321 334.38,-321 328.38,-321 322.38,-315 322.38,-309 322.38,-309 322.38,-297 322.38,-297 322.38,-291 328.38,-285 334.38,-285 334.38,-285 408.88,-285 408.88,-285 414.88,-285 420.88,-291 420.88,-297 420.88,-297 420.88,-309 420.88,-309 420.88,-315 414.88,-321 408.88,-321"/>
<text xml:space="preserve" text-anchor="middle" x="371.62" y="-299.12" font-family="Helvetica,sans-Serif" font-size="10.00">generation_records</text>
</g>
<!-- playlists&#45;&gt;generation_records -->
<g id="edge20" class="edge">
<title>playlists&#45;&gt;generation_records</title>
<path fill="none" stroke="#666666" d="M219.73,-246.89C230.62,-253.22 242.84,-259.81 254.5,-265 270.11,-271.95 287.4,-278.29 303.77,-283.72"/>
<polygon fill="#666666" stroke="#666666" points="209.63,-246.71 214.72,-238.11 216.44,-239.13 211.35,-247.73 209.63,-246.71"/>
<polyline fill="none" stroke="#666666" points="211.31,-241.9 215.62,-244.45"/>
<polygon fill="#666666" stroke="#666666" points="213.93,-249.26 219.02,-240.66 220.75,-241.68 215.65,-250.28 213.93,-249.26"/>
<polyline fill="none" stroke="#666666" points="215.62,-244.45 219.92,-247"/>
<polygon fill="#666666" stroke="#666666" points="312.2,-286.4 320.37,-293.73 317.29,-288.02 321.41,-289.34 321.41,-289.34 321.41,-289.34 317.29,-288.02 323.1,-285.15 312.2,-286.4"/>
<ellipse fill="none" stroke="#666666" cx="306.76" cy="-284.67" rx="4" ry="4"/>
<text xml:space="preserve" text-anchor="middle" x="278.12" y="-284.35" font-family="Helvetica,sans-Serif" font-size="8.00">result of</text>
</g>
<!-- generator_profiles&#45;&gt;generation_records -->
<g id="edge19" class="edge">
<title>generator_profiles&#45;&gt;generation_records</title>
<path fill="none" stroke="#666666" d="M240.48,-317.71C260.03,-315.5 282.22,-312.99 302.67,-310.68"/>
<polygon fill="#666666" stroke="#666666" points="232.35,-323.66 231.22,-313.73 233.21,-313.5 234.33,-323.44 232.35,-323.66"/>
<polyline fill="none" stroke="#666666" points="230.79,-318.81 235.76,-318.25"/>
<polygon fill="#666666" stroke="#666666" points="237.31,-323.1 236.19,-313.17 238.18,-312.94 239.3,-322.88 237.31,-323.1"/>
<polyline fill="none" stroke="#666666" points="235.76,-318.25 240.73,-317.69"/>
<polygon fill="#666666" stroke="#666666" points="311.72,-309.66 322.17,-313.01 317.02,-309.06 321.33,-308.57 321.33,-308.57 321.33,-308.57 317.02,-309.06 321.15,-304.06 311.72,-309.66"/>
<ellipse fill="none" stroke="#666666" cx="306.04" cy="-310.3" rx="4" ry="4"/>
<text xml:space="preserve" text-anchor="middle" x="278.12" y="-317.4" font-family="Helvetica,sans-Serif" font-size="8.00">produces</text>
</g>
<!-- sync_tasks&#45;&gt;sync_tasks -->
<g id="edge21" class="edge">
<title>sync_tasks&#45;&gt;sync_tasks</title>
<path fill="none" stroke="#666666" d="M355.26,-549.92C357.5,-554.69 362.95,-558 371.62,-558 374.44,-558 376.92,-557.65 379.06,-557.02"/>
<polygon fill="#666666" stroke="#666666" points="349.77,-541.43 359.76,-540.87 359.87,-542.87 349.89,-543.43 349.77,-541.43"/>
<polyline fill="none" stroke="#666666" points="354.71,-540.15 354.99,-545.14"/>
<polygon fill="#666666" stroke="#666666" points="350.05,-546.42 360.04,-545.86 360.15,-547.86 350.17,-548.42 350.05,-546.42"/>
<polyline fill="none" stroke="#666666" points="354.99,-545.14 355.27,-550.14"/>
<polygon fill="#666666" stroke="#666666" points="383.48,-549.16 392.3,-542.65 386.09,-544.51 388.21,-540.74 388.21,-540.74 388.21,-540.74 386.09,-544.51 384.45,-538.24 383.48,-549.16"/>
<ellipse fill="none" stroke="#666666" cx="380.67" cy="-554.15" rx="4" ry="4"/>
<text xml:space="preserve" text-anchor="middle" x="371.62" y="-559.4" font-family="Helvetica,sans-Serif" font-size="8.00">parent of</text>
</g>
<!-- artists -->
<g id="node9" class="node">
<title>artists</title>
<path fill="#f5f5f5" stroke="black" d="M42,-106C42,-106 12,-106 12,-106 6,-106 0,-100 0,-94 0,-94 0,-82 0,-82 0,-76 6,-70 12,-70 12,-70 42,-70 42,-70 48,-70 54,-76 54,-82 54,-82 54,-94 54,-94 54,-100 48,-106 42,-106"/>
<text xml:space="preserve" text-anchor="middle" x="27" y="-84.12" font-family="Helvetica,sans-Serif" font-size="10.00">artists</text>
</g>
<!-- artists&#45;&gt;user_artist_relations -->
<g id="edge13" class="edge">
<title>artists&#45;&gt;user_artist_relations</title>
<path fill="none" stroke="#666666" d="M31.16,-116.04C36.8,-160.78 50.11,-245.29 72,-265 126.86,-314.4 177.64,-243.44 236.5,-288 252.37,-300.01 243.9,-312.16 254.5,-329 278.21,-366.68 287.22,-374.61 319.75,-405 322.5,-407.57 325.42,-410.13 328.42,-412.63"/>
<polygon fill="#666666" stroke="#666666" points="25.14,-107.95 35.07,-106.74 35.31,-108.73 25.38,-109.94 25.14,-107.95"/>
<polyline fill="none" stroke="#666666" points="29.98,-106.36 30.59,-111.32"/>
<polygon fill="#666666" stroke="#666666" points="25.74,-112.92 35.67,-111.71 35.91,-113.69 25.99,-114.9 25.74,-112.92"/>
<polyline fill="none" stroke="#666666" points="30.59,-111.32 31.19,-116.28"/>
<polygon fill="#666666" stroke="#666666" points="335.46,-418.15 340.56,-427.86 339.66,-421.44 343.07,-424.11 343.07,-424.11 343.07,-424.11 339.66,-421.44 346.11,-420.78 335.46,-418.15"/>
<ellipse fill="none" stroke="#666666" cx="330.96" cy="-414.63" rx="4" ry="4"/>
<text xml:space="preserve" text-anchor="middle" x="183.88" y="-289.4" font-family="Helvetica,sans-Serif" font-size="8.00">target of</text>
</g>
<!-- tracks -->
<g id="node10" class="node">
<title>tracks</title>
<path fill="#f5f5f5" stroke="black" d="M198.88,-144C198.88,-144 168.88,-144 168.88,-144 162.88,-144 156.88,-138 156.88,-132 156.88,-132 156.88,-120 156.88,-120 156.88,-114 162.88,-108 168.88,-108 168.88,-108 198.88,-108 198.88,-108 204.88,-108 210.88,-114 210.88,-120 210.88,-120 210.88,-132 210.88,-132 210.88,-138 204.88,-144 198.88,-144"/>
<text xml:space="preserve" text-anchor="middle" x="183.88" y="-122.12" font-family="Helvetica,sans-Serif" font-size="10.00">tracks</text>
</g>
<!-- artists&#45;&gt;tracks -->
<g id="edge8" class="edge">
<title>artists&#45;&gt;tracks</title>
<path fill="none" stroke="#666666" d="M63.8,-96.78C85.8,-102.18 114.17,-109.14 137.71,-114.92"/>
<polygon fill="#666666" stroke="#666666" points="54.05,-99.54 56.44,-89.83 58.38,-90.31 55.99,-100.02 54.05,-99.54"/>
<polyline fill="none" stroke="#666666" points="54.27,-94.45 59.13,-95.64"/>
<polygon fill="#666666" stroke="#666666" points="58.91,-100.73 61.29,-91.02 63.23,-91.5 60.85,-101.21 58.91,-100.73"/>
<polyline fill="none" stroke="#666666" points="59.13,-95.64 63.98,-96.83"/>
<polygon fill="#666666" stroke="#666666" points="146.44,-117.06 155.08,-123.81 151.62,-118.33 155.82,-119.36 155.82,-119.36 155.82,-119.36 151.62,-118.33 157.22,-115.07 146.44,-117.06"/>
<ellipse fill="none" stroke="#666666" cx="140.88" cy="-115.7" rx="4" ry="4"/>
<text xml:space="preserve" text-anchor="middle" x="92.62" y="-109.54" font-family="Helvetica,sans-Serif" font-size="8.00">by</text>
</g>
<!-- artist_tags -->
<g id="node11" class="node">
<title>artist_tags</title>
<path fill="#f5f5f5" stroke="black" d="M202.75,-36C202.75,-36 165,-36 165,-36 159,-36 153,-30 153,-24 153,-24 153,-12 153,-12 153,-6 159,0 165,0 165,0 202.75,0 202.75,0 208.75,0 214.75,-6 214.75,-12 214.75,-12 214.75,-24 214.75,-24 214.75,-30 208.75,-36 202.75,-36"/>
<text xml:space="preserve" text-anchor="middle" x="183.88" y="-14.12" font-family="Helvetica,sans-Serif" font-size="10.00">artist_tags</text>
</g>
<!-- artists&#45;&gt;artist_tags -->
<g id="edge9" class="edge">
<title>artists&#45;&gt;artist_tags</title>
<path fill="none" stroke="#666666" d="M63.26,-71.06C66.21,-69.68 69.15,-68.31 72,-67 92.58,-57.54 115.45,-47.38 135.05,-38.77"/>
<polygon fill="#666666" stroke="#666666" points="57.51,-79.31 53.23,-70.27 55.04,-69.41 59.31,-78.45 57.51,-79.31"/>
<polyline fill="none" stroke="#666666" points="54.47,-75.22 58.99,-73.08"/>
<polygon fill="#666666" stroke="#666666" points="62.03,-77.17 57.75,-68.13 59.56,-67.28 63.84,-76.32 62.03,-77.17"/>
<polyline fill="none" stroke="#666666" points="58.99,-73.08 63.51,-70.94"/>
<polygon fill="#666666" stroke="#666666" points="143.18,-35.21 154.15,-35.33 148.07,-33.08 152.04,-31.34 152.04,-31.34 152.04,-31.34 148.07,-33.08 150.54,-27.08 143.18,-35.21"/>
<ellipse fill="none" stroke="#666666" cx="137.94" cy="-37.51" rx="4" ry="4"/>
<text xml:space="preserve" text-anchor="middle" x="92.62" y="-68.4" font-family="Helvetica,sans-Serif" font-size="8.00">tagged with</text>
</g>
<!-- artist_similarities -->
<g id="node12" class="node">
<title>artist_similarities</title>
<path fill="#f5f5f5" stroke="black" d="M216.62,-90C216.62,-90 151.12,-90 151.12,-90 145.12,-90 139.12,-84 139.12,-78 139.12,-78 139.12,-66 139.12,-66 139.12,-60 145.12,-54 151.12,-54 151.12,-54 216.62,-54 216.62,-54 222.62,-54 228.62,-60 228.62,-66 228.62,-66 228.62,-78 228.62,-78 228.62,-84 222.62,-90 216.62,-90"/>
<text xml:space="preserve" text-anchor="middle" x="183.88" y="-68.12" font-family="Helvetica,sans-Serif" font-size="10.00">artist_similarities</text>
</g>
<!-- artists&#45;&gt;artist_similarities -->
<g id="edge10" class="edge">
<title>artists&#45;&gt;artist_similarities</title>
<path fill="none" stroke="#666666" d="M64.03,-84.28C80.6,-82.57 100.75,-80.48 119.71,-78.53"/>
<polygon fill="#666666" stroke="#666666" points="55.78,-90.16 54.75,-80.21 56.74,-80 57.77,-89.95 55.78,-90.16"/>
<polyline fill="none" stroke="#666666" points="54.27,-85.29 59.25,-84.77"/>
<polygon fill="#666666" stroke="#666666" points="60.75,-89.64 59.73,-79.7 61.72,-79.49 62.74,-89.44 60.75,-89.64"/>
<polyline fill="none" stroke="#666666" points="59.25,-84.77 64.22,-84.26"/>
<polygon fill="#666666" stroke="#666666" points="128.57,-77.61 138.98,-81.06 133.88,-77.06 138.18,-76.62 138.18,-76.62 138.18,-76.62 133.88,-77.06 138.05,-72.11 128.57,-77.61"/>
<ellipse fill="none" stroke="#666666" cx="122.88" cy="-78.2" rx="4" ry="4"/>
<text xml:space="preserve" text-anchor="middle" x="92.62" y="-84.67" font-family="Helvetica,sans-Serif" font-size="8.00">similar to</text>
</g>
<!-- tracks&#45;&gt;listening_events -->
<g id="edge11" class="edge">
<title>tracks&#45;&gt;listening_events</title>
<path fill="none" stroke="#666666" d="M221.1,-128.29C244.21,-129.88 274.77,-132.2 301.75,-135 304.15,-135.25 306.59,-135.51 309.05,-135.79"/>
<polygon fill="#666666" stroke="#666666" points="212.03,-132.69 212.7,-122.72 214.7,-122.85 214.03,-132.83 212.03,-132.69"/>
<polyline fill="none" stroke="#666666" points="211.37,-127.64 216.36,-127.97"/>
<polygon fill="#666666" stroke="#666666" points="217.02,-133.03 217.69,-123.05 219.69,-123.19 219.02,-133.16 217.02,-133.03"/>
<polyline fill="none" stroke="#666666" points="216.36,-127.97 221.35,-128.31"/>
<polygon fill="#666666" stroke="#666666" points="317.79,-136.84 327.18,-142.51 323.08,-137.48 327.38,-138 327.38,-138 327.38,-138 323.08,-137.48 328.25,-133.57 317.79,-136.84"/>
<ellipse fill="none" stroke="#666666" cx="312.11" cy="-136.16" rx="4" ry="4"/>
<text xml:space="preserve" text-anchor="middle" x="278.12" y="-136.4" font-family="Helvetica,sans-Serif" font-size="8.00">played in</text>
</g>
<!-- tracks&#45;&gt;user_track_relations -->
<g id="edge14" class="edge">
<title>tracks&#45;&gt;user_track_relations</title>
<path fill="none" stroke="#666666" d="M219.54,-142.22C225.95,-146.56 232.03,-151.81 236.5,-158 256.58,-185.79 233.03,-206.27 254.5,-233 269.13,-251.21 287.1,-237.81 301.75,-256 322.99,-282.36 302.74,-300.74 319.75,-330 323.12,-335.79 327.4,-341.32 332.04,-346.42"/>
<polygon fill="#666666" stroke="#666666" points="209.58,-141.98 214.8,-133.45 216.51,-134.5 211.29,-143.03 209.58,-141.98"/>
<polyline fill="none" stroke="#666666" points="211.34,-137.19 215.6,-139.8"/>
<polygon fill="#666666" stroke="#666666" points="213.84,-144.59 219.06,-136.06 220.77,-137.11 215.55,-145.64 213.84,-144.59"/>
<polyline fill="none" stroke="#666666" points="215.6,-139.8 219.87,-142.41"/>
<polygon fill="#666666" stroke="#666666" points="338.19,-352.38 342.25,-362.56 342.03,-356.09 345.14,-359.1 345.14,-359.1 345.14,-359.1 342.03,-356.09 348.51,-356.1 338.19,-352.38"/>
<ellipse fill="none" stroke="#666666" cx="334.08" cy="-348.4" rx="4" ry="4"/>
<text xml:space="preserve" text-anchor="middle" x="278.12" y="-257.4" font-family="Helvetica,sans-Serif" font-size="8.00">target of</text>
</g>
<!-- tracks&#45;&gt;playlist_tracks -->
<g id="edge12" class="edge">
<title>tracks&#45;&gt;playlist_tracks</title>
<path fill="none" stroke="#666666" d="M219.78,-143.29C246.85,-156.69 284.85,-175.52 315.94,-190.91"/>
<polygon fill="#666666" stroke="#666666" points="209.77,-143.91 214.21,-134.95 216,-135.84 211.56,-144.8 209.77,-143.91"/>
<polyline fill="none" stroke="#666666" points="211.09,-138.99 215.58,-141.21"/>
<polygon fill="#666666" stroke="#666666" points="214.25,-146.13 218.69,-137.17 220.48,-138.06 216.04,-147.02 214.25,-146.13"/>
<polyline fill="none" stroke="#666666" points="215.58,-141.21 220.06,-143.42"/>
<polygon fill="#666666" stroke="#666666" points="324.05,-194.93 331.01,-203.4 328.83,-197.3 332.71,-199.22 332.71,-199.22 332.71,-199.22 328.83,-197.3 335.01,-195.34 324.05,-194.93"/>
<ellipse fill="none" stroke="#666666" cx="318.92" cy="-192.39" rx="4" ry="4"/>
<text xml:space="preserve" text-anchor="middle" x="278.12" y="-184.35" font-family="Helvetica,sans-Serif" font-size="8.00">appears in</text>
</g>
</g>
</svg>
