<?xml version="1.0" encoding="UTF-8" standalone="no"?>
<!DOCTYPE svg PUBLIC "-//W3C//DTD SVG 1.1//EN"
 "http://www.w3.org/Graphics/SVG/1.1/DTD/svg11.dtd">
<!-- Generated by graphviz version 15.0.0 (20260523.1842)
 -->
<!-- Title: data_model Pages: 1 -->
<svg width="409pt" height="474pt"
 viewBox="0.00 0.00 409.00 474.00" xmlns="http://www.w3.org/2000/svg" xmlns:xlink="http://www.w3.org/1999/xlink">
<g id="graph0" class="graph" transform="scale(1 1) rotate(0) translate(4 469.92)">
<title>data_model</title>
<polygon fill="white" stroke="none" points="-4,4 -4,-469.92 405,-469.92 405,4 -4,4"/>
<!-- users -->
<g id="node1" class="node">
<title>users</title>
<path fill="#f5f5f5" stroke="black" d="M42,-296.92C42,-296.92 12,-296.92 12,-296.92 6,-296.92 0,-290.92 0,-284.92 0,-284.92 0,-272.92 0,-272.92 0,-266.92 6,-260.92 12,-260.92 12,-260.92 42,-260.92 42,-260.92 48,-260.92 54,-266.92 54,-272.92 54,-272.92 54,-284.92 54,-284.92 54,-290.92 48,-296.92 42,-296.92"/>
<text xml:space="preserve" text-anchor="middle" x="27" y="-275.04" font-family="Helvetica,sans-Serif" font-size="10.00">users</text>
</g>
<!-- service_connections -->
<g id="node2" class="node">
<title>service_connections</title>
<path fill="#f5f5f5" stroke="black" d="M202,-341.92C202,-341.92 120.75,-341.92 120.75,-341.92 114.75,-341.92 108.75,-335.92 108.75,-329.92 108.75,-329.92 108.75,-317.92 108.75,-317.92 108.75,-311.92 114.75,-305.92 120.75,-305.92 120.75,-305.92 202,-305.92 202,-305.92 208,-305.92 214,-311.92 214,-317.92 214,-317.92 214,-329.92 214,-329.92 214,-335.92 208,-341.92 202,-341.92"/>
<text xml:space="preserve" text-anchor="middle" x="161.38" y="-320.04" font-family="Helvetica,sans-Serif" font-size="10.00">service_connections</text>
</g>
<!-- users&#45;&gt;service_connections -->
<g id="edge1" class="edge">
<title>users&#45;&gt;service_connections</title>
<path fill="none" stroke="#666666" d="M63.61,-291.02C71.91,-293.84 81.03,-296.94 90.25,-300.08"/>
<polygon fill="#666666" stroke="#666666" points="53.81,-292.97 57.03,-283.5 58.92,-284.15 55.7,-293.62 53.81,-292.97"/>
<polyline fill="none" stroke="#666666" points="54.47,-287.92 59.2,-289.53"/>
<polygon fill="#666666" stroke="#666666" points="58.54,-294.58 61.76,-285.11 63.65,-285.76 60.43,-295.22 58.54,-294.58"/>
<polyline fill="none" stroke="#666666" points="59.2,-289.53 63.94,-291.13"/>
<polygon fill="#666666" stroke="#666666" points="98.71,-302.95 106.73,-310.43 103.76,-304.67 107.86,-306.06 107.86,-306.06 107.86,-306.06 103.76,-304.67 109.62,-301.91 98.71,-302.95"/>
<ellipse fill="none" stroke="#666666" cx="93.29" cy="-301.11" rx="4" ry="4"/>
<text xml:space="preserve" text-anchor="middle" x="81.38" y="-301.47" font-family="Helvetica,sans-Serif" font-size="8.00">has</text>
</g>
<!-- listening_events -->
<g id="node3" class="node">
<title>listening_events</title>
<path fill="#f5f5f5" stroke="black" d="M380.38,-37.92C380.38,-37.92 317.88,-37.92 317.88,-37.92 311.88,-37.92 305.88,-31.92 305.88,-25.92 305.88,-25.92 305.88,-13.92 305.88,-13.92 305.88,-7.92 311.88,-1.92 317.88,-1.92 317.88,-1.92 380.38,-1.92 380.38,-1.92 386.38,-1.92 392.38,-7.92 392.38,-13.92 392.38,-13.92 392.38,-25.92 392.38,-25.92 392.38,-31.92 386.38,-37.92 380.38,-37.92"/>
<text xml:space="preserve" text-anchor="middle" x="349.12" y="-16.04" font-family="Helvetica,sans-Serif" font-size="10.00">listening_events</text>
</g>
<!-- users&#45;&gt;listening_events -->
<g id="edge2" class="edge">
<title>users&#45;&gt;listening_events</title>
<path fill="none" stroke="#666666" d="M27.76,-250.86C29,-198.31 40.02,-85.6 108.75,-32.92 158.98,5.58 234.01,2.93 286.64,-5.57"/>
<polygon fill="#666666" stroke="#666666" points="32.64,-259.6 22.64,-259.47 22.67,-257.47 32.67,-257.6 32.64,-259.6"/>
<polyline fill="none" stroke="#666666" points="27.63,-260.54 27.7,-255.54"/>
<polygon fill="#666666" stroke="#666666" points="32.71,-254.61 22.71,-254.47 22.74,-252.47 32.74,-252.61 32.71,-254.61"/>
<polyline fill="none" stroke="#666666" points="27.7,-255.54 27.77,-250.54"/>
<polygon fill="#666666" stroke="#666666" points="295.45,-7.18 304.48,-13.41 300.7,-8.14 304.96,-8.92 304.96,-8.92 304.96,-8.92 300.7,-8.14 306.1,-4.55 295.45,-7.18"/>
<ellipse fill="none" stroke="#666666" cx="289.83" cy="-6.15" rx="4" ry="4"/>
<text xml:space="preserve" text-anchor="middle" x="161.38" y="-34.32" font-family="Helvetica,sans-Serif" font-size="8.00">logs</text>
</g>
<!-- user_artist_relations -->
<g id="node4" class="node">
<title>user_artist_relations</title>
<path fill="#f5f5f5" stroke="black" d="M389,-265.92C389,-265.92 309.25,-265.92 309.25,-265.92 303.25,-265.92 297.25,-259.92 297.25,-253.92 297.25,-253.92 297.25,-241.92 297.25,-241.92 297.25,-235.92 303.25,-229.92 309.25,-229.92 309.25,-229.92 389,-229.92 389,-229.92 395,-229.92 401,-235.92 401,-241.92 401,-241.92 401,-253.92 401,-253.92 401,-259.92 395,-265.92 389,-265.92"/>
<text xml:space="preserve" text-anchor="middle" x="349.12" y="-244.04" font-family="Helvetica,sans-Serif" font-size="10.00">user_artist_relations</text>
</g>
<!-- users&#45;&gt;user_artist_relations -->
<g id="edge3" class="edge">
<title>users&#45;&gt;user_artist_relations</title>
<path fill="none" stroke="#666666" d="M64.12,-275.42C115.82,-270.41 211.94,-261.11 277.93,-254.72"/>
<polygon fill="#666666" stroke="#666666" points="55.95,-281.23 54.98,-271.28 56.97,-271.09 57.94,-281.04 55.95,-281.23"/>
<polyline fill="none" stroke="#666666" points="54.47,-276.35 59.45,-275.87"/>
<polygon fill="#666666" stroke="#666666" points="60.92,-280.75 59.96,-270.8 61.95,-270.61 62.91,-280.56 60.92,-280.75"/>
<polyline fill="none" stroke="#666666" points="59.45,-275.87 64.42,-275.39"/>
<polygon fill="#666666" stroke="#666666" points="286.65,-253.87 297.03,-257.39 291.96,-253.36 296.27,-252.94 296.27,-252.94 296.27,-252.94 291.96,-253.36 296.17,-248.43 286.65,-253.87"/>
<ellipse fill="none" stroke="#666666" cx="280.95" cy="-254.42" rx="4" ry="4"/>
<text xml:space="preserve" text-anchor="middle" x="161.38" y="-272.28" font-family="Helvetica,sans-Serif" font-size="8.00">follows</text>
</g>
<!-- user_track_relations -->
<g id="node5" class="node">
<title>user_track_relations</title>
<path fill="#f5f5f5" stroke="black" d="M389,-152.92C389,-152.92 309.25,-152.92 309.25,-152.92 303.25,-152.92 297.25,-146.92 297.25,-140.92 297.25,-140.92 297.25,-128.92 297.25,-128.92 297.25,-122.92 303.25,-116.92 309.25,-116.92 309.25,-116.92 389,-116.92 389,-116.92 395,-116.92 401,-122.92 401,-128.92 401,-128.92 401,-140.92 401,-140.92 401,-146.92 395,-152.92 389,-152.92"/>
<text xml:space="preserve" text-anchor="middle" x="349.12" y="-131.04" font-family="Helvetica,sans-Serif" font-size="10.00">user_track_relations</text>
</g>
<!-- users&#45;&gt;user_track_relations -->
<g id="edge4" class="edge">
<title>users&#45;&gt;user_track_relations</title>
<path fill="none" stroke="#666666" d="M36.5,-251.39C47.65,-220.5 70.43,-171.72 108.75,-148.92 136.33,-132.51 217.53,-130.79 277.75,-132.01"/>
<polygon fill="#666666" stroke="#666666" points="38.34,-261.42 28.88,-258.17 29.53,-256.28 38.99,-259.53 38.34,-261.42"/>
<polyline fill="none" stroke="#666666" points="33.28,-260.74 34.91,-256.01"/>
<polygon fill="#666666" stroke="#666666" points="39.96,-256.69 30.51,-253.44 31.16,-251.55 40.61,-254.8 39.96,-256.69"/>
<polyline fill="none" stroke="#666666" points="34.91,-256.01 36.54,-251.29"/>
<polygon fill="#666666" stroke="#666666" points="286.53,-132.24 296.41,-137 291.86,-132.38 296.19,-132.5 296.19,-132.5 296.19,-132.5 291.86,-132.38 296.65,-128.01 286.53,-132.24"/>
<ellipse fill="none" stroke="#666666" cx="280.82" cy="-132.09" rx="4" ry="4"/>
<text xml:space="preserve" text-anchor="middle" x="161.38" y="-150.32" font-family="Helvetica,sans-Serif" font-size="8.00">rates</text>
</g>
<!-- playlists -->
<g id="node6" class="node">
<title>playlists</title>
<path fill="#f5f5f5" stroke="black" d="M176.38,-242.92C176.38,-242.92 146.38,-242.92 146.38,-242.92 140.38,-242.92 134.38,-236.92 134.38,-230.92 134.38,-230.92 134.38,-218.92 134.38,-218.92 134.38,-212.92 140.38,-206.92 146.38,-206.92 146.38,-206.92 176.38,-206.92 176.38,-206.92 182.38,-206.92 188.38,-212.92 188.38,-218.92 188.38,-218.92 188.38,-230.92 188.38,-230.92 188.38,-236.92 182.38,-242.92 176.38,-242.92"/>
<text xml:space="preserve" text-anchor="middle" x="161.38" y="-221.04" font-family="Helvetica,sans-Serif" font-size="10.00">playlists</text>
</g>
<!-- users&#45;&gt;playlists -->
<g id="edge5" class="edge">
<title>users&#45;&gt;playlists</title>
<path fill="none" stroke="#666666" d="M63.09,-260.01C66.08,-258.57 69.07,-257.19 72,-255.92 86.05,-249.82 101.72,-244.01 115.92,-239.11"/>
<polygon fill="#666666" stroke="#666666" points="57.35,-268.45 52.89,-259.5 54.68,-258.61 59.14,-267.56 57.35,-268.45"/>
<polyline fill="none" stroke="#666666" points="54.22,-264.42 58.7,-262.19"/>
<polygon fill="#666666" stroke="#666666" points="61.82,-266.22 57.36,-257.27 59.15,-256.38 63.61,-265.33 61.82,-266.22"/>
<polyline fill="none" stroke="#666666" points="58.7,-262.19 63.17,-259.96"/>
<polygon fill="#666666" stroke="#666666" points="124.28,-236.31 135.2,-237.41 129.34,-234.62 133.45,-233.25 133.45,-233.25 133.45,-233.25 129.34,-234.62 132.34,-228.87 124.28,-236.31"/>
<ellipse fill="none" stroke="#666666" cx="118.86" cy="-238.13" rx="4" ry="4"/>
<text xml:space="preserve" text-anchor="middle" x="81.38" y="-257.32" font-family="Helvetica,sans-Serif" font-size="8.00">owns</text>
</g>
<!-- generator_profiles -->
<g id="node7" class="node">
<title>generator_profiles</title>
<path fill="#f5f5f5" stroke="black" d="M196,-395.92C196,-395.92 126.75,-395.92 126.75,-395.92 120.75,-395.92 114.75,-389.92 114.75,-383.92 114.75,-383.92 114.75,-371.92 114.75,-371.92 114.75,-365.92 120.75,-359.92 126.75,-359.92 126.75,-359.92 196,-359.92 196,-359.92 202,-359.92 208,-365.92 208,-371.92 208,-371.92 208,-383.92 208,-383.92 208,-389.92 202,-395.92 196,-395.92"/>
<text xml:space="preserve" text-anchor="middle" x="161.38" y="-374.04" font-family="Helvetica,sans-Serif" font-size="10.00">generator_profiles</text>
</g>
<!-- users&#45;&gt;generator_profiles -->
<g id="edge6" class="edge">
<title>users&#45;&gt;generator_profiles</title>
<path fill="none" stroke="#666666" d="M52.92,-304.06C65.66,-316.28 81.97,-331.01 106.57,-348.54"/>
<polygon fill="#666666" stroke="#666666" points="43.07,-301.46 50.04,-294.29 51.47,-295.68 44.5,-302.85 43.07,-301.46"/>
<polyline fill="none" stroke="#666666" points="45.84,-297.18 49.42,-300.66"/>
<polygon fill="#666666" stroke="#666666" points="46.65,-304.94 53.62,-297.77 55.06,-299.17 48.09,-306.34 46.65,-304.94"/>
<polyline fill="none" stroke="#666666" points="49.42,-300.66 53.01,-304.15"/>
<polygon fill="#666666" stroke="#666666" points="114,-353.65 119.69,-363.02 118.4,-356.67 121.96,-359.13 121.96,-359.13 121.96,-359.13 118.4,-356.67 124.79,-355.61 114,-353.65"/>
<ellipse fill="none" stroke="#666666" cx="109.29" cy="-350.41" rx="4" ry="4"/>
<text xml:space="preserve" text-anchor="middle" x="81.38" y="-338.12" font-family="Helvetica,sans-Serif" font-size="8.00">owns</text>
</g>
<!-- sync_tasks -->
<g id="node8" class="node">
<title>sync_tasks</title>
<path fill="#f5f5f5" stroke="black" d="M370.25,-438.92C370.25,-438.92 328,-438.92 328,-438.92 322,-438.92 316,-432.92 316,-426.92 316,-426.92 316,-414.92 316,-414.92 316,-408.92 322,-402.92 328,-402.92 328,-402.92 370.25,-402.92 370.25,-402.92 376.25,-402.92 382.25,-408.92 382.25,-414.92 382.25,-414.92 382.25,-426.92 382.25,-426.92 382.25,-432.92 376.25,-438.92 370.25,-438.92"/>
<text xml:space="preserve" text-anchor="middle" x="349.12" y="-417.04" font-family="Helvetica,sans-Serif" font-size="10.00">sync_tasks</text>
</g>
<!-- users&#45;&gt;sync_tasks -->
<g id="edge7" class="edge">
<title>users&#45;&gt;sync_tasks</title>
<path fill="none" stroke="#666666" d="M37.2,-306.46C48.77,-336.34 71.74,-382.76 108.75,-404.92 165.89,-439.12 245.02,-436.84 296.39,-430.31"/>
<polygon fill="#666666" stroke="#666666" points="29.49,-300.06 38.87,-296.59 39.57,-298.46 30.19,-301.93 29.49,-300.06"/>
<polyline fill="none" stroke="#666666" points="33.84,-297.38 35.57,-302.07"/>
<polygon fill="#666666" stroke="#666666" points="31.23,-304.75 40.61,-301.27 41.3,-303.15 31.93,-306.62 31.23,-304.75"/>
<polyline fill="none" stroke="#666666" points="35.57,-302.07 37.31,-306.76"/>
<polygon fill="#666666" stroke="#666666" points="305.36,-429 315.91,-432.01 310.64,-428.23 314.92,-427.6 314.92,-427.6 314.92,-427.6 310.64,-428.23 314.6,-423.1 305.36,-429"/>
<ellipse fill="none" stroke="#666666" cx="299.7" cy="-429.83" rx="4" ry="4"/>
<text xml:space="preserve" text-anchor="middle" x="161.38" y="-434.81" font-family="Helvetica,sans-Serif" font-size="8.00">runs</text>
</g>
<!-- service_connections&#45;&gt;user_artist_relations -->
<g id="edge13" class="edge">
<title>service_connections&#45;&gt;user_artist_relations</title>
<path fill="none" stroke="#666666" d="M224.09,-332.55C242.49,-332.74 262.27,-330.46 279.25,-322.92 298.47,-314.38 314.7,-297.58 326.57,-282.04"/>
<polygon fill="#666666" stroke="#666666" points="215.15,-337.26 215.48,-327.26 217.48,-327.33 217.15,-337.32 215.15,-337.26"/>
<polyline fill="none" stroke="#666666" points="214.32,-332.23 219.31,-332.39"/>
<polygon fill="#666666" stroke="#666666" points="220.15,-337.42 220.48,-327.43 222.48,-327.49 222.15,-337.49 220.15,-337.42"/>
<polyline fill="none" stroke="#666666" points="219.31,-332.39 224.31,-332.56"/>
<polygon fill="#666666" stroke="#666666" points="331.76,-274.6 341.17,-268.97 334.81,-270.22 337.29,-266.67 337.29,-266.67 337.29,-266.67 334.81,-270.22 333.79,-263.82 331.76,-274.6"/>
<ellipse fill="none" stroke="#666666" cx="328.49" cy="-279.29" rx="4" ry="4"/>
<text xml:space="preserve" text-anchor="middle" x="255.62" y="-333.84" font-family="Helvetica,sans-Serif" font-size="8.00">sourced from</text>
</g>
<!-- service_connections&#45;&gt;user_track_relations -->
<g id="edge14" class="edge">
<title>service_connections&#45;&gt;user_track_relations</title>
<path fill="none" stroke="#666666" d="M203.5,-300.08C207.16,-297.47 210.72,-294.74 214,-291.92 257.63,-254.46 299.24,-202.31 324.24,-168.58"/>
<polygon fill="#666666" stroke="#666666" points="199.02,-309.16 193.41,-300.88 195.07,-299.75 200.68,-308.03 199.02,-309.16"/>
<polyline fill="none" stroke="#666666" points="195.39,-305.58 199.53,-302.77"/>
<polygon fill="#666666" stroke="#666666" points="203.16,-306.35 197.55,-298.07 199.21,-296.95 204.82,-305.23 203.16,-306.35"/>
<polyline fill="none" stroke="#666666" points="199.53,-302.77 203.67,-299.97"/>
<polygon fill="#666666" stroke="#666666" points="329.33,-161.58 338.85,-156.14 332.47,-157.26 335.02,-153.76 335.02,-153.76 335.02,-153.76 332.47,-157.26 331.57,-150.84 329.33,-161.58"/>
<ellipse fill="none" stroke="#666666" cx="325.97" cy="-166.2" rx="4" ry="4"/>
<text xml:space="preserve" text-anchor="middle" x="255.62" y="-274.4" font-family="Helvetica,sans-Serif" font-size="8.00">sourced from</text>
</g>
<!-- service_connections&#45;&gt;sync_tasks -->
<g id="edge15" class="edge">
<title>service_connections&#45;&gt;sync_tasks</title>
<path fill="none" stroke="#666666" d="M210.66,-348.05C211.81,-348.98 212.93,-349.94 214,-350.92 224.92,-360.9 220.43,-369.69 232,-378.92 250.77,-393.89 275.33,-403.79 297.03,-410.21"/>
<polygon fill="#666666" stroke="#666666" points="200.55,-346.92 206.4,-338.81 208.03,-339.98 202.17,-348.09 200.55,-346.92"/>
<polyline fill="none" stroke="#666666" points="202.67,-342.28 206.72,-345.2"/>
<polygon fill="#666666" stroke="#666666" points="204.6,-349.84 210.46,-341.74 212.08,-342.91 206.23,-351.01 204.6,-349.84"/>
<polyline fill="none" stroke="#666666" points="206.72,-345.2 210.77,-348.13"/>
<polygon fill="#666666" stroke="#666666" points="305.53,-412.44 314.06,-419.34 310.69,-413.8 314.88,-414.9 314.88,-414.9 314.88,-414.9 310.69,-413.8 316.35,-410.63 305.53,-412.44"/>
<ellipse fill="none" stroke="#666666" cx="300" cy="-410.99" rx="4" ry="4"/>
<text xml:space="preserve" text-anchor="middle" x="255.62" y="-405.66" font-family="Helvetica,sans-Serif" font-size="8.00">scoped to</text>
</g>
<!-- playlist_tracks -->
<g id="node11" class="node">
<title>playlist_tracks</title>
<path fill="#f5f5f5" stroke="black" d="M376.62,-97.92C376.62,-97.92 321.62,-97.92 321.62,-97.92 315.62,-97.92 309.62,-91.92 309.62,-85.92 309.62,-85.92 309.62,-73.92 309.62,-73.92 309.62,-67.92 315.62,-61.92 321.62,-61.92 321.62,-61.92 376.62,-61.92 376.62,-61.92 382.62,-61.92 388.62,-67.92 388.62,-73.92 388.62,-73.92 388.62,-85.92 388.62,-85.92 388.62,-91.92 382.62,-97.92 376.62,-97.92"/>
<text xml:space="preserve" text-anchor="middle" x="349.12" y="-76.04" font-family="Helvetica,sans-Serif" font-size="10.00">playlist_tracks</text>
</g>
<!-- playlists&#45;&gt;playlist_tracks -->
<g id="edge16" class="edge">
<title>playlists&#45;&gt;playlist_tracks</title>
<path fill="none" stroke="#666666" d="M197.09,-205.01C202.9,-201.22 208.75,-197.13 214,-192.92 251.16,-163.15 254.75,-144 296.21,-110.19"/>
<polygon fill="#666666" stroke="#666666" points="192.18,-214 186.86,-205.53 188.55,-204.47 193.87,-212.94 192.18,-214"/>
<polyline fill="none" stroke="#666666" points="188.67,-210.3 192.9,-207.64"/>
<polygon fill="#666666" stroke="#666666" points="196.41,-211.34 191.09,-202.87 192.78,-201.81 198.11,-210.28 196.41,-211.34"/>
<polyline fill="none" stroke="#666666" points="192.9,-207.64 197.14,-204.98"/>
<polygon fill="#666666" stroke="#666666" points="303.28,-104.72 313.94,-102.16 307.5,-101.45 310.92,-98.8 310.92,-98.8 310.92,-98.8 307.5,-101.45 308.43,-95.04 303.28,-104.72"/>
<ellipse fill="none" stroke="#666666" cx="298.76" cy="-108.22" rx="4" ry="4"/>
<text xml:space="preserve" text-anchor="middle" x="255.62" y="-177.59" font-family="Helvetica,sans-Serif" font-size="8.00">contains</text>
</g>
<!-- generation_records -->
<g id="node12" class="node">
<title>generation_records</title>
<path fill="#f5f5f5" stroke="black" d="M386.38,-363.92C386.38,-363.92 311.88,-363.92 311.88,-363.92 305.88,-363.92 299.88,-357.92 299.88,-351.92 299.88,-351.92 299.88,-339.92 299.88,-339.92 299.88,-333.92 305.88,-327.92 311.88,-327.92 311.88,-327.92 386.38,-327.92 386.38,-327.92 392.38,-327.92 398.38,-333.92 398.38,-339.92 398.38,-339.92 398.38,-351.92 398.38,-351.92 398.38,-357.92 392.38,-363.92 386.38,-363.92"/>
<text xml:space="preserve" text-anchor="middle" x="349.12" y="-342.04" font-family="Helvetica,sans-Serif" font-size="10.00">generation_records</text>
</g>
<!-- playlists&#45;&gt;generation_records -->
<g id="edge18" class="edge">
<title>playlists&#45;&gt;generation_records</title>
<path fill="none" stroke="#666666" d="M197.07,-242.85C203.16,-246.96 209.1,-251.67 214,-256.92 225.67,-269.41 219.64,-279.1 232,-290.92 233.29,-292.15 262.3,-305.89 290.99,-319.33"/>
<polygon fill="#666666" stroke="#666666" points="186.96,-242.42 192.27,-233.95 193.96,-235.01 188.66,-243.48 186.96,-242.42"/>
<polyline fill="none" stroke="#666666" points="188.77,-237.65 193.01,-240.31"/>
<polygon fill="#666666" stroke="#666666" points="191.2,-245.08 196.51,-236.6 198.2,-237.66 192.89,-246.14 191.2,-245.08"/>
<polyline fill="none" stroke="#666666" points="193.01,-240.31 197.24,-242.96"/>
<polygon fill="#666666" stroke="#666666" points="299.21,-323.16 306.36,-331.47 304.04,-325.42 307.96,-327.25 307.96,-327.25 307.96,-327.25 304.04,-325.42 310.17,-323.32 299.21,-323.16"/>
<ellipse fill="none" stroke="#666666" cx="294.03" cy="-320.74" rx="4" ry="4"/>
<text xml:space="preserve" text-anchor="middle" x="255.62" y="-314.32" font-family="Helvetica,sans-Serif" font-size="8.00">result of</text>
</g>
<!-- generator_profiles&#45;&gt;generation_records -->
<g id="edge17" class="edge">
<title>generator_profiles&#45;&gt;generation_records</title>
<path fill="none" stroke="#666666" d="M217.98,-368.34C237.63,-364.95 259.95,-361.11 280.49,-357.57"/>
<polygon fill="#666666" stroke="#666666" points="210.13,-374.77 208.43,-364.91 210.4,-364.57 212.1,-374.43 210.13,-374.77"/>
<polyline fill="none" stroke="#666666" points="208.29,-370.01 213.22,-369.16"/>
<polygon fill="#666666" stroke="#666666" points="215.05,-373.92 213.35,-364.06 215.33,-363.72 217.02,-373.58 215.05,-373.92"/>
<polyline fill="none" stroke="#666666" points="213.22,-369.16 218.15,-368.31"/>
<polygon fill="#666666" stroke="#666666" points="289.31,-356.05 299.93,-358.79 294.56,-355.14 298.83,-354.41 298.83,-354.41 298.83,-354.41 294.56,-355.14 298.4,-349.92 289.31,-356.05"/>
<ellipse fill="none" stroke="#666666" cx="283.67" cy="-357.02" rx="4" ry="4"/>
<text xml:space="preserve" text-anchor="middle" x="255.62" y="-367.12" font-family="Helvetica,sans-Serif" font-size="8.00">produces</text>
</g>
<!-- sync_tasks&#45;&gt;sync_tasks -->
<g id="edge19" class="edge">
<title>sync_tasks&#45;&gt;sync_tasks</title>
<path fill="none" stroke="#666666" d="M332.76,-448.84C335,-453.61 340.45,-456.92 349.12,-456.92 351.94,-456.92 354.42,-456.57 356.56,-455.93"/>
<polygon fill="#666666" stroke="#666666" points="327.27,-440.35 337.26,-439.79 337.37,-441.79 327.39,-442.35 327.27,-440.35"/>
<polyline fill="none" stroke="#666666" points="332.21,-439.07 332.49,-444.06"/>
<polygon fill="#666666" stroke="#666666" points="327.55,-445.34 337.54,-444.78 337.65,-446.78 327.67,-447.34 327.55,-445.34"/>
<polyline fill="none" stroke="#666666" points="332.49,-444.06 332.77,-449.05"/>
<polygon fill="#666666" stroke="#666666" points="360.98,-448.08 369.8,-441.57 363.59,-443.43 365.71,-439.65 365.71,-439.65 365.71,-439.65 363.59,-443.43 361.95,-437.16 360.98,-448.08"/>
<ellipse fill="none" stroke="#666666" cx="358.17" cy="-453.06" rx="4" ry="4"/>
<text xml:space="preserve" text-anchor="middle" x="349.12" y="-458.32" font-family="Helvetica,sans-Serif" font-size="8.00">parent of</text>
</g>
<!-- artists -->
<g id="node9" class="node">
<title>artists</title>
<path fill="#f5f5f5" stroke="black" d="M42,-97.92C42,-97.92 12,-97.92 12,-97.92 6,-97.92 0,-91.92 0,-85.92 0,-85.92 0,-73.92 0,-73.92 0,-67.92 6,-61.92 12,-61.92 12,-61.92 42,-61.92 42,-61.92 48,-61.92 54,-67.92 54,-73.92 54,-73.92 54,-85.92 54,-85.92 54,-91.92 48,-97.92 42,-97.92"/>
<text xml:space="preserve" text-anchor="middle" x="27" y="-76.04" font-family="Helvetica,sans-Serif" font-size="10.00">artists</text>
</g>
<!-- artists&#45;&gt;user_artist_relations -->
<g id="edge11" class="edge">
<title>artists&#45;&gt;user_artist_relations</title>
<path fill="none" stroke="#666666" d="M48.88,-105.77C63.89,-122.81 85.52,-144.4 108.75,-157.92 150.89,-182.45 168.2,-172.18 214,-188.92 240.15,-198.47 268.45,-210.64 292.28,-221.44"/>
<polygon fill="#666666" stroke="#666666" points="39.32,-102.33 46.9,-95.81 48.21,-97.33 40.62,-103.84 39.32,-102.33"/>
<polyline fill="none" stroke="#666666" points="42.46,-98.31 45.72,-102.1"/>
<polygon fill="#666666" stroke="#666666" points="42.58,-106.12 50.16,-99.6 51.47,-101.12 43.88,-107.64 42.58,-106.12"/>
<polyline fill="none" stroke="#666666" points="45.72,-102.1 48.98,-105.89"/>
<polygon fill="#666666" stroke="#666666" points="300.53,-225.23 307.74,-233.5 305.38,-227.46 309.31,-229.27 309.31,-229.27 309.31,-229.27 305.38,-227.46 311.5,-225.32 300.53,-225.23"/>
<ellipse fill="none" stroke="#666666" cx="295.34" cy="-222.84" rx="4" ry="4"/>
<text xml:space="preserve" text-anchor="middle" x="161.38" y="-190.32" font-family="Helvetica,sans-Serif" font-size="8.00">target of</text>
</g>
<!-- tracks -->
<g id="node10" class="node">
<title>tracks</title>
<path fill="#f5f5f5" stroke="black" d="M176.38,-86.92C176.38,-86.92 146.38,-86.92 146.38,-86.92 140.38,-86.92 134.38,-80.92 134.38,-74.92 134.38,-74.92 134.38,-62.92 134.38,-62.92 134.38,-56.92 140.38,-50.92 146.38,-50.92 146.38,-50.92 176.38,-50.92 176.38,-50.92 182.38,-50.92 188.38,-56.92 188.38,-62.92 188.38,-62.92 188.38,-74.92 188.38,-74.92 188.38,-80.92 182.38,-86.92 176.38,-86.92"/>
<text xml:space="preserve" text-anchor="middle" x="161.38" y="-65.04" font-family="Helvetica,sans-Serif" font-size="10.00">tracks</text>
</g>
<!-- artists&#45;&gt;tracks -->
<g id="edge8" class="edge">
<title>artists&#45;&gt;tracks</title>
<path fill="none" stroke="#666666" d="M64.16,-76.91C79.76,-75.62 98.19,-74.09 114.72,-72.71"/>
<polygon fill="#666666" stroke="#666666" points="55.88,-82.62 55.05,-72.65 57.05,-72.49 57.87,-82.45 55.88,-82.62"/>
<polyline fill="none" stroke="#666666" points="54.47,-77.72 59.45,-77.3"/>
<polygon fill="#666666" stroke="#666666" points="60.86,-82.2 60.04,-72.24 62.03,-72.07 62.86,-82.04 60.86,-82.2"/>
<polyline fill="none" stroke="#666666" points="59.45,-77.3 64.44,-76.89"/>
<polygon fill="#666666" stroke="#666666" points="123.65,-71.97 133.99,-75.63 128.97,-71.53 133.28,-71.17 133.28,-71.17 133.28,-71.17 128.97,-71.53 133.24,-66.66 123.65,-71.97"/>
<ellipse fill="none" stroke="#666666" cx="117.95" cy="-72.44" rx="4" ry="4"/>
<text xml:space="preserve" text-anchor="middle" x="81.38" y="-77.45" font-family="Helvetica,sans-Serif" font-size="8.00">by</text>
</g>
<!-- tracks&#45;&gt;listening_events -->
<g id="edge9" class="edge">
<title>tracks&#45;&gt;listening_events</title>
<path fill="none" stroke="#666666" d="M198.05,-59.51C223.22,-52.87 257.57,-43.81 287.05,-36.03"/>
<polygon fill="#666666" stroke="#666666" points="190.84,-66.58 188.29,-56.91 190.22,-56.4 192.77,-66.07 190.84,-66.58"/>
<polyline fill="none" stroke="#666666" points="188.59,-62 193.43,-60.73"/>
<polygon fill="#666666" stroke="#666666" points="195.67,-65.31 193.12,-55.64 195.05,-55.13 197.61,-64.8 195.67,-65.31"/>
<polyline fill="none" stroke="#666666" points="193.43,-60.73 198.26,-59.45"/>
<polygon fill="#666666" stroke="#666666" points="295.59,-33.78 306.41,-35.58 300.75,-32.42 304.94,-31.31 304.94,-31.31 304.94,-31.31 300.75,-32.42 304.11,-26.87 295.59,-33.78"/>
<ellipse fill="none" stroke="#666666" cx="290.06" cy="-35.23" rx="4" ry="4"/>
<text xml:space="preserve" text-anchor="middle" x="255.62" y="-51.65" font-family="Helvetica,sans-Serif" font-size="8.00">played in</text>
</g>
<!-- tracks&#45;&gt;user_track_relations -->
<g id="edge12" class="edge">
<title>tracks&#45;&gt;user_track_relations</title>
<path fill="none" stroke="#666666" d="M197.99,-81.57C220.85,-89.7 251.31,-100.52 278.81,-110.29"/>
<polygon fill="#666666" stroke="#666666" points="187.86,-83.28 191.21,-73.86 193.1,-74.53 189.75,-83.95 187.86,-83.28"/>
<polyline fill="none" stroke="#666666" points="188.59,-78.23 193.31,-79.91"/>
<polygon fill="#666666" stroke="#666666" points="192.57,-84.95 195.92,-75.53 197.81,-76.2 194.46,-85.62 192.57,-84.95"/>
<polyline fill="none" stroke="#666666" points="193.31,-79.91 198.02,-81.58"/>
<polygon fill="#666666" stroke="#666666" points="287.05,-113.22 294.97,-120.81 292.08,-115 296.16,-116.45 296.16,-116.45 296.16,-116.45 292.08,-115 297.98,-112.33 287.05,-113.22"/>
<ellipse fill="none" stroke="#666666" cx="281.67" cy="-111.3" rx="4" ry="4"/>
<text xml:space="preserve" text-anchor="middle" x="255.62" y="-111.17" font-family="Helvetica,sans-Serif" font-size="8.00">target of</text>
</g>
<!-- tracks&#45;&gt;playlist_tracks -->
<g id="edge10" class="edge">
<title>tracks&#45;&gt;playlist_tracks</title>
<path fill="none" stroke="#666666" d="M198.41,-71.05C224.45,-72.59 260.19,-74.71 290.22,-76.49"/>
<polygon fill="#666666" stroke="#666666" points="189.3,-75.52 189.89,-65.54 191.88,-65.66 191.29,-75.64 189.3,-75.52"/>
<polyline fill="none" stroke="#666666" points="188.59,-70.47 193.59,-70.77"/>
<polygon fill="#666666" stroke="#666666" points="194.29,-75.82 194.88,-65.83 196.88,-65.95 196.28,-75.93 194.29,-75.82"/>
<polyline fill="none" stroke="#666666" points="193.59,-70.77 198.58,-71.06"/>
<polygon fill="#666666" stroke="#666666" points="299.12,-77.02 308.84,-82.1 304.45,-77.33 308.77,-77.59 308.77,-77.59 308.77,-77.59 304.45,-77.33 309.37,-73.11 299.12,-77.02"/>
<ellipse fill="none" stroke="#666666" cx="293.41" cy="-76.68" rx="4" ry="4"/>
<text xml:space="preserve" text-anchor="middle" x="255.62" y="-77.13" font-family="Helvetica,sans-Serif" font-size="8.00">appears in</text>
</g>
</g>
</svg>
