<?xml version="1.0" encoding="UTF-8" standalone="no"?>
<!DOCTYPE svg PUBLIC "-//W3C//DTD SVG 1.1//EN"
 "http://www.w3.org/Graphics/SVG/1.1/DTD/svg11.dtd">
<!-- Generated by graphviz version 15.0.0 (20260523.1842)
 -->
<!-- Title: entity_resolution Pages: 1 -->
<svg width="446pt" height="271pt"
 viewBox="0.00 0.00 446.00 271.00" xmlns="http://www.w3.org/2000/svg" xmlns:xlink="http://www.w3.org/1999/xlink">
<g id="graph0" class="graph" transform="scale(1 1) rotate(0) translate(4 267)">
<title>entity_resolution</title>
<polygon fill="white" stroke="none" points="-4,4 -4,-267 441.75,-267 441.75,4 -4,4"/>
<!-- venues -->
<g id="node1" class="node">
<title>venues</title>
<path fill="#f5f5f5" stroke="black" d="M42,-90C42,-90 12,-90 12,-90 6,-90 0,-84 0,-78 0,-78 0,-66 0,-66 0,-60 6,-54 12,-54 12,-54 42,-54 42,-54 48,-54 54,-60 54,-66 54,-66 54,-78 54,-78 54,-84 48,-90 42,-90"/>
<text xml:space="preserve" text-anchor="middle" x="27" y="-68.12" font-family="Helvetica,sans-Serif" font-size="10.00">venues</text>
</g>
<!-- events -->
<g id="node2" class="node">
<title>events</title>
<path fill="#f5f5f5" stroke="black" d="M201.12,-149C201.12,-149 171.12,-149 171.12,-149 165.12,-149 159.12,-143 159.12,-137 159.12,-137 159.12,-125 159.12,-125 159.12,-119 165.12,-113 171.12,-113 171.12,-113 201.12,-113 201.12,-113 207.12,-113 213.12,-119 213.12,-125 213.12,-125 213.12,-137 213.12,-137 213.12,-143 207.12,-149 201.12,-149"/>
<text xml:space="preserve" text-anchor="middle" x="186.12" y="-127.12" font-family="Helvetica,sans-Serif" font-size="10.00">events</text>
</g>
<!-- venues&#45;&gt;events -->
<g id="edge1" class="edge">
<title>venues&#45;&gt;events</title>
<path fill="none" stroke="#666666" d="M63.64,-85.38C86.45,-93.95 116.23,-105.13 140.6,-114.28"/>
<polygon fill="#666666" stroke="#666666" points="53.48,-86.91 56.99,-77.55 58.87,-78.25 55.35,-87.61 53.48,-86.91"/>
<polyline fill="none" stroke="#666666" points="54.3,-81.88 58.98,-83.63"/>
<polygon fill="#666666" stroke="#666666" points="58.16,-88.67 61.67,-79.3 63.55,-80.01 60.03,-89.37 58.16,-88.67"/>
<polyline fill="none" stroke="#666666" points="58.98,-83.63 63.66,-85.39"/>
<polygon fill="#666666" stroke="#666666" points="149.07,-117.46 156.84,-125.19 154.06,-119.33 158.11,-120.86 158.11,-120.86 158.11,-120.86 154.06,-119.33 160.01,-116.76 149.07,-117.46"/>
<ellipse fill="none" stroke="#666666" cx="143.71" cy="-115.45" rx="4" ry="4"/>
<text xml:space="preserve" text-anchor="middle" x="96.38" y="-108.18" font-family="Helvetica,sans-Serif" font-size="8.00">hosts</text>
</g>
<!-- venue_candidates -->
<g id="node3" class="node">
<title>venue_candidates</title>
<path fill="#f5f5f5" stroke="black" d="M221.5,-36C221.5,-36 150.75,-36 150.75,-36 144.75,-36 138.75,-30 138.75,-24 138.75,-24 138.75,-12 138.75,-12 138.75,-6 144.75,0 150.75,0 150.75,0 221.5,0 221.5,0 227.5,0 233.5,-6 233.5,-12 233.5,-12 233.5,-24 233.5,-24 233.5,-30 227.5,-36 221.5,-36"/>
<text xml:space="preserve" text-anchor="middle" x="186.12" y="-14.12" font-family="Helvetica,sans-Serif" font-size="10.00">venue_candidates</text>
</g>
<!-- venues&#45;&gt;venue_candidates -->
<g id="edge2" class="edge">
<title>venues&#45;&gt;venue_candidates</title>
<path fill="none" stroke="#666666" d="M63.65,-59.75C80.33,-54.01 100.74,-47 120.02,-40.37"/>
<polygon fill="#666666" stroke="#666666" points="56.87,-67.37 53.62,-57.91 55.51,-57.26 58.76,-66.72 56.87,-67.37"/>
<polyline fill="none" stroke="#666666" points="54.3,-62.96 59.03,-61.34"/>
<polygon fill="#666666" stroke="#666666" points="61.6,-65.74 58.35,-56.28 60.24,-55.63 63.49,-65.09 61.6,-65.74"/>
<polyline fill="none" stroke="#666666" points="59.03,-61.34 63.76,-59.71"/>
<polygon fill="#666666" stroke="#666666" points="128.61,-37.42 139.53,-38.43 133.65,-35.69 137.75,-34.28 137.75,-34.28 137.75,-34.28 133.65,-35.69 136.6,-29.92 128.61,-37.42"/>
<ellipse fill="none" stroke="#666666" cx="123.2" cy="-39.28" rx="4" ry="4"/>
<text xml:space="preserve" text-anchor="middle" x="96.38" y="-57.44" font-family="Helvetica,sans-Serif" font-size="8.00">resolved from</text>
</g>
<!-- event_artists -->
<g id="node4" class="node">
<title>event_artists</title>
<path fill="#f5f5f5" stroke="black" d="M402.12,-196C402.12,-196 353.88,-196 353.88,-196 347.88,-196 341.88,-190 341.88,-184 341.88,-184 341.88,-172 341.88,-172 341.88,-166 347.88,-160 353.88,-160 353.88,-160 402.12,-160 402.12,-160 408.12,-160 414.12,-166 414.12,-172 414.12,-172 414.12,-184 414.12,-184 414.12,-190 408.12,-196 402.12,-196"/>
<text xml:space="preserve" text-anchor="middle" x="378" y="-174.12" font-family="Helvetica,sans-Serif" font-size="10.00">event_artists</text>
</g>
<!-- events&#45;&gt;event_artists -->
<g id="edge3" class="edge">
<title>events&#45;&gt;event_artists</title>
<path fill="none" stroke="#666666" d="M223.06,-139.89C251.17,-146.85 290.72,-156.64 322.69,-164.56"/>
<polygon fill="#666666" stroke="#666666" points="213.3,-142.63 215.7,-132.92 217.64,-133.4 215.24,-143.11 213.3,-142.63"/>
<polyline fill="none" stroke="#666666" points="213.53,-137.54 218.38,-138.74"/>
<polygon fill="#666666" stroke="#666666" points="218.15,-143.83 220.55,-134.12 222.49,-134.6 220.09,-144.31 218.15,-143.83"/>
<polyline fill="none" stroke="#666666" points="218.38,-138.74 223.23,-139.94"/>
<polygon fill="#666666" stroke="#666666" points="331.41,-166.72 340.04,-173.49 336.59,-168 340.8,-169.04 340.8,-169.04 340.8,-169.04 336.59,-168 342.2,-164.75 331.41,-166.72"/>
<ellipse fill="none" stroke="#666666" cx="325.86" cy="-165.34" rx="4" ry="4"/>
<text xml:space="preserve" text-anchor="middle" x="275.88" y="-160.11" font-family="Helvetica,sans-Serif" font-size="8.00">lineup</text>
</g>
<!-- event_artist_candidates -->
<g id="node5" class="node">
<title>event_artist_candidates</title>
<path fill="#f5f5f5" stroke="black" d="M425.75,-263C425.75,-263 330.25,-263 330.25,-263 324.25,-263 318.25,-257 318.25,-251 318.25,-251 318.25,-239 318.25,-239 318.25,-233 324.25,-227 330.25,-227 330.25,-227 425.75,-227 425.75,-227 431.75,-227 437.75,-233 437.75,-239 437.75,-239 437.75,-251 437.75,-251 437.75,-257 431.75,-263 425.75,-263"/>
<text xml:space="preserve" text-anchor="middle" x="378" y="-241.12" font-family="Helvetica,sans-Serif" font-size="10.00">event_artist_candidates</text>
</g>
<!-- events&#45;&gt;event_artist_candidates -->
<g id="edge4" class="edge">
<title>events&#45;&gt;event_artist_candidates</title>
<path fill="none" stroke="#666666" d="M221.5,-153.87C231.08,-159.98 241.58,-166.42 251.5,-172 272.55,-183.84 279.21,-184.15 300.25,-196 311.28,-202.21 322.92,-209.33 333.7,-216.18"/>
<polygon fill="#666666" stroke="#666666" points="211.48,-153.37 216.9,-144.96 218.58,-146.04 213.16,-154.45 211.48,-153.37"/>
<polyline fill="none" stroke="#666666" points="213.35,-148.62 217.55,-151.33"/>
<polygon fill="#666666" stroke="#666666" points="215.68,-156.07 221.1,-147.67 222.78,-148.75 217.37,-157.16 215.68,-156.07"/>
<polyline fill="none" stroke="#666666" points="217.55,-151.33 221.76,-154.04"/>
<polygon fill="#666666" stroke="#666666" points="341.07,-220.94 347.02,-230.15 345.54,-223.84 349.18,-226.19 349.18,-226.19 349.18,-226.19 345.54,-223.84 351.91,-222.6 341.07,-220.94"/>
<ellipse fill="none" stroke="#666666" cx="336.26" cy="-217.84" rx="4" ry="4"/>
<text xml:space="preserve" text-anchor="middle" x="275.88" y="-197.4" font-family="Helvetica,sans-Serif" font-size="8.00">raw lineup</text>
</g>
<!-- event_candidates -->
<g id="node6" class="node">
<title>event_candidates</title>
<path fill="#f5f5f5" stroke="black" d="M412.25,-64C412.25,-64 343.75,-64 343.75,-64 337.75,-64 331.75,-58 331.75,-52 331.75,-52 331.75,-40 331.75,-40 331.75,-34 337.75,-28 343.75,-28 343.75,-28 412.25,-28 412.25,-28 418.25,-28 424.25,-34 424.25,-40 424.25,-40 424.25,-52 424.25,-52 424.25,-58 418.25,-64 412.25,-64"/>
<text xml:space="preserve" text-anchor="middle" x="378" y="-42.12" font-family="Helvetica,sans-Serif" font-size="10.00">event_candidates</text>
</g>
<!-- events&#45;&gt;event_candidates -->
<g id="edge5" class="edge">
<title>events&#45;&gt;event_candidates</title>
<path fill="none" stroke="#666666" d="M222.57,-115.13C249.43,-103.11 286.93,-86.32 318.25,-72.3"/>
<polygon fill="#666666" stroke="#666666" points="216.48,-123.34 212.4,-114.21 214.22,-113.39 218.31,-122.52 216.48,-123.34"/>
<polyline fill="none" stroke="#666666" points="213.53,-119.18 218.09,-117.14"/>
<polygon fill="#666666" stroke="#666666" points="221.05,-121.29 216.96,-112.17 218.79,-111.35 222.87,-120.48 221.05,-121.29"/>
<polyline fill="none" stroke="#666666" points="218.09,-117.14 222.65,-115.1"/>
<polygon fill="#666666" stroke="#666666" points="326.42,-68.64 337.38,-68.66 331.29,-66.46 335.24,-64.69 335.24,-64.69 335.24,-64.69 331.29,-66.46 333.71,-60.45 326.42,-68.64"/>
<ellipse fill="none" stroke="#666666" cx="321.2" cy="-70.98" rx="4" ry="4"/>
<text xml:space="preserve" text-anchor="middle" x="275.88" y="-102.48" font-family="Helvetica,sans-Serif" font-size="8.00">resolved from</text>
</g>
<!-- user_event_attendance -->
<g id="node7" class="node">
<title>user_event_attendance</title>
<path fill="#f5f5f5" stroke="black" d="M424.62,-134C424.62,-134 331.38,-134 331.38,-134 325.38,-134 319.38,-128 319.38,-122 319.38,-122 319.38,-110 319.38,-110 319.38,-104 325.38,-98 331.38,-98 331.38,-98 424.62,-98 424.62,-98 430.62,-98 436.62,-104 436.62,-110 436.62,-110 436.62,-122 436.62,-122 436.62,-128 430.62,-134 424.62,-134"/>
<text xml:space="preserve" text-anchor="middle" x="378" y="-112.12" font-family="Helvetica,sans-Serif" font-size="10.00">user_event_attendance</text>
</g>
<!-- events&#45;&gt;user_event_attendance -->
<g id="edge6" class="edge">
<title>events&#45;&gt;user_event_attendance</title>
<path fill="none" stroke="#666666" d="M223.36,-128.14C245.04,-126.42 273.45,-124.18 299.94,-122.09"/>
<polygon fill="#666666" stroke="#666666" points="214.92,-133.82 214.13,-123.85 216.12,-123.69 216.91,-133.66 214.92,-133.82"/>
<polyline fill="none" stroke="#666666" points="213.53,-128.91 218.51,-128.52"/>
<polygon fill="#666666" stroke="#666666" points="219.9,-133.43 219.11,-123.46 221.11,-123.3 221.9,-133.27 219.9,-133.43"/>
<polyline fill="none" stroke="#666666" points="218.51,-128.52 223.5,-128.13"/>
<polygon fill="#666666" stroke="#666666" points="308.92,-121.38 319.24,-125.08 314.23,-120.96 318.55,-120.62 318.55,-120.62 318.55,-120.62 314.23,-120.96 318.53,-116.11 308.92,-121.38"/>
<ellipse fill="none" stroke="#666666" cx="303.21" cy="-121.83" rx="4" ry="4"/>
<text xml:space="preserve" text-anchor="middle" x="275.88" y="-127.12" font-family="Helvetica,sans-Serif" font-size="8.00">attended</text>
</g>
<!-- venue_candidates&#45;&gt;event_candidates -->
<g id="edge9" class="edge">
<title>venue_candidates&#45;&gt;event_candidates</title>
<path fill="none" stroke="#666666" d="M243.26,-26.28C264.97,-29.48 289.96,-33.17 312.42,-36.48"/>
<polygon fill="#666666" stroke="#666666" points="233.83,-29.94 235.29,-20.05 237.27,-20.34 235.81,-30.23 233.83,-29.94"/>
<polyline fill="none" stroke="#666666" points="233.57,-24.85 238.52,-25.58"/>
<polygon fill="#666666" stroke="#666666" points="238.78,-30.67 240.24,-20.78 242.22,-21.07 240.76,-30.96 238.78,-30.67"/>
<polyline fill="none" stroke="#666666" points="238.52,-25.58 243.47,-26.31"/>
<polygon fill="#666666" stroke="#666666" points="321.13,-37.76 330.37,-43.67 326.41,-38.54 330.7,-39.17 330.7,-39.17 330.7,-39.17 326.41,-38.54 331.68,-34.77 321.13,-37.76"/>
<ellipse fill="none" stroke="#666666" cx="315.48" cy="-36.93" rx="4" ry="4"/>
<text xml:space="preserve" text-anchor="middle" x="275.88" y="-35.91" font-family="Helvetica,sans-Serif" font-size="8.00">venue of</text>
</g>
<!-- artists -->
<g id="node8" class="node">
<title>artists</title>
<path fill="#f5f5f5" stroke="black" d="M201.12,-261C201.12,-261 171.12,-261 171.12,-261 165.12,-261 159.12,-255 159.12,-249 159.12,-249 159.12,-237 159.12,-237 159.12,-231 165.12,-225 171.12,-225 171.12,-225 201.12,-225 201.12,-225 207.12,-225 213.12,-231 213.12,-237 213.12,-237 213.12,-249 213.12,-249 213.12,-255 207.12,-261 201.12,-261"/>
<text xml:space="preserve" text-anchor="middle" x="186.12" y="-239.12" font-family="Helvetica,sans-Serif" font-size="10.00">artists</text>
</g>
<!-- artists&#45;&gt;event_artists -->
<g id="edge7" class="edge">
<title>artists&#45;&gt;event_artists</title>
<path fill="none" stroke="#666666" d="M222.63,-231.22C244.94,-223.78 274.31,-213.92 300.25,-205 307.73,-202.43 315.62,-199.69 323.37,-196.98"/>
<polygon fill="#666666" stroke="#666666" points="215.75,-238.78 212.59,-229.29 214.49,-228.66 217.65,-238.15 215.75,-238.78"/>
<polyline fill="none" stroke="#666666" points="213.22,-234.35 217.96,-232.77"/>
<polygon fill="#666666" stroke="#666666" points="220.49,-237.2 217.33,-227.71 219.23,-227.08 222.39,-236.57 220.49,-237.2"/>
<polyline fill="none" stroke="#666666" points="217.96,-232.77 222.71,-231.19"/>
<polygon fill="#666666" stroke="#666666" points="331.75,-194.03 342.68,-194.96 336.78,-192.26 340.87,-190.83 340.87,-190.83 340.87,-190.83 336.78,-192.26 339.69,-186.47 331.75,-194.03"/>
<ellipse fill="none" stroke="#666666" cx="326.35" cy="-195.93" rx="4" ry="4"/>
<text xml:space="preserve" text-anchor="middle" x="275.88" y="-222.21" font-family="Helvetica,sans-Serif" font-size="8.00">performs at</text>
</g>
<!-- artists&#45;&gt;event_artist_candidates -->
<g id="edge8" class="edge">
<title>artists&#45;&gt;event_artist_candidates</title>
<path fill="none" stroke="#666666" d="M223.24,-243.38C244.66,-243.61 272.67,-243.9 298.9,-244.18"/>
<polygon fill="#666666" stroke="#666666" points="214.47,-248.29 214.58,-238.29 216.58,-238.31 216.47,-248.31 214.47,-248.29"/>
<polyline fill="none" stroke="#666666" points="213.53,-243.28 218.53,-243.33"/>
<polygon fill="#666666" stroke="#666666" points="219.47,-248.34 219.58,-238.34 221.58,-238.36 221.47,-248.36 219.47,-248.34"/>
<polyline fill="none" stroke="#666666" points="218.53,-243.33 223.53,-243.38"/>
<polygon fill="#666666" stroke="#666666" points="307.69,-244.27 317.65,-248.88 313.03,-244.33 317.36,-244.37 317.36,-244.37 317.36,-244.37 313.03,-244.33 317.74,-239.88 307.69,-244.27"/>
<ellipse fill="none" stroke="#666666" cx="301.98" cy="-244.21" rx="4" ry="4"/>
<text xml:space="preserve" text-anchor="middle" x="275.88" y="-245.58" font-family="Helvetica,sans-Serif" font-size="8.00">matched to</text>
</g>
<!-- users -->
<g id="node9" class="node">
<title>users</title>
<path fill="#f5f5f5" stroke="black" d="M201.12,-90C201.12,-90 171.12,-90 171.12,-90 165.12,-90 159.12,-84 159.12,-78 159.12,-78 159.12,-66 159.12,-66 159.12,-60 165.12,-54 171.12,-54 171.12,-54 201.12,-54 201.12,-54 207.12,-54 213.12,-60 213.12,-66 213.12,-66 213.12,-78 213.12,-78 213.12,-84 207.12,-90 201.12,-90"/>
<text xml:space="preserve" text-anchor="middle" x="186.12" y="-68.12" font-family="Helvetica,sans-Serif" font-size="10.00">users</text>
</g>
<!-- users&#45;&gt;user_event_attendance -->
<g id="edge10" class="edge">
<title>users&#45;&gt;user_event_attendance</title>
<path fill="none" stroke="#666666" d="M223.14,-65.1C245.72,-62.15 275.19,-60.81 300.25,-68 313.85,-71.9 327.38,-79 339.2,-86.56"/>
<polygon fill="#666666" stroke="#666666" points="215.01,-71.35 213.55,-61.46 215.53,-61.17 216.99,-71.06 215.01,-71.35"/>
<polyline fill="none" stroke="#666666" points="213.29,-66.55 218.24,-65.82"/>
<polygon fill="#666666" stroke="#666666" points="219.96,-70.62 218.5,-60.73 220.48,-60.44 221.93,-70.33 219.96,-70.62"/>
<polyline fill="none" stroke="#666666" points="218.24,-65.82 223.19,-65.1"/>
<polygon fill="#666666" stroke="#666666" points="346.63,-91.74 352.27,-101.14 351.01,-94.79 354.56,-97.26 354.56,-97.26 354.56,-97.26 351.01,-94.79 357.41,-93.76 346.63,-91.74"/>
<ellipse fill="none" stroke="#666666" cx="341.94" cy="-88.47" rx="4" ry="4"/>
<text xml:space="preserve" text-anchor="middle" x="275.88" y="-69.4" font-family="Helvetica,sans-Serif" font-size="8.00">attends</text>
</g>
</g>
</svg>
