<?xml version="1.0" encoding="UTF-8" standalone="no"?>
<!DOCTYPE svg PUBLIC "-//W3C//DTD SVG 1.1//EN"
 "http://www.w3.org/Graphics/SVG/1.1/DTD/svg11.dtd">
<!-- Generated by graphviz version 15.0.0 (20260523.1842)
 -->
<!-- Title: entity_resolution Pages: 1 -->
<svg width="506pt" height="359pt"
 viewBox="0.00 0.00 506.00 359.00" xmlns="http://www.w3.org/2000/svg" xmlns:xlink="http://www.w3.org/1999/xlink">
<g id="graph0" class="graph" transform="scale(1 1) rotate(0) translate(4 355)">
<title>entity_resolution</title>
<polygon fill="white" stroke="none" points="-4,4 -4,-355 501.75,-355 501.75,4 -4,4"/>
<!-- venues -->
<g id="node1" class="node">
<title>venues</title>
<path fill="#eef2ff" stroke="#3730a3" d="M42,-113C42,-113 12,-113 12,-113 6,-113 0,-107 0,-101 0,-101 0,-89 0,-89 0,-83 6,-77 12,-77 12,-77 42,-77 42,-77 48,-77 54,-83 54,-89 54,-89 54,-101 54,-101 54,-107 48,-113 42,-113"/>
<text xml:space="preserve" text-anchor="middle" x="27" y="-91.12" font-family="Helvetica,sans-Serif" font-size="10.00">venues</text>
</g>
<!-- events -->
<g id="node2" class="node">
<title>events</title>
<path fill="#eef2ff" stroke="#3730a3" d="M231.12,-190C231.12,-190 201.12,-190 201.12,-190 195.12,-190 189.12,-184 189.12,-178 189.12,-178 189.12,-166 189.12,-166 189.12,-160 195.12,-154 201.12,-154 201.12,-154 231.12,-154 231.12,-154 237.12,-154 243.12,-160 243.12,-166 243.12,-166 243.12,-178 243.12,-178 243.12,-184 237.12,-190 231.12,-190"/>
<text xml:space="preserve" text-anchor="middle" x="216.12" y="-168.12" font-family="Helvetica,sans-Serif" font-size="10.00">events</text>
</g>
<!-- venues&#45;&gt;events -->
<g id="edge1" class="edge">
<title>venues&#45;&gt;events</title>
<path fill="none" stroke="#475569" d="M63.25,-109.5C93.79,-122.07 138.11,-140.31 170.99,-153.84"/>
<polygon fill="#475569" stroke="#475569" points="53.44,-110.87 57.24,-101.63 59.09,-102.39 55.29,-111.63 53.44,-110.87"/>
<polyline fill="none" stroke="#475569" points="54.41,-105.87 59.04,-107.77"/>
<polygon fill="#475569" stroke="#475569" points="58.06,-112.78 61.86,-103.53 63.71,-104.29 59.91,-113.54 58.06,-112.78"/>
<polyline fill="none" stroke="#475569" points="59.04,-107.77 63.66,-109.67"/>
<polygon fill="#475569" stroke="#475569" points="179.29,-157.25 186.82,-165.22 184.22,-159.28 188.23,-160.93 188.23,-160.93 188.23,-160.93 184.22,-159.28 190.25,-156.9 179.29,-157.25"/>
<ellipse fill="none" stroke="#475569" cx="174" cy="-155.08" rx="4" ry="4"/>
<text xml:space="preserve" text-anchor="middle" x="111.38" y="-139.51" font-family="Helvetica,sans-Serif" font-size="8.00">hosts</text>
</g>
<!-- venue_candidates -->
<g id="node3" class="node">
<title>venue_candidates</title>
<path fill="#eef2ff" stroke="#3730a3" d="M251.5,-36C251.5,-36 180.75,-36 180.75,-36 174.75,-36 168.75,-30 168.75,-24 168.75,-24 168.75,-12 168.75,-12 168.75,-6 174.75,0 180.75,0 180.75,0 251.5,0 251.5,0 257.5,0 263.5,-6 263.5,-12 263.5,-12 263.5,-24 263.5,-24 263.5,-30 257.5,-36 251.5,-36"/>
<text xml:space="preserve" text-anchor="middle" x="216.12" y="-14.12" font-family="Helvetica,sans-Serif" font-size="10.00">venue_candidates</text>
</g>
<!-- venues&#45;&gt;venue_candidates -->
<g id="edge2" class="edge">
<title>venues&#45;&gt;venue_candidates</title>
<path fill="none" stroke="#475569" d="M63.38,-80.44C88.53,-70.09 122.98,-55.92 152.7,-43.69"/>
<polygon fill="#475569" stroke="#475569" points="57.24,-88.37 53.44,-79.13 55.29,-78.37 59.09,-87.61 57.24,-88.37"/>
<polyline fill="none" stroke="#475569" points="54.41,-84.13 59.04,-82.23"/>
<polygon fill="#475569" stroke="#475569" points="61.86,-86.47 58.06,-77.22 59.91,-76.46 63.71,-85.71 61.86,-86.47"/>
<polyline fill="none" stroke="#475569" points="59.04,-82.23 63.66,-80.33"/>
<polygon fill="#475569" stroke="#475569" points="160.91,-40.31 171.87,-40.67 165.84,-38.28 169.85,-36.63 169.85,-36.63 169.85,-36.63 165.84,-38.28 168.44,-32.34 160.91,-40.31"/>
<ellipse fill="none" stroke="#475569" cx="155.62" cy="-42.49" rx="4" ry="4"/>
<text xml:space="preserve" text-anchor="middle" x="111.38" y="-71.49" font-family="Helvetica,sans-Serif" font-size="8.00">resolved from</text>
</g>
<!-- event_artists -->
<g id="node4" class="node">
<title>event_artists</title>
<path fill="#eef2ff" stroke="#3730a3" d="M462.12,-254C462.12,-254 413.88,-254 413.88,-254 407.88,-254 401.88,-248 401.88,-242 401.88,-242 401.88,-230 401.88,-230 401.88,-224 407.88,-218 413.88,-218 413.88,-218 462.12,-218 462.12,-218 468.12,-218 474.12,-224 474.12,-230 474.12,-230 474.12,-242 474.12,-242 474.12,-248 468.12,-254 462.12,-254"/>
<text xml:space="preserve" text-anchor="middle" x="438" y="-232.12" font-family="Helvetica,sans-Serif" font-size="10.00">event_artists</text>
</g>
<!-- events&#45;&gt;event_artists -->
<g id="edge3" class="edge">
<title>events&#45;&gt;event_artists</title>
<path fill="none" stroke="#475569" d="M252.79,-182.38C288.01,-192.63 342.32,-208.44 382.86,-220.24"/>
<polygon fill="#475569" stroke="#475569" points="242.77,-184.67 245.57,-175.07 247.49,-175.63 244.69,-185.23 242.77,-184.67"/>
<polyline fill="none" stroke="#475569" points="243.21,-179.59 248.01,-180.99"/>
<polygon fill="#475569" stroke="#475569" points="247.57,-186.07 250.37,-176.47 252.29,-177.03 249.49,-186.63 247.57,-186.07"/>
<polyline fill="none" stroke="#475569" points="248.01,-180.99 252.81,-182.39"/>
<polygon fill="#475569" stroke="#475569" points="391.59,-222.78 399.93,-229.9 396.71,-224.27 400.87,-225.48 400.87,-225.48 400.87,-225.48 396.71,-224.27 402.45,-221.26 391.59,-222.78"/>
<ellipse fill="none" stroke="#475569" cx="386.1" cy="-221.18" rx="4" ry="4"/>
<text xml:space="preserve" text-anchor="middle" x="320.88" y="-209.23" font-family="Helvetica,sans-Serif" font-size="8.00">lineup</text>
</g>
<!-- event_artist_candidates -->
<g id="node5" class="node">
<title>event_artist_candidates</title>
<path fill="#eef2ff" stroke="#3730a3" d="M485.75,-348C485.75,-348 390.25,-348 390.25,-348 384.25,-348 378.25,-342 378.25,-336 378.25,-336 378.25,-324 378.25,-324 378.25,-318 384.25,-312 390.25,-312 390.25,-312 485.75,-312 485.75,-312 491.75,-312 497.75,-318 497.75,-324 497.75,-324 497.75,-336 497.75,-336 497.75,-342 491.75,-348 485.75,-348"/>
<text xml:space="preserve" text-anchor="middle" x="438" y="-326.12" font-family="Helvetica,sans-Serif" font-size="10.00">event_artist_candidates</text>
</g>
<!-- events&#45;&gt;event_artist_candidates -->
<g id="edge4" class="edge">
<title>events&#45;&gt;event_artist_candidates</title>
<path fill="none" stroke="#475569" d="M250.64,-196.08C289.59,-224.07 353.87,-270.27 395.83,-300.42"/>
<polygon fill="#475569" stroke="#475569" points="240.67,-195.08 246.51,-186.96 248.13,-188.12 242.3,-196.24 240.67,-195.08"/>
<polyline fill="none" stroke="#475569" points="242.78,-190.43 246.84,-193.35"/>
<polygon fill="#475569" stroke="#475569" points="244.73,-198 250.57,-189.87 252.19,-191.04 246.36,-199.16 244.73,-198"/>
<polyline fill="none" stroke="#475569" points="246.84,-193.35 250.9,-196.27"/>
<polygon fill="#475569" stroke="#475569" points="403.12,-305.65 408.61,-315.14 407.45,-308.77 410.97,-311.29 410.97,-311.29 410.97,-311.29 407.45,-308.77 413.86,-307.83 403.12,-305.65"/>
<ellipse fill="none" stroke="#475569" cx="398.47" cy="-302.32" rx="4" ry="4"/>
<text xml:space="preserve" text-anchor="middle" x="320.88" y="-261.86" font-family="Helvetica,sans-Serif" font-size="8.00">raw lineup</text>
</g>
<!-- event_candidates -->
<g id="node6" class="node">
<title>event_candidates</title>
<path fill="#eef2ff" stroke="#3730a3" d="M472.25,-74C472.25,-74 403.75,-74 403.75,-74 397.75,-74 391.75,-68 391.75,-62 391.75,-62 391.75,-50 391.75,-50 391.75,-44 397.75,-38 403.75,-38 403.75,-38 472.25,-38 472.25,-38 478.25,-38 484.25,-44 484.25,-50 484.25,-50 484.25,-62 484.25,-62 484.25,-68 478.25,-74 472.25,-74"/>
<text xml:space="preserve" text-anchor="middle" x="438" y="-52.12" font-family="Helvetica,sans-Serif" font-size="10.00">event_candidates</text>
</g>
<!-- events&#45;&gt;event_candidates -->
<g id="edge5" class="edge">
<title>events&#45;&gt;event_candidates</title>
<path fill="none" stroke="#475569" d="M251.81,-153.7C287.64,-134.8 343.99,-105.07 385.13,-83.37"/>
<polygon fill="#475569" stroke="#475569" points="246.43,-162.19 241.76,-153.35 243.53,-152.42 248.2,-161.26 246.43,-162.19"/>
<polyline fill="none" stroke="#475569" points="243.21,-158.24 247.63,-155.9"/>
<polygon fill="#475569" stroke="#475569" points="250.85,-159.86 246.18,-151.02 247.95,-150.08 252.62,-158.93 250.85,-159.86"/>
<polyline fill="none" stroke="#475569" points="247.63,-155.9 252.06,-153.57"/>
<polygon fill="#475569" stroke="#475569" points="393.13,-79.14 404.08,-78.46 397.85,-76.65 401.68,-74.63 401.68,-74.63 401.68,-74.63 397.85,-76.65 399.88,-70.5 393.13,-79.14"/>
<ellipse fill="none" stroke="#475569" cx="388.08" cy="-81.81" rx="4" ry="4"/>
<text xml:space="preserve" text-anchor="middle" x="320.88" y="-129.2" font-family="Helvetica,sans-Serif" font-size="8.00">resolved from</text>
</g>
<!-- user_event_attendance -->
<g id="node7" class="node">
<title>user_event_attendance</title>
<path fill="#eef2ff" stroke="#3730a3" d="M484.62,-171C484.62,-171 391.38,-171 391.38,-171 385.38,-171 379.38,-165 379.38,-159 379.38,-159 379.38,-147 379.38,-147 379.38,-141 385.38,-135 391.38,-135 391.38,-135 484.62,-135 484.62,-135 490.62,-135 496.62,-141 496.62,-147 496.62,-147 496.62,-159 496.62,-159 496.62,-165 490.62,-171 484.62,-171"/>
<text xml:space="preserve" text-anchor="middle" x="438" y="-149.12" font-family="Helvetica,sans-Serif" font-size="10.00">user_event_attendance</text>
</g>
<!-- events&#45;&gt;user_event_attendance -->
<g id="edge6" class="edge">
<title>events&#45;&gt;user_event_attendance</title>
<path fill="none" stroke="#475569" d="M252.78,-168.92C281.69,-166.42 323.47,-162.81 359.94,-159.66"/>
<polygon fill="#475569" stroke="#475569" points="244.64,-174.64 243.78,-164.68 245.77,-164.51 246.63,-174.47 244.64,-174.64"/>
<polyline fill="none" stroke="#475569" points="243.21,-169.75 248.19,-169.32"/>
<polygon fill="#475569" stroke="#475569" points="249.62,-174.21 248.76,-164.25 250.75,-164.08 251.61,-174.04 249.62,-174.21"/>
<polyline fill="none" stroke="#475569" points="248.19,-169.32 253.17,-168.88"/>
<polygon fill="#475569" stroke="#475569" points="368.96,-158.88 379.31,-162.5 374.28,-158.42 378.59,-158.05 378.59,-158.05 378.59,-158.05 374.28,-158.42 378.54,-153.54 368.96,-158.88"/>
<ellipse fill="none" stroke="#475569" cx="363.27" cy="-159.37" rx="4" ry="4"/>
<text xml:space="preserve" text-anchor="middle" x="320.88" y="-166.16" font-family="Helvetica,sans-Serif" font-size="8.00">attended</text>
</g>
<!-- venue_candidates&#45;&gt;event_candidates -->
<g id="edge9" class="edge">
<title>venue_candidates&#45;&gt;event_candidates</title>
<path fill="none" stroke="#475569" d="M273.64,-21.71C296.06,-23.71 321.98,-26.68 345.25,-31 354.31,-32.68 363.78,-34.82 373.05,-37.13"/>
<polygon fill="#475569" stroke="#475569" points="264.52,-25.96 265.37,-15.99 267.36,-16.16 266.51,-26.12 264.52,-25.96"/>
<polyline fill="none" stroke="#475569" points="263.95,-20.89 268.93,-21.31"/>
<polygon fill="#475569" stroke="#475569" points="269.5,-26.38 270.35,-16.41 272.34,-16.58 271.49,-26.55 269.5,-26.38"/>
<polyline fill="none" stroke="#475569" points="268.93,-21.31 273.91,-21.74"/>
<polygon fill="#475569" stroke="#475569" points="381.62,-39.4 390.13,-46.3 386.77,-40.76 390.96,-41.87 390.96,-41.87 390.96,-41.87 386.77,-40.76 392.43,-37.6 381.62,-39.4"/>
<ellipse fill="none" stroke="#475569" cx="376.09" cy="-37.94" rx="4" ry="4"/>
<text xml:space="preserve" text-anchor="middle" x="320.88" y="-32.4" font-family="Helvetica,sans-Serif" font-size="8.00">venue of</text>
</g>
<!-- artists -->
<g id="node8" class="node">
<title>artists</title>
<path fill="#eef2ff" stroke="#3730a3" d="M231.12,-351C231.12,-351 201.12,-351 201.12,-351 195.12,-351 189.12,-345 189.12,-339 189.12,-339 189.12,-327 189.12,-327 189.12,-321 195.12,-315 201.12,-315 201.12,-315 231.12,-315 231.12,-315 237.12,-315 243.12,-321 243.12,-327 243.12,-327 243.12,-339 243.12,-339 243.12,-345 237.12,-351 231.12,-351"/>
<text xml:space="preserve" text-anchor="middle" x="216.12" y="-329.12" font-family="Helvetica,sans-Serif" font-size="10.00">artists</text>
</g>
<!-- artists&#45;&gt;event_artists -->
<g id="edge7" class="edge">
<title>artists&#45;&gt;event_artists</title>
<path fill="none" stroke="#475569" d="M252.27,-317.49C287.77,-301.84 343.04,-277.45 383.88,-259.43"/>
<polygon fill="#475569" stroke="#475569" points="246.14,-325.66 242.11,-316.51 243.94,-315.71 247.97,-324.86 246.14,-325.66"/>
<polyline fill="none" stroke="#475569" points="243.21,-321.49 247.79,-319.47"/>
<polygon fill="#475569" stroke="#475569" points="250.72,-323.64 246.68,-314.5 248.51,-313.69 252.55,-322.84 250.72,-323.64"/>
<polyline fill="none" stroke="#475569" points="247.79,-319.47 252.36,-317.46"/>
<polygon fill="#475569" stroke="#475569" points="392.05,-255.83 403.02,-255.91 396.93,-253.68 400.9,-251.93 400.9,-251.93 400.9,-251.93 396.93,-253.68 399.39,-247.67 392.05,-255.83"/>
<ellipse fill="none" stroke="#475569" cx="386.82" cy="-258.14" rx="4" ry="4"/>
<text xml:space="preserve" text-anchor="middle" x="320.88" y="-297.44" font-family="Helvetica,sans-Serif" font-size="8.00">performs at</text>
</g>
<!-- artists&#45;&gt;event_artist_candidates -->
<g id="edge8" class="edge">
<title>artists&#45;&gt;event_artist_candidates</title>
<path fill="none" stroke="#475569" d="M253.11,-332.51C281.63,-332.12 322.53,-331.56 358.52,-331.07"/>
<polygon fill="#475569" stroke="#475569" points="244.28,-337.63 244.14,-327.63 246.14,-327.6 246.28,-337.6 244.28,-337.63"/>
<polyline fill="none" stroke="#475569" points="243.21,-332.64 248.21,-332.58"/>
<polygon fill="#475569" stroke="#475569" points="249.28,-337.56 249.14,-327.56 251.14,-327.54 251.28,-337.53 249.28,-337.56"/>
<polyline fill="none" stroke="#475569" points="248.21,-332.58 253.21,-332.51"/>
<polygon fill="#475569" stroke="#475569" points="367.57,-330.95 377.63,-335.31 372.9,-330.87 377.23,-330.82 377.23,-330.82 377.23,-330.82 372.9,-330.87 377.51,-326.31 367.57,-330.95"/>
<ellipse fill="none" stroke="#475569" cx="361.85" cy="-331.03" rx="4" ry="4"/>
<text xml:space="preserve" text-anchor="middle" x="320.88" y="-333.26" font-family="Helvetica,sans-Serif" font-size="8.00">matched to</text>
</g>
<!-- users -->
<g id="node9" class="node">
<title>users</title>
<path fill="#eef2ff" stroke="#3730a3" d="M231.12,-104C231.12,-104 201.12,-104 201.12,-104 195.12,-104 189.12,-98 189.12,-92 189.12,-92 189.12,-80 189.12,-80 189.12,-74 195.12,-68 201.12,-68 201.12,-68 231.12,-68 231.12,-68 237.12,-68 243.12,-74 243.12,-80 243.12,-80 243.12,-92 243.12,-92 243.12,-98 237.12,-104 231.12,-104"/>
<text xml:space="preserve" text-anchor="middle" x="216.12" y="-82.12" font-family="Helvetica,sans-Serif" font-size="10.00">users</text>
</g>
<!-- users&#45;&gt;user_event_attendance -->
<g id="edge10" class="edge">
<title>users&#45;&gt;user_event_attendance</title>
<path fill="none" stroke="#475569" d="M253.01,-77.76C279.28,-73.34 315.4,-70.69 345.25,-81 368.57,-89.06 390.48,-105.76 407.04,-121.05"/>
<polygon fill="#475569" stroke="#475569" points="245.35,-84.25 243.54,-74.41 245.51,-74.05 247.32,-83.89 245.35,-84.25"/>
<polyline fill="none" stroke="#475569" points="243.46,-79.51 248.38,-78.61"/>
<polygon fill="#475569" stroke="#475569" points="250.27,-83.34 248.46,-73.51 250.43,-73.15 252.23,-82.98 250.27,-83.34"/>
<polyline fill="none" stroke="#475569" points="248.38,-78.61 253.3,-77.7"/>
<polygon fill="#475569" stroke="#475569" points="413.52,-127.43 417.49,-137.65 417.32,-131.17 420.41,-134.21 420.41,-134.21 420.41,-134.21 417.32,-131.17 423.81,-131.24 413.52,-127.43"/>
<ellipse fill="none" stroke="#475569" cx="409.45" cy="-123.42" rx="4" ry="4"/>
<text xml:space="preserve" text-anchor="middle" x="320.88" y="-82.4" font-family="Helvetica,sans-Serif" font-size="8.00">attends</text>
</g>
</g>
</svg>
