<?xml version="1.0" encoding="UTF-8" standalone="no"?>
<!DOCTYPE svg PUBLIC "-//W3C//DTD SVG 1.1//EN"
 "http://www.w3.org/Graphics/SVG/1.1/DTD/svg11.dtd">
<!-- Generated by graphviz version 15.0.0 (20260523.1842)
 -->
<!-- Title: generation_export Pages: 1 -->
<svg width="253pt" height="728pt"
 viewBox="0.00 0.00 253.00 728.00" xmlns="http://www.w3.org/2000/svg" xmlns:xlink="http://www.w3.org/1999/xlink">
<g id="graph0" class="graph" transform="scale(1 1) rotate(0) translate(4 724)">
<title>generation_export</title>
<polygon fill="white" stroke="none" points="-4,4 -4,-724 248.75,-724 248.75,4 -4,4"/>
<!-- prof -->
<g id="node1" class="node">
<title>prof</title>
<path fill="#eef2ff" stroke="#3730a3" d="M169,-720C169,-720 75.75,-720 75.75,-720 69.75,-720 63.75,-714 63.75,-708 63.75,-708 63.75,-696 63.75,-696 63.75,-690 69.75,-684 75.75,-684 75.75,-684 169,-684 169,-684 175,-684 181,-690 181,-696 181,-696 181,-708 181,-708 181,-714 175,-720 169,-720"/>
<text xml:space="preserve" text-anchor="middle" x="122.38" y="-703.75" font-family="Helvetica,sans-Serif" font-size="10.00">GeneratorProfile</text>
<text xml:space="preserve" text-anchor="middle" x="122.38" y="-692.5" font-family="Helvetica,sans-Serif" font-size="10.00">type + params + inputs</text>
</g>
<!-- gen -->
<g id="node2" class="node">
<title>gen</title>
<path fill="#eef2ff" stroke="#3730a3" d="M192.62,-644C192.62,-644 52.12,-644 52.12,-644 46.12,-644 40.12,-638 40.12,-632 40.12,-632 40.12,-620 40.12,-620 40.12,-614 46.12,-608 52.12,-608 52.12,-608 192.62,-608 192.62,-608 198.62,-608 204.62,-614 204.62,-620 204.62,-620 204.62,-632 204.62,-632 204.62,-638 198.62,-644 192.62,-644"/>
<text xml:space="preserve" text-anchor="middle" x="122.38" y="-622.12" font-family="Helvetica,sans-Serif" font-size="10.00">Create PLAYLIST_GENERATION</text>
</g>
<!-- prof&#45;&gt;gen -->
<g id="edge1" class="edge">
<title>prof&#45;&gt;gen</title>
<path fill="none" stroke="#475569" d="M122.38,-683.84C122.38,-675.49 122.38,-665.23 122.38,-655.74"/>
<polygon fill="#475569" stroke="#475569" points="125.88,-655.84 122.38,-645.84 118.88,-655.84 125.88,-655.84"/>
</g>
<!-- disc -->
<g id="node3" class="node">
<title>disc</title>
<path fill="#eef2ff" stroke="#3730a3" d="M232.75,-568C232.75,-568 12,-568 12,-568 6,-568 0,-562 0,-556 0,-556 0,-544 0,-544 0,-538 6,-532 12,-532 12,-532 232.75,-532 232.75,-532 238.75,-532 244.75,-538 244.75,-544 244.75,-544 244.75,-556 244.75,-556 244.75,-562 238.75,-568 232.75,-568"/>
<text xml:space="preserve" text-anchor="middle" x="122.38" y="-552.5" font-family="Helvetica,sans-Serif" font-size="10.00">TRACK_DISCOVERY (per artist &lt; 5 library tracks)</text>
<text xml:space="preserve" text-anchor="middle" x="122.38" y="-541.25" font-family="Helvetica,sans-Serif" font-size="10.00">connector w/ TRACK_DISCOVERY → MusicBrainz</text>
</g>
<!-- gen&#45;&gt;disc -->
<g id="edge2" class="edge">
<title>gen&#45;&gt;disc</title>
<path fill="none" stroke="#475569" d="M122.38,-607.84C122.38,-599.49 122.38,-589.23 122.38,-579.74"/>
<polygon fill="#475569" stroke="#475569" points="125.88,-579.84 122.38,-569.84 118.88,-579.84 125.88,-579.84"/>
</g>
<!-- score -->
<g id="node4" class="node">
<title>score</title>
<path fill="#eef2ff" stroke="#3730a3" d="M196.75,-492C196.75,-492 48,-492 48,-492 42,-492 36,-486 36,-480 36,-480 36,-468 36,-468 36,-462 42,-456 48,-456 48,-456 196.75,-456 196.75,-456 202.75,-456 208.75,-462 208.75,-468 208.75,-468 208.75,-480 208.75,-480 208.75,-486 202.75,-492 196.75,-492"/>
<text xml:space="preserve" text-anchor="middle" x="122.38" y="-475.75" font-family="Helvetica,sans-Serif" font-size="10.00">TRACK_SCORING</text>
<text xml:space="preserve" text-anchor="middle" x="122.38" y="-464.5" font-family="Helvetica,sans-Serif" font-size="10.00">load library + discovered candidates</text>
</g>
<!-- disc&#45;&gt;score -->
<g id="edge3" class="edge">
<title>disc&#45;&gt;score</title>
<path fill="none" stroke="#475569" d="M122.38,-531.84C122.38,-523.49 122.38,-513.23 122.38,-503.74"/>
<polygon fill="#475569" stroke="#475569" points="125.88,-503.84 122.38,-493.84 118.88,-503.84 125.88,-503.84"/>
</g>
<!-- comp -->
<g id="node5" class="node">
<title>comp</title>
<path fill="#eef2ff" stroke="#3730a3" d="M179.12,-416C179.12,-416 65.62,-416 65.62,-416 59.63,-416 53.62,-410 53.62,-404 53.62,-404 53.62,-392 53.62,-392 53.62,-386 59.62,-380 65.62,-380 65.62,-380 179.12,-380 179.12,-380 185.12,-380 191.12,-386 191.12,-392 191.12,-392 191.12,-404 191.12,-404 191.12,-410 185.12,-416 179.12,-416"/>
<text xml:space="preserve" text-anchor="middle" x="122.38" y="-399.75" font-family="Helvetica,sans-Serif" font-size="10.00">composite_score() per track</text>
<text xml:space="preserve" text-anchor="middle" x="122.38" y="-388.5" font-family="Helvetica,sans-Serif" font-size="10.00">+ freshness filter</text>
</g>
<!-- score&#45;&gt;comp -->
<g id="edge4" class="edge">
<title>score&#45;&gt;comp</title>
<path fill="none" stroke="#475569" d="M122.38,-455.84C122.38,-447.49 122.38,-437.23 122.38,-427.74"/>
<polygon fill="#475569" stroke="#475569" points="125.88,-427.84 122.38,-417.84 118.88,-427.84 125.88,-427.84"/>
</g>
<!-- pl -->
<g id="node6" class="node">
<title>pl</title>
<path fill="#eef2ff" stroke="#3730a3" d="M169,-340C169,-340 75.75,-340 75.75,-340 69.75,-340 63.75,-334 63.75,-328 63.75,-328 63.75,-316 63.75,-316 63.75,-310 69.75,-304 75.75,-304 75.75,-304 169,-304 169,-304 175,-304 181,-310 181,-316 181,-316 181,-328 181,-328 181,-334 175,-340 169,-340"/>
<text xml:space="preserve" text-anchor="middle" x="122.38" y="-323.75" font-family="Helvetica,sans-Serif" font-size="10.00">Playlist + PlaylistTrack</text>
<text xml:space="preserve" text-anchor="middle" x="122.38" y="-312.5" font-family="Helvetica,sans-Serif" font-size="10.00">+ GenerationRecord</text>
</g>
<!-- comp&#45;&gt;pl -->
<g id="edge5" class="edge">
<title>comp&#45;&gt;pl</title>
<path fill="none" stroke="#475569" d="M122.38,-379.84C122.38,-371.49 122.38,-361.23 122.38,-351.74"/>
<polygon fill="#475569" stroke="#475569" points="125.88,-351.84 122.38,-341.84 118.88,-351.84 125.88,-351.84"/>
</g>
<!-- exp -->
<g id="node7" class="node">
<title>exp</title>
<path fill="#eef2ff" stroke="#3730a3" d="M217.38,-264C217.38,-264 27.38,-264 27.38,-264 21.38,-264 15.38,-258 15.38,-252 15.38,-252 15.38,-240 15.38,-240 15.38,-234 21.38,-228 27.38,-228 27.38,-228 217.38,-228 217.38,-228 223.38,-228 229.38,-234 229.38,-240 229.38,-240 229.38,-252 229.38,-252 229.38,-258 223.38,-264 217.38,-264"/>
<text xml:space="preserve" text-anchor="middle" x="122.38" y="-242.12" font-family="Helvetica,sans-Serif" font-size="10.00">PLAYLIST_EXPORT (per Spotify connection)</text>
</g>
<!-- pl&#45;&gt;exp -->
<g id="edge6" class="edge">
<title>pl&#45;&gt;exp</title>
<path fill="none" stroke="#475569" d="M122.38,-303.84C122.38,-295.49 122.38,-285.23 122.38,-275.74"/>
<polygon fill="#475569" stroke="#475569" points="125.88,-275.84 122.38,-265.84 118.88,-275.84 125.88,-275.84"/>
</g>
<!-- m1 -->
<g id="node8" class="node">
<title>m1</title>
<path fill="#eef2ff" stroke="#3730a3" d="M177.25,-188C177.25,-188 67.5,-188 67.5,-188 61.5,-188 55.5,-182 55.5,-176 55.5,-176 55.5,-164 55.5,-164 55.5,-158 61.5,-152 67.5,-152 67.5,-152 177.25,-152 177.25,-152 183.25,-152 189.25,-158 189.25,-164 189.25,-164 189.25,-176 189.25,-176 189.25,-182 183.25,-188 177.25,-188"/>
<text xml:space="preserve" text-anchor="middle" x="122.38" y="-171.75" font-family="Helvetica,sans-Serif" font-size="10.00">pass 1: MusicBrainz MBID</text>
<text xml:space="preserve" text-anchor="middle" x="122.38" y="-160.5" font-family="Helvetica,sans-Serif" font-size="10.00">via MB URL relations</text>
</g>
<!-- exp&#45;&gt;m1 -->
<g id="edge7" class="edge">
<title>exp&#45;&gt;m1</title>
<path fill="none" stroke="#475569" d="M122.38,-227.84C122.38,-219.49 122.38,-209.23 122.38,-199.74"/>
<polygon fill="#475569" stroke="#475569" points="125.88,-199.84 122.38,-189.84 118.88,-199.84 125.88,-199.84"/>
</g>
<!-- m2 -->
<g id="node9" class="node">
<title>m2</title>
<path fill="#eef2ff" stroke="#3730a3" d="M177.25,-112C177.25,-112 67.5,-112 67.5,-112 61.5,-112 55.5,-106 55.5,-100 55.5,-100 55.5,-88 55.5,-88 55.5,-82 61.5,-76 67.5,-76 67.5,-76 177.25,-76 177.25,-76 183.25,-76 189.25,-82 189.25,-88 189.25,-88 189.25,-100 189.25,-100 189.25,-106 183.25,-112 177.25,-112"/>
<text xml:space="preserve" text-anchor="middle" x="122.38" y="-95.75" font-family="Helvetica,sans-Serif" font-size="10.00">pass 2: Spotify text search</text>
<text xml:space="preserve" text-anchor="middle" x="122.38" y="-84.5" font-family="Helvetica,sans-Serif" font-size="10.00">(unresolved tracks)</text>
</g>
<!-- m1&#45;&gt;m2 -->
<g id="edge8" class="edge">
<title>m1&#45;&gt;m2</title>
<path fill="none" stroke="#475569" d="M122.38,-151.84C122.38,-143.49 122.38,-133.23 122.38,-123.74"/>
<polygon fill="#475569" stroke="#475569" points="125.88,-123.84 122.38,-113.84 118.88,-123.84 125.88,-123.84"/>
</g>
<!-- spot -->
<g id="node10" class="node">
<title>spot</title>
<path fill="#dcfce7" stroke="#15803d" d="M151.38,-36C151.38,-36 93.38,-36 93.38,-36 87.38,-36 81.38,-30 81.38,-24 81.38,-24 81.38,-12 81.38,-12 81.38,-6 87.38,0 93.38,0 93.38,0 151.38,0 151.38,0 157.38,0 163.38,-6 163.38,-12 163.38,-12 163.38,-24 163.38,-24 163.38,-30 157.38,-36 151.38,-36"/>
<text xml:space="preserve" text-anchor="middle" x="122.38" y="-19.75" font-family="Helvetica,sans-Serif" font-size="10.00">Spotify playlist</text>
<text xml:space="preserve" text-anchor="middle" x="122.38" y="-8.5" font-family="Helvetica,sans-Serif" font-size="10.00">+ service_links</text>
</g>
<!-- m2&#45;&gt;spot -->
<g id="edge9" class="edge">
<title>m2&#45;&gt;spot</title>
<path fill="none" stroke="#475569" d="M122.38,-75.84C122.38,-67.49 122.38,-57.23 122.38,-47.74"/>
<polygon fill="#475569" stroke="#475569" points="125.88,-47.84 122.38,-37.84 118.88,-47.84 125.88,-47.84"/>
</g>
</g>
</svg>
