<?xml version="1.0" encoding="UTF-8" standalone="no"?>
<!DOCTYPE svg PUBLIC "-//W3C//DTD SVG 1.1//EN"
 "http://www.w3.org/Graphics/SVG/1.1/DTD/svg11.dtd">
<!-- Generated by graphviz version 15.0.0 (20260523.1842)
 -->
<!-- Title: generation_export Pages: 1 -->
<svg width="253pt" height="698pt"
 viewBox="0.00 0.00 253.00 698.00" xmlns="http://www.w3.org/2000/svg" xmlns:xlink="http://www.w3.org/1999/xlink">
<g id="graph0" class="graph" transform="scale(1 1) rotate(0) translate(4 693.94)">
<title>generation_export</title>
<polygon fill="white" stroke="none" points="-4,4 -4,-693.94 248.75,-693.94 248.75,4 -4,4"/>
<!-- prof -->
<g id="node1" class="node">
<title>prof</title>
<path fill="#f5f5f5" stroke="black" d="M169,-689.94C169,-689.94 75.75,-689.94 75.75,-689.94 69.75,-689.94 63.75,-683.94 63.75,-677.94 63.75,-677.94 63.75,-665.94 63.75,-665.94 63.75,-659.94 69.75,-653.94 75.75,-653.94 75.75,-653.94 169,-653.94 169,-653.94 175,-653.94 181,-659.94 181,-665.94 181,-665.94 181,-677.94 181,-677.94 181,-683.94 175,-689.94 169,-689.94"/>
<text xml:space="preserve" text-anchor="middle" x="122.38" y="-673.69" font-family="Helvetica,sans-Serif" font-size="10.00">GeneratorProfile</text>
<text xml:space="preserve" text-anchor="middle" x="122.38" y="-662.44" font-family="Helvetica,sans-Serif" font-size="10.00">type + params + inputs</text>
</g>
<!-- gen -->
<g id="node2" class="node">
<title>gen</title>
<path fill="#f5f5f5" stroke="black" d="M192.62,-617.94C192.62,-617.94 52.12,-617.94 52.12,-617.94 46.12,-617.94 40.12,-611.94 40.12,-605.94 40.12,-605.94 40.12,-593.94 40.12,-593.94 40.12,-587.94 46.12,-581.94 52.12,-581.94 52.12,-581.94 192.62,-581.94 192.62,-581.94 198.62,-581.94 204.62,-587.94 204.62,-593.94 204.62,-593.94 204.62,-605.94 204.62,-605.94 204.62,-611.94 198.62,-617.94 192.62,-617.94"/>
<text xml:space="preserve" text-anchor="middle" x="122.38" y="-596.06" font-family="Helvetica,sans-Serif" font-size="10.00">Create PLAYLIST_GENERATION</text>
</g>
<!-- prof&#45;&gt;gen -->
<g id="edge1" class="edge">
<title>prof&#45;&gt;gen</title>
<path fill="none" stroke="black" d="M122.38,-653.63C122.38,-646.34 122.38,-637.66 122.38,-629.47"/>
<polygon fill="black" stroke="black" points="125.88,-629.56 122.38,-619.56 118.88,-629.56 125.88,-629.56"/>
</g>
<!-- disc -->
<g id="node3" class="node">
<title>disc</title>
<path fill="#f5f5f5" stroke="black" d="M232.75,-545.94C232.75,-545.94 12,-545.94 12,-545.94 6,-545.94 0,-539.94 0,-533.94 0,-533.94 0,-521.94 0,-521.94 0,-515.94 6,-509.94 12,-509.94 12,-509.94 232.75,-509.94 232.75,-509.94 238.75,-509.94 244.75,-515.94 244.75,-521.94 244.75,-521.94 244.75,-533.94 244.75,-533.94 244.75,-539.94 238.75,-545.94 232.75,-545.94"/>
<text xml:space="preserve" text-anchor="middle" x="122.38" y="-530.44" font-family="Helvetica,sans-Serif" font-size="10.00">TRACK_DISCOVERY (per artist &lt; 5 library tracks)</text>
<text xml:space="preserve" text-anchor="middle" x="122.38" y="-519.19" font-family="Helvetica,sans-Serif" font-size="10.00">connector w/ TRACK_DISCOVERY → MusicBrainz</text>
</g>
<!-- gen&#45;&gt;disc -->
<g id="edge2" class="edge">
<title>gen&#45;&gt;disc</title>
<path fill="none" stroke="black" d="M122.38,-581.63C122.38,-574.34 122.38,-565.66 122.38,-557.47"/>
<polygon fill="black" stroke="black" points="125.88,-557.56 122.38,-547.56 118.88,-557.56 125.88,-557.56"/>
</g>
<!-- score -->
<g id="node4" class="node">
<title>score</title>
<path fill="#f5f5f5" stroke="black" d="M196.75,-473.94C196.75,-473.94 48,-473.94 48,-473.94 42,-473.94 36,-467.94 36,-461.94 36,-461.94 36,-449.94 36,-449.94 36,-443.94 42,-437.94 48,-437.94 48,-437.94 196.75,-437.94 196.75,-437.94 202.75,-437.94 208.75,-443.94 208.75,-449.94 208.75,-449.94 208.75,-461.94 208.75,-461.94 208.75,-467.94 202.75,-473.94 196.75,-473.94"/>
<text xml:space="preserve" text-anchor="middle" x="122.38" y="-457.69" font-family="Helvetica,sans-Serif" font-size="10.00">TRACK_SCORING</text>
<text xml:space="preserve" text-anchor="middle" x="122.38" y="-446.44" font-family="Helvetica,sans-Serif" font-size="10.00">load library + discovered candidates</text>
</g>
<!-- disc&#45;&gt;score -->
<g id="edge3" class="edge">
<title>disc&#45;&gt;score</title>
<path fill="none" stroke="black" d="M122.38,-509.63C122.38,-502.34 122.38,-493.66 122.38,-485.47"/>
<polygon fill="black" stroke="black" points="125.88,-485.56 122.38,-475.56 118.88,-485.56 125.88,-485.56"/>
</g>
<!-- comp -->
<g id="node5" class="node">
<title>comp</title>
<path fill="#f5f5f5" stroke="black" d="M179.12,-401.94C179.12,-401.94 65.62,-401.94 65.62,-401.94 59.63,-401.94 53.62,-395.94 53.62,-389.94 53.62,-389.94 53.62,-377.94 53.62,-377.94 53.62,-371.94 59.62,-365.94 65.62,-365.94 65.62,-365.94 179.12,-365.94 179.12,-365.94 185.12,-365.94 191.12,-371.94 191.12,-377.94 191.12,-377.94 191.12,-389.94 191.12,-389.94 191.12,-395.94 185.12,-401.94 179.12,-401.94"/>
<text xml:space="preserve" text-anchor="middle" x="122.38" y="-385.69" font-family="Helvetica,sans-Serif" font-size="10.00">composite_score() per track</text>
<text xml:space="preserve" text-anchor="middle" x="122.38" y="-374.44" font-family="Helvetica,sans-Serif" font-size="10.00">+ freshness filter</text>
</g>
<!-- score&#45;&gt;comp -->
<g id="edge4" class="edge">
<title>score&#45;&gt;comp</title>
<path fill="none" stroke="black" d="M122.38,-437.63C122.38,-430.34 122.38,-421.66 122.38,-413.47"/>
<polygon fill="black" stroke="black" points="125.88,-413.56 122.38,-403.56 118.88,-413.56 125.88,-413.56"/>
</g>
<!-- pl -->
<g id="node6" class="node">
<title>pl</title>
<path fill="#f5f5f5" stroke="black" d="M169,-329.94C169,-329.94 75.75,-329.94 75.75,-329.94 69.75,-329.94 63.75,-323.94 63.75,-317.94 63.75,-317.94 63.75,-305.94 63.75,-305.94 63.75,-299.94 69.75,-293.94 75.75,-293.94 75.75,-293.94 169,-293.94 169,-293.94 175,-293.94 181,-299.94 181,-305.94 181,-305.94 181,-317.94 181,-317.94 181,-323.94 175,-329.94 169,-329.94"/>
<text xml:space="preserve" text-anchor="middle" x="122.38" y="-313.69" font-family="Helvetica,sans-Serif" font-size="10.00">Playlist + PlaylistTrack</text>
<text xml:space="preserve" text-anchor="middle" x="122.38" y="-302.44" font-family="Helvetica,sans-Serif" font-size="10.00">+ GenerationRecord</text>
</g>
<!-- comp&#45;&gt;pl -->
<g id="edge5" class="edge">
<title>comp&#45;&gt;pl</title>
<path fill="none" stroke="black" d="M122.38,-365.63C122.38,-358.34 122.38,-349.66 122.38,-341.47"/>
<polygon fill="black" stroke="black" points="125.88,-341.56 122.38,-331.56 118.88,-341.56 125.88,-341.56"/>
</g>
<!-- exp -->
<g id="node7" class="node">
<title>exp</title>
<path fill="#f5f5f5" stroke="black" d="M217.38,-257.94C217.38,-257.94 27.38,-257.94 27.38,-257.94 21.38,-257.94 15.38,-251.94 15.38,-245.94 15.38,-245.94 15.38,-233.94 15.38,-233.94 15.38,-227.94 21.38,-221.94 27.38,-221.94 27.38,-221.94 217.38,-221.94 217.38,-221.94 223.38,-221.94 229.38,-227.94 229.38,-233.94 229.38,-233.94 229.38,-245.94 229.38,-245.94 229.38,-251.94 223.38,-257.94 217.38,-257.94"/>
<text xml:space="preserve" text-anchor="middle" x="122.38" y="-236.06" font-family="Helvetica,sans-Serif" font-size="10.00">PLAYLIST_EXPORT (per Spotify connection)</text>
</g>
<!-- pl&#45;&gt;exp -->
<g id="edge6" class="edge">
<title>pl&#45;&gt;exp</title>
<path fill="none" stroke="black" d="M122.38,-293.63C122.38,-286.34 122.38,-277.66 122.38,-269.47"/>
<polygon fill="black" stroke="black" points="125.88,-269.56 122.38,-259.56 118.88,-269.56 125.88,-269.56"/>
</g>
<!-- m1 -->
<g id="node8" class="node">
<title>m1</title>
<path fill="#f5f5f5" stroke="black" d="M177.25,-185.94C177.25,-185.94 67.5,-185.94 67.5,-185.94 61.5,-185.94 55.5,-179.94 55.5,-173.94 55.5,-173.94 55.5,-161.94 55.5,-161.94 55.5,-155.94 61.5,-149.94 67.5,-149.94 67.5,-149.94 177.25,-149.94 177.25,-149.94 183.25,-149.94 189.25,-155.94 189.25,-161.94 189.25,-161.94 189.25,-173.94 189.25,-173.94 189.25,-179.94 183.25,-185.94 177.25,-185.94"/>
<text xml:space="preserve" text-anchor="middle" x="122.38" y="-169.69" font-family="Helvetica,sans-Serif" font-size="10.00">pass 1: MusicBrainz MBID</text>
<text xml:space="preserve" text-anchor="middle" x="122.38" y="-158.44" font-family="Helvetica,sans-Serif" font-size="10.00">via MB URL relations</text>
</g>
<!-- exp&#45;&gt;m1 -->
<g id="edge7" class="edge">
<title>exp&#45;&gt;m1</title>
<path fill="none" stroke="black" d="M122.38,-221.63C122.38,-214.34 122.38,-205.66 122.38,-197.47"/>
<polygon fill="black" stroke="black" points="125.88,-197.56 122.38,-187.56 118.88,-197.56 125.88,-197.56"/>
</g>
<!-- m2 -->
<g id="node9" class="node">
<title>m2</title>
<path fill="#f5f5f5" stroke="black" d="M177.25,-113.94C177.25,-113.94 67.5,-113.94 67.5,-113.94 61.5,-113.94 55.5,-107.94 55.5,-101.94 55.5,-101.94 55.5,-89.94 55.5,-89.94 55.5,-83.94 61.5,-77.94 67.5,-77.94 67.5,-77.94 177.25,-77.94 177.25,-77.94 183.25,-77.94 189.25,-83.94 189.25,-89.94 189.25,-89.94 189.25,-101.94 189.25,-101.94 189.25,-107.94 183.25,-113.94 177.25,-113.94"/>
<text xml:space="preserve" text-anchor="middle" x="122.38" y="-97.69" font-family="Helvetica,sans-Serif" font-size="10.00">pass 2: Spotify text search</text>
<text xml:space="preserve" text-anchor="middle" x="122.38" y="-86.44" font-family="Helvetica,sans-Serif" font-size="10.00">(unresolved tracks)</text>
</g>
<!-- m1&#45;&gt;m2 -->
<g id="edge8" class="edge">
<title>m1&#45;&gt;m2</title>
<path fill="none" stroke="black" d="M122.38,-149.63C122.38,-142.34 122.38,-133.66 122.38,-125.47"/>
<polygon fill="black" stroke="black" points="125.88,-125.56 122.38,-115.56 118.88,-125.56 125.88,-125.56"/>
</g>
<!-- spot -->
<g id="node10" class="node">
<title>spot</title>
<path fill="#e8f0fe" stroke="black" d="M163.38,-38.12C163.38,-40.23 145,-41.94 122.38,-41.94 99.75,-41.94 81.38,-40.23 81.38,-38.12 81.38,-38.12 81.38,-3.81 81.38,-3.81 81.38,-1.71 99.75,0 122.38,0 145,0 163.38,-1.71 163.38,-3.81 163.38,-3.81 163.38,-38.12 163.38,-38.12"/>
<path fill="none" stroke="black" d="M163.38,-38.12C163.38,-36.02 145,-34.31 122.38,-34.31 99.75,-34.31 81.38,-36.02 81.38,-38.12"/>
<text xml:space="preserve" text-anchor="middle" x="122.38" y="-22.72" font-family="Helvetica,sans-Serif" font-size="10.00">Spotify playlist</text>
<text xml:space="preserve" text-anchor="middle" x="122.38" y="-11.47" font-family="Helvetica,sans-Serif" font-size="10.00">+ service_links</text>
</g>
<!-- m2&#45;&gt;spot -->
<g id="edge9" class="edge">
<title>m2&#45;&gt;spot</title>
<path fill="none" stroke="black" d="M122.38,-77.64C122.38,-70.43 122.38,-61.81 122.38,-53.53"/>
<polygon fill="black" stroke="black" points="125.88,-53.76 122.38,-43.76 118.88,-53.76 125.88,-53.76"/>
</g>
</g>
</svg>
