<?xml version="1.0" encoding="UTF-8" standalone="no"?>
<!DOCTYPE svg PUBLIC "-//W3C//DTD SVG 1.1//EN"
 "http://www.w3.org/Graphics/SVG/1.1/DTD/svg11.dtd">
<!-- Generated by graphviz version 15.0.0 (20260523.1842)
 -->
<!-- Title: sync_pipeline Pages: 1 -->
<svg width="316pt" height="771pt"
 viewBox="0.00 0.00 316.00 771.00" xmlns="http://www.w3.org/2000/svg" xmlns:xlink="http://www.w3.org/1999/xlink">
<g id="graph0" class="graph" transform="scale(1 1) rotate(0) translate(4 766.75)">
<title>sync_pipeline</title>
<polygon fill="white" stroke="none" points="-4,4 -4,-766.75 311.5,-766.75 311.5,4 -4,4"/>
<!-- trig -->
<g id="node1" class="node">
<title>trig</title>
<path fill="#eef2ff" stroke="#3730a3" d="M214.88,-762.75C214.88,-762.75 102.88,-762.75 102.88,-762.75 96.88,-762.75 90.88,-756.75 90.88,-750.75 90.88,-750.75 90.88,-738.75 90.88,-738.75 90.88,-732.75 96.88,-726.75 102.88,-726.75 102.88,-726.75 214.88,-726.75 214.88,-726.75 220.88,-726.75 226.88,-732.75 226.88,-738.75 226.88,-738.75 226.88,-750.75 226.88,-750.75 226.88,-756.75 220.88,-762.75 214.88,-762.75"/>
<text xml:space="preserve" text-anchor="middle" x="158.88" y="-740.88" font-family="Helvetica,sans-Serif" font-size="10.00">API / CLI / orphan recovery</text>
</g>
<!-- sj -->
<g id="node2" class="node">
<title>sj</title>
<path fill="#eef2ff" stroke="#3730a3" d="M225.38,-685.75C225.38,-685.75 92.38,-685.75 92.38,-685.75 86.38,-685.75 80.38,-679.75 80.38,-673.75 80.38,-673.75 80.38,-661.75 80.38,-661.75 80.38,-655.75 86.38,-649.75 92.38,-649.75 92.38,-649.75 225.38,-649.75 225.38,-649.75 231.38,-649.75 237.38,-655.75 237.38,-661.75 237.38,-661.75 237.38,-673.75 237.38,-673.75 237.38,-679.75 231.38,-685.75 225.38,-685.75"/>
<text xml:space="preserve" text-anchor="middle" x="158.88" y="-663.88" font-family="Helvetica,sans-Serif" font-size="10.00">Create SYNC_JOB (PENDING)</text>
</g>
<!-- trig&#45;&gt;sj -->
<g id="edge1" class="edge">
<title>trig&#45;&gt;sj</title>
<path fill="none" stroke="#475569" d="M158.88,-726.35C158.88,-717.74 158.88,-707.12 158.88,-697.35"/>
<polygon fill="#475569" stroke="#475569" points="162.38,-697.56 158.88,-687.56 155.38,-697.56 162.38,-697.56"/>
</g>
<!-- enq -->
<g id="node3" class="node">
<title>enq</title>
<path fill="#eef2ff" stroke="#3730a3" d="M196.88,-608.75C196.88,-608.75 120.88,-608.75 120.88,-608.75 114.88,-608.75 108.88,-602.75 108.88,-596.75 108.88,-596.75 108.88,-584.75 108.88,-584.75 108.88,-578.75 114.88,-572.75 120.88,-572.75 120.88,-572.75 196.88,-572.75 196.88,-572.75 202.88,-572.75 208.88,-578.75 208.88,-584.75 208.88,-584.75 208.88,-596.75 208.88,-596.75 208.88,-602.75 202.88,-608.75 196.88,-608.75"/>
<text xml:space="preserve" text-anchor="middle" x="158.88" y="-586.88" font-family="Helvetica,sans-Serif" font-size="10.00">enqueue plan_sync</text>
</g>
<!-- sj&#45;&gt;enq -->
<g id="edge2" class="edge">
<title>sj&#45;&gt;enq</title>
<path fill="none" stroke="#475569" d="M158.88,-649.35C158.88,-640.74 158.88,-630.12 158.88,-620.35"/>
<polygon fill="#475569" stroke="#475569" points="162.38,-620.56 158.88,-610.56 155.38,-620.56 162.38,-620.56"/>
</g>
<!-- redis -->
<g id="node4" class="node">
<title>redis</title>
<path fill="#fee2e2" stroke="#b91c1c" d="M190.88,-528.48C190.88,-530.28 176.53,-531.75 158.88,-531.75 141.22,-531.75 126.88,-530.28 126.88,-528.48 126.88,-528.48 126.88,-499.02 126.88,-499.02 126.88,-497.22 141.22,-495.75 158.88,-495.75 176.53,-495.75 190.88,-497.22 190.88,-499.02 190.88,-499.02 190.88,-528.48 190.88,-528.48"/>
<path fill="none" stroke="#b91c1c" d="M190.88,-528.48C190.88,-526.67 176.53,-525.2 158.88,-525.2 141.22,-525.2 126.88,-526.67 126.88,-528.48"/>
<text xml:space="preserve" text-anchor="middle" x="158.88" y="-509.88" font-family="Helvetica,sans-Serif" font-size="10.00">Redis / arq</text>
</g>
<!-- enq&#45;&gt;redis -->
<g id="edge3" class="edge">
<title>enq&#45;&gt;redis</title>
<path fill="none" stroke="#475569" d="M158.88,-572.35C158.88,-563.74 158.88,-553.12 158.88,-543.35"/>
<polygon fill="#475569" stroke="#475569" points="162.38,-543.56 158.88,-533.56 155.38,-543.56 162.38,-543.56"/>
</g>
<!-- plan -->
<g id="node5" class="node">
<title>plan</title>
<path fill="#eef2ff" stroke="#3730a3" d="M244.12,-454.75C244.12,-454.75 73.62,-454.75 73.62,-454.75 67.62,-454.75 61.62,-448.75 61.62,-442.75 61.62,-442.75 61.62,-430.75 61.62,-430.75 61.62,-424.75 67.62,-418.75 73.62,-418.75 73.62,-418.75 244.12,-418.75 244.12,-418.75 250.12,-418.75 256.12,-424.75 256.12,-430.75 256.12,-430.75 256.12,-442.75 256.12,-442.75 256.12,-448.75 250.12,-454.75 244.12,-454.75"/>
<text xml:space="preserve" text-anchor="middle" x="158.88" y="-439.25" font-family="Helvetica,sans-Serif" font-size="10.00">plan_sync (worker)</text>
<text xml:space="preserve" text-anchor="middle" x="158.88" y="-428" font-family="Helvetica,sans-Serif" font-size="10.00">strategy.plan() → TIME_RANGE children</text>
</g>
<!-- redis&#45;&gt;plan -->
<g id="edge4" class="edge">
<title>redis&#45;&gt;plan</title>
<path fill="none" stroke="#475569" d="M158.88,-495.35C158.88,-486.74 158.88,-476.12 158.88,-466.35"/>
<polygon fill="#475569" stroke="#475569" points="162.38,-466.56 158.88,-456.56 155.38,-466.56 162.38,-466.56"/>
</g>
<!-- tr -->
<g id="node6" class="node">
<title>tr</title>
<path fill="#eef2ff" stroke="#3730a3" d="M225.38,-377.75C225.38,-377.75 92.38,-377.75 92.38,-377.75 86.38,-377.75 80.38,-371.75 80.38,-365.75 80.38,-365.75 80.38,-353.75 80.38,-353.75 80.38,-347.75 86.38,-341.75 92.38,-341.75 92.38,-341.75 225.38,-341.75 225.38,-341.75 231.38,-341.75 237.38,-347.75 237.38,-353.75 237.38,-353.75 237.38,-365.75 237.38,-365.75 237.38,-371.75 231.38,-377.75 225.38,-377.75"/>
<text xml:space="preserve" text-anchor="middle" x="158.88" y="-361.5" font-family="Helvetica,sans-Serif" font-size="10.00">sync_range (per TIME_RANGE)</text>
<text xml:space="preserve" text-anchor="middle" x="158.88" y="-350.25" font-family="Helvetica,sans-Serif" font-size="10.00">strategy.execute()</text>
</g>
<!-- plan&#45;&gt;tr -->
<g id="edge5" class="edge">
<title>plan&#45;&gt;tr</title>
<path fill="none" stroke="#475569" d="M158.88,-418.35C158.88,-409.74 158.88,-399.12 158.88,-389.35"/>
<polygon fill="#475569" stroke="#475569" points="162.38,-389.56 158.88,-379.56 155.38,-389.56 162.38,-389.56"/>
</g>
<!-- conn -->
<g id="node7" class="node">
<title>conn</title>
<path fill="#eef2ff" stroke="#3730a3" d="M139.75,-288.25C139.75,-288.25 12,-288.25 12,-288.25 6,-288.25 0,-282.25 0,-276.25 0,-276.25 0,-264.25 0,-264.25 0,-258.25 6,-252.25 12,-252.25 12,-252.25 139.75,-252.25 139.75,-252.25 145.75,-252.25 151.75,-258.25 151.75,-264.25 151.75,-264.25 151.75,-276.25 151.75,-276.25 151.75,-282.25 145.75,-288.25 139.75,-288.25"/>
<text xml:space="preserve" text-anchor="middle" x="75.88" y="-272" font-family="Helvetica,sans-Serif" font-size="10.00">Connector.fetch() pages</text>
<text xml:space="preserve" text-anchor="middle" x="75.88" y="-260.75" font-family="Helvetica,sans-Serif" font-size="10.00">Spotify / Last.fm / ListenBrainz</text>
</g>
<!-- tr&#45;&gt;conn -->
<g id="edge6" class="edge">
<title>tr&#45;&gt;conn</title>
<path fill="none" stroke="#475569" d="M142.48,-341.46C130.31,-328.64 113.54,-310.96 99.87,-296.55"/>
<polygon fill="#475569" stroke="#475569" points="102.7,-294.45 93.28,-289.6 97.62,-299.26 102.7,-294.45"/>
</g>
<!-- done -->
<g id="node11" class="node">
<title>done</title>
<path fill="#fef3c7" stroke="#b45309" d="M232.09,-295.49C232.09,-295.49 191.16,-275.51 191.16,-275.51 185.77,-272.88 185.77,-267.62 191.16,-264.99 191.16,-264.99 232.09,-245.01 232.09,-245.01 237.48,-242.38 248.27,-242.38 253.66,-245.01 253.66,-245.01 294.59,-264.99 294.59,-264.99 299.98,-267.62 299.98,-272.88 294.59,-275.51 294.59,-275.51 253.66,-295.49 253.66,-295.49 248.27,-298.12 237.48,-298.12 232.09,-295.49"/>
<text xml:space="preserve" text-anchor="middle" x="242.88" y="-272" font-family="Helvetica,sans-Serif" font-size="10.00">all children</text>
<text xml:space="preserve" text-anchor="middle" x="242.88" y="-260.75" font-family="Helvetica,sans-Serif" font-size="10.00">complete?</text>
</g>
<!-- tr&#45;&gt;done -->
<g id="edge10" class="edge">
<title>tr&#45;&gt;done</title>
<path fill="none" stroke="#475569" d="M175.47,-341.46C186.87,-329.58 202.28,-313.54 215.48,-299.78"/>
<polygon fill="#475569" stroke="#475569" points="217.92,-302.3 222.32,-292.66 212.87,-297.45 217.92,-302.3"/>
</g>
<!-- upsert -->
<g id="node8" class="node">
<title>upsert</title>
<path fill="#eef2ff" stroke="#3730a3" d="M120.62,-190C120.62,-190 31.13,-190 31.13,-190 25.12,-190 19.12,-184 19.12,-178 19.12,-178 19.12,-166 19.12,-166 19.12,-160 25.12,-154 31.12,-154 31.12,-154 120.62,-154 120.62,-154 126.62,-154 132.62,-160 132.62,-166 132.62,-166 132.62,-178 132.62,-178 132.62,-184 126.62,-190 120.62,-190"/>
<text xml:space="preserve" text-anchor="middle" x="75.88" y="-173.75" font-family="Helvetica,sans-Serif" font-size="10.00">upsert artists + tracks</text>
<text xml:space="preserve" text-anchor="middle" x="75.88" y="-162.5" font-family="Helvetica,sans-Serif" font-size="10.00">insert listening_events</text>
</g>
<!-- conn&#45;&gt;upsert -->
<g id="edge7" class="edge">
<title>conn&#45;&gt;upsert</title>
<path fill="none" stroke="#475569" d="M75.88,-252.04C75.88,-238.03 75.88,-217.96 75.88,-201.55"/>
<polygon fill="#475569" stroke="#475569" points="79.38,-201.9 75.88,-191.9 72.38,-201.9 79.38,-201.9"/>
</g>
<!-- wm -->
<g id="node9" class="node">
<title>wm</title>
<path fill="#eef2ff" stroke="#3730a3" d="M127.75,-113C127.75,-113 24,-113 24,-113 18,-113 12,-107 12,-101 12,-101 12,-89 12,-89 12,-83 18,-77 24,-77 24,-77 127.75,-77 127.75,-77 133.75,-77 139.75,-83 139.75,-89 139.75,-89 139.75,-101 139.75,-101 139.75,-107 133.75,-113 127.75,-113"/>
<text xml:space="preserve" text-anchor="middle" x="75.88" y="-91.12" font-family="Helvetica,sans-Serif" font-size="10.00">advance sync_watermark</text>
</g>
<!-- upsert&#45;&gt;wm -->
<g id="edge8" class="edge">
<title>upsert&#45;&gt;wm</title>
<path fill="none" stroke="#475569" d="M75.88,-153.6C75.88,-144.99 75.88,-134.37 75.88,-124.6"/>
<polygon fill="#475569" stroke="#475569" points="79.38,-124.81 75.88,-114.81 72.38,-124.81 79.38,-124.81"/>
</g>
<!-- pg -->
<g id="node10" class="node">
<title>pg</title>
<path fill="#dcfce7" stroke="#15803d" d="M110.5,-32.73C110.5,-34.53 94.98,-36 75.88,-36 56.77,-36 41.25,-34.53 41.25,-32.73 41.25,-32.73 41.25,-3.27 41.25,-3.27 41.25,-1.47 56.77,0 75.88,0 94.98,0 110.5,-1.47 110.5,-3.27 110.5,-3.27 110.5,-32.73 110.5,-32.73"/>
<path fill="none" stroke="#15803d" d="M110.5,-32.73C110.5,-30.92 94.98,-29.45 75.88,-29.45 56.77,-29.45 41.25,-30.92 41.25,-32.73"/>
<text xml:space="preserve" text-anchor="middle" x="75.88" y="-14.12" font-family="Helvetica,sans-Serif" font-size="10.00">PostgreSQL</text>
</g>
<!-- wm&#45;&gt;pg -->
<g id="edge9" class="edge">
<title>wm&#45;&gt;pg</title>
<path fill="none" stroke="#475569" d="M75.88,-76.6C75.88,-67.99 75.88,-57.37 75.88,-47.6"/>
<polygon fill="#475569" stroke="#475569" points="79.38,-47.81 75.88,-37.81 72.38,-47.81 79.38,-47.81"/>
</g>
<!-- dedup -->
<g id="node12" class="node">
<title>dedup</title>
<path fill="#eef2ff" stroke="#3730a3" d="M295.5,-190C295.5,-190 190.25,-190 190.25,-190 184.25,-190 178.25,-184 178.25,-178 178.25,-178 178.25,-166 178.25,-166 178.25,-160 184.25,-154 190.25,-154 190.25,-154 295.5,-154 295.5,-154 301.5,-154 307.5,-160 307.5,-166 307.5,-166 307.5,-178 307.5,-178 307.5,-184 301.5,-190 295.5,-190"/>
<text xml:space="preserve" text-anchor="middle" x="242.88" y="-173.75" font-family="Helvetica,sans-Serif" font-size="10.00">auto&#45;enqueue post&#45;sync</text>
<text xml:space="preserve" text-anchor="middle" x="242.88" y="-162.5" font-family="Helvetica,sans-Serif" font-size="10.00">event dedup (BULK_JOB)</text>
</g>
<!-- done&#45;&gt;dedup -->
<g id="edge11" class="edge">
<title>done&#45;&gt;dedup</title>
<path fill="none" stroke="#475569" d="M242.88,-239.32C242.88,-227.24 242.88,-213.36 242.88,-201.43"/>
<polygon fill="#475569" stroke="#475569" points="246.38,-201.8 242.88,-191.8 239.38,-201.8 246.38,-201.8"/>
<text xml:space="preserve" text-anchor="middle" x="250" y="-211.2" font-family="Helvetica,sans-Serif" font-size="9.00">yes</text>
</g>
</g>
</svg>
