<?xml version="1.0" encoding="UTF-8" standalone="no"?>
<!DOCTYPE svg PUBLIC "-//W3C//DTD SVG 1.1//EN"
 "http://www.w3.org/Graphics/SVG/1.1/DTD/svg11.dtd">
<!-- Generated by graphviz version 15.0.0 (20260523.1842)
 -->
<!-- Title: sync_pipeline Pages: 1 -->
<svg width="305pt" height="735pt"
 viewBox="0.00 0.00 305.00 735.00" xmlns="http://www.w3.org/2000/svg" xmlns:xlink="http://www.w3.org/1999/xlink">
<g id="graph0" class="graph" transform="scale(1 1) rotate(0) translate(4 730.75)">
<title>sync_pipeline</title>
<polygon fill="white" stroke="none" points="-4,4 -4,-730.75 300.5,-730.75 300.5,4 -4,4"/>
<!-- trig -->
<g id="node1" class="node">
<title>trig</title>
<path fill="#f5f5f5" stroke="black" d="M208.88,-726.75C208.88,-726.75 96.88,-726.75 96.88,-726.75 90.88,-726.75 84.88,-720.75 84.88,-714.75 84.88,-714.75 84.88,-702.75 84.88,-702.75 84.88,-696.75 90.88,-690.75 96.88,-690.75 96.88,-690.75 208.88,-690.75 208.88,-690.75 214.88,-690.75 220.88,-696.75 220.88,-702.75 220.88,-702.75 220.88,-714.75 220.88,-714.75 220.88,-720.75 214.88,-726.75 208.88,-726.75"/>
<text xml:space="preserve" text-anchor="middle" x="152.88" y="-704.88" font-family="Helvetica,sans-Serif" font-size="10.00">API / CLI / orphan recovery</text>
</g>
<!-- sj -->
<g id="node2" class="node">
<title>sj</title>
<path fill="#f5f5f5" stroke="black" d="M219.38,-653.75C219.38,-653.75 86.38,-653.75 86.38,-653.75 80.38,-653.75 74.38,-647.75 74.38,-641.75 74.38,-641.75 74.38,-629.75 74.38,-629.75 74.38,-623.75 80.38,-617.75 86.38,-617.75 86.38,-617.75 219.38,-617.75 219.38,-617.75 225.38,-617.75 231.38,-623.75 231.38,-629.75 231.38,-629.75 231.38,-641.75 231.38,-641.75 231.38,-647.75 225.38,-653.75 219.38,-653.75"/>
<text xml:space="preserve" text-anchor="middle" x="152.88" y="-631.88" font-family="Helvetica,sans-Serif" font-size="10.00">Create SYNC_JOB (PENDING)</text>
</g>
<!-- trig&#45;&gt;sj -->
<g id="edge1" class="edge">
<title>trig&#45;&gt;sj</title>
<path fill="none" stroke="black" d="M152.88,-690.56C152.88,-682.98 152.88,-673.85 152.88,-665.29"/>
<polygon fill="black" stroke="black" points="156.38,-665.29 152.88,-655.29 149.38,-665.29 156.38,-665.29"/>
</g>
<!-- enq -->
<g id="node3" class="node">
<title>enq</title>
<path fill="#f5f5f5" stroke="black" d="M190.88,-580.75C190.88,-580.75 114.88,-580.75 114.88,-580.75 108.88,-580.75 102.88,-574.75 102.88,-568.75 102.88,-568.75 102.88,-556.75 102.88,-556.75 102.88,-550.75 108.88,-544.75 114.88,-544.75 114.88,-544.75 190.88,-544.75 190.88,-544.75 196.88,-544.75 202.88,-550.75 202.88,-556.75 202.88,-556.75 202.88,-568.75 202.88,-568.75 202.88,-574.75 196.88,-580.75 190.88,-580.75"/>
<text xml:space="preserve" text-anchor="middle" x="152.88" y="-558.88" font-family="Helvetica,sans-Serif" font-size="10.00">enqueue plan_sync</text>
</g>
<!-- sj&#45;&gt;enq -->
<g id="edge2" class="edge">
<title>sj&#45;&gt;enq</title>
<path fill="none" stroke="black" d="M152.88,-617.56C152.88,-609.98 152.88,-600.85 152.88,-592.29"/>
<polygon fill="black" stroke="black" points="156.38,-592.29 152.88,-582.29 149.38,-592.29 156.38,-592.29"/>
</g>
<!-- redis -->
<g id="node4" class="node">
<title>redis</title>
<path fill="#fce8e6" stroke="black" d="M184.88,-504.48C184.88,-506.28 170.53,-507.75 152.88,-507.75 135.22,-507.75 120.88,-506.28 120.88,-504.48 120.88,-504.48 120.88,-475.02 120.88,-475.02 120.88,-473.22 135.22,-471.75 152.88,-471.75 170.53,-471.75 184.88,-473.22 184.88,-475.02 184.88,-475.02 184.88,-504.48 184.88,-504.48"/>
<path fill="none" stroke="black" d="M184.88,-504.48C184.88,-502.67 170.53,-501.2 152.88,-501.2 135.22,-501.2 120.88,-502.67 120.88,-504.48"/>
<text xml:space="preserve" text-anchor="middle" x="152.88" y="-485.88" font-family="Helvetica,sans-Serif" font-size="10.00">Redis / arq</text>
</g>
<!-- enq&#45;&gt;redis -->
<g id="edge3" class="edge">
<title>enq&#45;&gt;redis</title>
<path fill="none" stroke="black" d="M152.88,-544.56C152.88,-536.98 152.88,-527.85 152.88,-519.29"/>
<polygon fill="black" stroke="black" points="156.38,-519.29 152.88,-509.29 149.38,-519.29 156.38,-519.29"/>
</g>
<!-- plan -->
<g id="node5" class="node">
<title>plan</title>
<path fill="#f5f5f5" stroke="black" d="M238.12,-434.75C238.12,-434.75 67.62,-434.75 67.62,-434.75 61.62,-434.75 55.62,-428.75 55.62,-422.75 55.62,-422.75 55.62,-410.75 55.62,-410.75 55.62,-404.75 61.62,-398.75 67.62,-398.75 67.62,-398.75 238.12,-398.75 238.12,-398.75 244.12,-398.75 250.12,-404.75 250.12,-410.75 250.12,-410.75 250.12,-422.75 250.12,-422.75 250.12,-428.75 244.12,-434.75 238.12,-434.75"/>
<text xml:space="preserve" text-anchor="middle" x="152.88" y="-419.25" font-family="Helvetica,sans-Serif" font-size="10.00">plan_sync (worker)</text>
<text xml:space="preserve" text-anchor="middle" x="152.88" y="-408" font-family="Helvetica,sans-Serif" font-size="10.00">strategy.plan() → TIME_RANGE children</text>
</g>
<!-- redis&#45;&gt;plan -->
<g id="edge4" class="edge">
<title>redis&#45;&gt;plan</title>
<path fill="none" stroke="black" d="M152.88,-471.56C152.88,-463.98 152.88,-454.85 152.88,-446.29"/>
<polygon fill="black" stroke="black" points="156.38,-446.29 152.88,-436.29 149.38,-446.29 156.38,-446.29"/>
</g>
<!-- tr -->
<g id="node6" class="node">
<title>tr</title>
<path fill="#f5f5f5" stroke="black" d="M219.38,-361.75C219.38,-361.75 86.38,-361.75 86.38,-361.75 80.38,-361.75 74.38,-355.75 74.38,-349.75 74.38,-349.75 74.38,-337.75 74.38,-337.75 74.38,-331.75 80.38,-325.75 86.38,-325.75 86.38,-325.75 219.38,-325.75 219.38,-325.75 225.38,-325.75 231.38,-331.75 231.38,-337.75 231.38,-337.75 231.38,-349.75 231.38,-349.75 231.38,-355.75 225.38,-361.75 219.38,-361.75"/>
<text xml:space="preserve" text-anchor="middle" x="152.88" y="-345.5" font-family="Helvetica,sans-Serif" font-size="10.00">sync_range (per TIME_RANGE)</text>
<text xml:space="preserve" text-anchor="middle" x="152.88" y="-334.25" font-family="Helvetica,sans-Serif" font-size="10.00">strategy.execute()</text>
</g>
<!-- plan&#45;&gt;tr -->
<g id="edge5" class="edge">
<title>plan&#45;&gt;tr</title>
<path fill="none" stroke="black" d="M152.88,-398.56C152.88,-390.98 152.88,-381.85 152.88,-373.29"/>
<polygon fill="black" stroke="black" points="156.38,-373.29 152.88,-363.29 149.38,-373.29 156.38,-373.29"/>
</g>
<!-- conn -->
<g id="node7" class="node">
<title>conn</title>
<path fill="#f5f5f5" stroke="black" d="M139.75,-276.25C139.75,-276.25 12,-276.25 12,-276.25 6,-276.25 0,-270.25 0,-264.25 0,-264.25 0,-252.25 0,-252.25 0,-246.25 6,-240.25 12,-240.25 12,-240.25 139.75,-240.25 139.75,-240.25 145.75,-240.25 151.75,-246.25 151.75,-252.25 151.75,-252.25 151.75,-264.25 151.75,-264.25 151.75,-270.25 145.75,-276.25 139.75,-276.25"/>
<text xml:space="preserve" text-anchor="middle" x="75.88" y="-260" font-family="Helvetica,sans-Serif" font-size="10.00">Connector.fetch() pages</text>
<text xml:space="preserve" text-anchor="middle" x="75.88" y="-248.75" font-family="Helvetica,sans-Serif" font-size="10.00">Spotify / Last.fm / ListenBrainz</text>
</g>
<!-- tr&#45;&gt;conn -->
<g id="edge6" class="edge">
<title>tr&#45;&gt;conn</title>
<path fill="none" stroke="black" d="M136.92,-325.45C126.08,-313.69 111.56,-297.94 99.4,-284.76"/>
<polygon fill="black" stroke="black" points="102.19,-282.62 92.84,-277.64 97.04,-287.37 102.19,-282.62"/>
</g>
<!-- done -->
<g id="node11" class="node">
<title>done</title>
<path fill="#fffde7" stroke="black" d="M221.09,-283.49C221.09,-283.49 180.16,-263.51 180.16,-263.51 174.77,-260.88 174.77,-255.62 180.16,-252.99 180.16,-252.99 221.09,-233.01 221.09,-233.01 226.48,-230.38 237.27,-230.38 242.66,-233.01 242.66,-233.01 283.59,-252.99 283.59,-252.99 288.98,-255.62 288.98,-260.88 283.59,-263.51 283.59,-263.51 242.66,-283.49 242.66,-283.49 237.27,-286.12 226.48,-286.12 221.09,-283.49"/>
<text xml:space="preserve" text-anchor="middle" x="231.88" y="-260" font-family="Helvetica,sans-Serif" font-size="10.00">all children</text>
<text xml:space="preserve" text-anchor="middle" x="231.88" y="-248.75" font-family="Helvetica,sans-Serif" font-size="10.00">complete?</text>
</g>
<!-- tr&#45;&gt;done -->
<g id="edge10" class="edge">
<title>tr&#45;&gt;done</title>
<path fill="none" stroke="black" d="M169.24,-325.45C179.45,-314.66 192.84,-300.51 204.62,-288.06"/>
<polygon fill="black" stroke="black" points="207.09,-290.54 211.42,-280.87 202,-285.73 207.09,-290.54"/>
</g>
<!-- upsert -->
<g id="node8" class="node">
<title>upsert</title>
<path fill="#f5f5f5" stroke="black" d="M120.62,-182C120.62,-182 31.13,-182 31.13,-182 25.12,-182 19.12,-176 19.12,-170 19.12,-170 19.12,-158 19.12,-158 19.12,-152 25.12,-146 31.12,-146 31.12,-146 120.62,-146 120.62,-146 126.62,-146 132.62,-152 132.62,-158 132.62,-158 132.62,-170 132.62,-170 132.62,-176 126.62,-182 120.62,-182"/>
<text xml:space="preserve" text-anchor="middle" x="75.88" y="-165.75" font-family="Helvetica,sans-Serif" font-size="10.00">upsert artists + tracks</text>
<text xml:space="preserve" text-anchor="middle" x="75.88" y="-154.5" font-family="Helvetica,sans-Serif" font-size="10.00">insert listening_events</text>
</g>
<!-- conn&#45;&gt;upsert -->
<g id="edge7" class="edge">
<title>conn&#45;&gt;upsert</title>
<path fill="none" stroke="black" d="M75.88,-239.9C75.88,-226.88 75.88,-208.78 75.88,-193.63"/>
<polygon fill="black" stroke="black" points="79.38,-193.79 75.88,-183.79 72.38,-193.79 79.38,-193.79"/>
</g>
<!-- wm -->
<g id="node9" class="node">
<title>wm</title>
<path fill="#f5f5f5" stroke="black" d="M127.75,-109C127.75,-109 24,-109 24,-109 18,-109 12,-103 12,-97 12,-97 12,-85 12,-85 12,-79 18,-73 24,-73 24,-73 127.75,-73 127.75,-73 133.75,-73 139.75,-79 139.75,-85 139.75,-85 139.75,-97 139.75,-97 139.75,-103 133.75,-109 127.75,-109"/>
<text xml:space="preserve" text-anchor="middle" x="75.88" y="-87.12" font-family="Helvetica,sans-Serif" font-size="10.00">advance sync_watermark</text>
</g>
<!-- upsert&#45;&gt;wm -->
<g id="edge8" class="edge">
<title>upsert&#45;&gt;wm</title>
<path fill="none" stroke="black" d="M75.88,-145.81C75.88,-138.23 75.88,-129.1 75.88,-120.54"/>
<polygon fill="black" stroke="black" points="79.38,-120.54 75.88,-110.54 72.38,-120.54 79.38,-120.54"/>
</g>
<!-- pg -->
<g id="node10" class="node">
<title>pg</title>
<path fill="#e8f0fe" stroke="black" d="M110.5,-32.73C110.5,-34.53 94.98,-36 75.88,-36 56.77,-36 41.25,-34.53 41.25,-32.73 41.25,-32.73 41.25,-3.27 41.25,-3.27 41.25,-1.47 56.77,0 75.88,0 94.98,0 110.5,-1.47 110.5,-3.27 110.5,-3.27 110.5,-32.73 110.5,-32.73"/>
<path fill="none" stroke="black" d="M110.5,-32.73C110.5,-30.92 94.98,-29.45 75.88,-29.45 56.77,-29.45 41.25,-30.92 41.25,-32.73"/>
<text xml:space="preserve" text-anchor="middle" x="75.88" y="-14.12" font-family="Helvetica,sans-Serif" font-size="10.00">PostgreSQL</text>
</g>
<!-- wm&#45;&gt;pg -->
<g id="edge9" class="edge">
<title>wm&#45;&gt;pg</title>
<path fill="none" stroke="black" d="M75.88,-72.81C75.88,-65.23 75.88,-56.1 75.88,-47.54"/>
<polygon fill="black" stroke="black" points="79.38,-47.54 75.88,-37.54 72.38,-47.54 79.38,-47.54"/>
</g>
<!-- dedup -->
<g id="node12" class="node">
<title>dedup</title>
<path fill="#f5f5f5" stroke="black" d="M284.5,-182C284.5,-182 179.25,-182 179.25,-182 173.25,-182 167.25,-176 167.25,-170 167.25,-170 167.25,-158 167.25,-158 167.25,-152 173.25,-146 179.25,-146 179.25,-146 284.5,-146 284.5,-146 290.5,-146 296.5,-152 296.5,-158 296.5,-158 296.5,-170 296.5,-170 296.5,-176 290.5,-182 284.5,-182"/>
<text xml:space="preserve" text-anchor="middle" x="231.88" y="-165.75" font-family="Helvetica,sans-Serif" font-size="10.00">auto&#45;enqueue post&#45;sync</text>
<text xml:space="preserve" text-anchor="middle" x="231.88" y="-154.5" font-family="Helvetica,sans-Serif" font-size="10.00">event dedup (BULK_JOB)</text>
</g>
<!-- done&#45;&gt;dedup -->
<g id="edge11" class="edge">
<title>done&#45;&gt;dedup</title>
<path fill="none" stroke="black" d="M231.88,-227.3C231.88,-216.52 231.88,-204.39 231.88,-193.72"/>
<polygon fill="black" stroke="black" points="235.38,-193.95 231.88,-183.95 228.38,-193.95 235.38,-193.95"/>
<text xml:space="preserve" text-anchor="middle" x="239" y="-201.2" font-family="Helvetica,sans-Serif" font-size="9.00">yes</text>
</g>
</g>
</svg>
