<?xml version="1.0" encoding="UTF-8" standalone="no"?>
<!DOCTYPE svg PUBLIC "-//W3C//DTD SVG 1.1//EN"
 "http://www.w3.org/Graphics/SVG/1.1/DTD/svg11.dtd">
<!-- Generated by graphviz version 15.0.0 (20260523.1842)
 -->
<!-- Title: system_architecture Pages: 1 -->
<svg width="829pt" height="309pt"
 viewBox="0.00 0.00 829.00 309.00" xmlns="http://www.w3.org/2000/svg" xmlns:xlink="http://www.w3.org/1999/xlink">
<g id="graph0" class="graph" transform="scale(1 1) rotate(0) translate(4 305.44)">
<title>system_architecture</title>
<polygon fill="white" stroke="none" points="-4,4 -4,-305.44 825,-305.44 825,4 -4,4"/>
<g id="clust1" class="cluster">
<title>cluster_clients</title>
<path fill="#f8fafc" stroke="#cbd5e1" d="M174,-221.44C174,-221.44 373,-221.44 373,-221.44 379,-221.44 385,-227.44 385,-233.44 385,-233.44 385,-281.44 385,-281.44 385,-287.44 379,-293.44 373,-293.44 373,-293.44 174,-293.44 174,-293.44 168,-293.44 162,-287.44 162,-281.44 162,-281.44 162,-233.44 162,-233.44 162,-227.44 168,-221.44 174,-221.44"/>
<text xml:space="preserve" text-anchor="middle" x="273.5" y="-278.99" font-family="Helvetica,sans-Serif" font-size="11.00">Clients</text>
</g>
<g id="clust2" class="cluster">
<title>cluster_app</title>
<path fill="#f8fafc" stroke="#cbd5e1" d="M232,-117.69C232,-117.69 445,-117.69 445,-117.69 451,-117.69 457,-123.69 457,-129.69 457,-129.69 457,-177.69 457,-177.69 457,-183.69 451,-189.69 445,-189.69 445,-189.69 232,-189.69 232,-189.69 226,-189.69 220,-183.69 220,-177.69 220,-177.69 220,-129.69 220,-129.69 220,-123.69 226,-117.69 232,-117.69"/>
<text xml:space="preserve" text-anchor="middle" x="338.5" y="-175.24" font-family="Helvetica,sans-Serif" font-size="11.00">Resonance app — megadoomer&#45;do K8s</text>
</g>
<g id="clust3" class="cluster">
<title>cluster_data</title>
<path fill="#f8fafc" stroke="#cbd5e1" d="M20,-8C20,-8 221,-8 221,-8 227,-8 233,-14 233,-20 233,-20 233,-73.94 233,-73.94 233,-79.94 227,-85.94 221,-85.94 221,-85.94 20,-85.94 20,-85.94 14,-85.94 8,-79.94 8,-73.94 8,-73.94 8,-20 8,-20 8,-14 14,-8 20,-8"/>
<text xml:space="preserve" text-anchor="middle" x="120.5" y="-71.49" font-family="Helvetica,sans-Serif" font-size="11.00">Stateful backends</text>
</g>
<g id="clust4" class="cluster">
<title>cluster_ext</title>
<path fill="#f8fafc" stroke="#cbd5e1" d="M258,-10.97C258,-10.97 801,-10.97 801,-10.97 807,-10.97 813,-16.97 813,-22.97 813,-22.97 813,-70.97 813,-70.97 813,-76.97 807,-82.97 801,-82.97 801,-82.97 258,-82.97 258,-82.97 252,-82.97 246,-76.97 246,-70.97 246,-70.97 246,-22.97 246,-22.97 246,-16.97 252,-10.97 258,-10.97"/>
<text xml:space="preserve" text-anchor="middle" x="529.5" y="-68.52" font-family="Helvetica,sans-Serif" font-size="11.00">External services</text>
</g>
<!-- UI -->
<g id="node1" class="node">
<title>UI</title>
<path fill="#eef2ff" stroke="#3730a3" d="M240,-265.44C240,-265.44 182,-265.44 182,-265.44 176,-265.44 170,-259.44 170,-253.44 170,-253.44 170,-241.44 170,-241.44 170,-235.44 176,-229.44 182,-229.44 182,-229.44 240,-229.44 240,-229.44 246,-229.44 252,-235.44 252,-241.44 252,-241.44 252,-253.44 252,-253.44 252,-259.44 246,-265.44 240,-265.44"/>
<text xml:space="preserve" text-anchor="middle" x="211" y="-249.19" font-family="Helvetica,sans-Serif" font-size="10.00">Browser UI</text>
<text xml:space="preserve" text-anchor="middle" x="211" y="-237.94" font-family="Helvetica,sans-Serif" font-size="10.00">Jinja2 + HTMX</text>
</g>
<!-- WEB -->
<g id="node3" class="node">
<title>WEB</title>
<path fill="#eef2ff" stroke="#3730a3" d="M313.88,-161.69C313.88,-161.69 240.12,-161.69 240.12,-161.69 234.12,-161.69 228.12,-155.69 228.12,-149.69 228.12,-149.69 228.12,-137.69 228.12,-137.69 228.12,-131.69 234.12,-125.69 240.12,-125.69 240.12,-125.69 313.88,-125.69 313.88,-125.69 319.88,-125.69 325.88,-131.69 325.88,-137.69 325.88,-137.69 325.88,-149.69 325.88,-149.69 325.88,-155.69 319.88,-161.69 313.88,-161.69"/>
<text xml:space="preserve" text-anchor="middle" x="277" y="-145.44" font-family="Helvetica,sans-Serif" font-size="10.00">FastAPI web</text>
<text xml:space="preserve" text-anchor="middle" x="277" y="-134.19" font-family="Helvetica,sans-Serif" font-size="10.00">UI routes + /api/v1</text>
</g>
<!-- UI&#45;&gt;WEB -->
<g id="edge1" class="edge">
<title>UI&#45;&gt;WEB</title>
<path fill="none" stroke="#475569" d="M222.2,-229.18C232.44,-213.39 247.75,-189.79 259.58,-171.54"/>
<polygon fill="#475569" stroke="#475569" points="262.42,-173.6 264.93,-163.3 256.55,-169.79 262.42,-173.6"/>
<text xml:space="preserve" text-anchor="middle" x="253.65" y="-198.89" font-family="Helvetica,sans-Serif" font-size="9.00">HTTP</text>
</g>
<!-- CLI -->
<g id="node2" class="node">
<title>CLI</title>
<path fill="#eef2ff" stroke="#3730a3" d="M364.75,-265.44C364.75,-265.44 293.25,-265.44 293.25,-265.44 287.25,-265.44 281.25,-259.44 281.25,-253.44 281.25,-253.44 281.25,-241.44 281.25,-241.44 281.25,-235.44 287.25,-229.44 293.25,-229.44 293.25,-229.44 364.75,-229.44 364.75,-229.44 370.75,-229.44 376.75,-235.44 376.75,-241.44 376.75,-241.44 376.75,-253.44 376.75,-253.44 376.75,-259.44 370.75,-265.44 364.75,-265.44"/>
<text xml:space="preserve" text-anchor="middle" x="329" y="-243.56" font-family="Helvetica,sans-Serif" font-size="10.00">resonance&#45;api CLI</text>
</g>
<!-- CLI&#45;&gt;WEB -->
<g id="edge2" class="edge">
<title>CLI&#45;&gt;WEB</title>
<path fill="none" stroke="#475569" d="M320.18,-229.18C312.19,-213.54 300.27,-190.22 290.98,-172.05"/>
<polygon fill="#475569" stroke="#475569" points="294.22,-170.69 286.55,-163.38 287.99,-173.88 294.22,-170.69"/>
<text xml:space="preserve" text-anchor="middle" x="335.78" y="-198.89" font-family="Helvetica,sans-Serif" font-size="9.00">/api/v1 bearer</text>
</g>
<!-- PG -->
<g id="node5" class="node">
<title>PG</title>
<path fill="#dcfce7" stroke="#15803d" d="M85.62,-51.7C85.62,-53.5 70.11,-54.97 51,-54.97 31.89,-54.97 16.38,-53.5 16.38,-51.7 16.38,-51.7 16.38,-22.24 16.38,-22.24 16.38,-20.44 31.89,-18.97 51,-18.97 70.11,-18.97 85.62,-20.44 85.62,-22.24 85.62,-22.24 85.62,-51.7 85.62,-51.7"/>
<path fill="none" stroke="#15803d" d="M85.62,-51.7C85.62,-49.89 70.11,-48.42 51,-48.42 31.89,-48.42 16.38,-49.89 16.38,-51.7"/>
<text xml:space="preserve" text-anchor="middle" x="51" y="-33.09" font-family="Helvetica,sans-Serif" font-size="10.00">PostgreSQL</text>
</g>
<!-- WEB&#45;&gt;PG -->
<g id="edge5" class="edge">
<title>WEB&#45;&gt;PG</title>
<path fill="none" stroke="#475569" d="M227.82,-133.13C191.07,-124.53 140.56,-109.56 101,-85.94 90.88,-79.9 81.18,-71.45 73.07,-63.33"/>
<polygon fill="#475569" stroke="#475569" points="75.71,-61.03 66.28,-56.2 70.64,-65.85 75.71,-61.03"/>
</g>
<!-- REDIS -->
<g id="node6" class="node">
<title>REDIS</title>
<path fill="#fee2e2" stroke="#b91c1c" d="M224.88,-54.12C224.88,-56.23 200.28,-57.94 170,-57.94 139.72,-57.94 115.12,-56.23 115.12,-54.12 115.12,-54.12 115.12,-19.81 115.12,-19.81 115.12,-17.71 139.72,-16 170,-16 200.28,-16 224.88,-17.71 224.88,-19.81 224.88,-19.81 224.88,-54.12 224.88,-54.12"/>
<path fill="none" stroke="#b91c1c" d="M224.88,-54.12C224.88,-52.02 200.28,-50.31 170,-50.31 139.72,-50.31 115.12,-52.02 115.12,-54.12"/>
<text xml:space="preserve" text-anchor="middle" x="170" y="-38.72" font-family="Helvetica,sans-Serif" font-size="10.00">Redis</text>
<text xml:space="preserve" text-anchor="middle" x="170" y="-27.47" font-family="Helvetica,sans-Serif" font-size="10.00">arq queue + sessions</text>
</g>
<!-- WEB&#45;&gt;REDIS -->
<g id="edge3" class="edge">
<title>WEB&#45;&gt;REDIS</title>
<path fill="none" stroke="#475569" d="M230.94,-125.29C220.09,-119.61 209.22,-112.46 200.75,-103.69 191.37,-93.97 184.46,-80.87 179.58,-68.92"/>
<polygon fill="#475569" stroke="#475569" points="182.97,-67.98 176.2,-59.82 176.41,-70.42 182.97,-67.98"/>
<text xml:space="preserve" text-anchor="middle" x="228.88" y="-95.14" font-family="Helvetica,sans-Serif" font-size="9.00">enqueue jobs</text>
</g>
<!-- DEX -->
<g id="node12" class="node">
<title>DEX</title>
<path fill="#eef2ff" stroke="#3730a3" d="M318,-54.97C318,-54.97 266,-54.97 266,-54.97 260,-54.97 254,-48.97 254,-42.97 254,-42.97 254,-30.97 254,-30.97 254,-24.97 260,-18.97 266,-18.97 266,-18.97 318,-18.97 318,-18.97 324,-18.97 330,-24.97 330,-30.97 330,-30.97 330,-42.97 330,-42.97 330,-48.97 324,-54.97 318,-54.97"/>
<text xml:space="preserve" text-anchor="middle" x="292" y="-38.72" font-family="Helvetica,sans-Serif" font-size="10.00">Dex OIDC</text>
<text xml:space="preserve" text-anchor="middle" x="292" y="-27.47" font-family="Helvetica,sans-Serif" font-size="10.00">(GitHub login)</text>
</g>
<!-- WEB&#45;&gt;DEX -->
<g id="edge12" class="edge">
<title>WEB&#45;&gt;DEX</title>
<path fill="none" stroke="#475569" d="M268.65,-125.58C265.12,-116.25 262.32,-104.48 264.75,-93.94 266.99,-84.2 271.17,-74.2 275.59,-65.4"/>
<polygon fill="#475569" stroke="#475569" points="278.62,-67.15 280.27,-56.68 272.46,-63.83 278.62,-67.15"/>
<text xml:space="preserve" text-anchor="middle" x="274.88" y="-95.14" font-family="Helvetica,sans-Serif" font-size="9.00">login</text>
</g>
<!-- WORKER -->
<g id="node4" class="node">
<title>WORKER</title>
<path fill="#eef2ff" stroke="#3730a3" d="M436.62,-161.69C436.62,-161.69 367.38,-161.69 367.38,-161.69 361.38,-161.69 355.38,-155.69 355.38,-149.69 355.38,-149.69 355.38,-137.69 355.38,-137.69 355.38,-131.69 361.38,-125.69 367.38,-125.69 367.38,-125.69 436.62,-125.69 436.62,-125.69 442.62,-125.69 448.62,-131.69 448.62,-137.69 448.62,-137.69 448.62,-149.69 448.62,-149.69 448.62,-155.69 442.62,-161.69 436.62,-161.69"/>
<text xml:space="preserve" text-anchor="middle" x="402" y="-145.44" font-family="Helvetica,sans-Serif" font-size="10.00">arq worker</text>
<text xml:space="preserve" text-anchor="middle" x="402" y="-134.19" font-family="Helvetica,sans-Serif" font-size="10.00">background tasks</text>
</g>
<!-- WORKER&#45;&gt;PG -->
<g id="edge6" class="edge">
<title>WORKER&#45;&gt;PG</title>
<path fill="none" stroke="#475569" d="M362.42,-125.25C355.06,-122.44 347.37,-119.77 340,-117.69 339.76,-117.62 199.25,-93.97 199,-93.94 177.32,-91.23 120.92,-94.91 101,-85.94 89.81,-80.9 79.6,-72.26 71.37,-63.69"/>
<polygon fill="#475569" stroke="#475569" points="74.12,-61.52 64.84,-56.41 68.9,-66.19 74.12,-61.52"/>
</g>
<!-- SPOT -->
<g id="node7" class="node">
<title>SPOT</title>
<path fill="#eef2ff" stroke="#3730a3" d="M710,-54.97C710,-54.97 680,-54.97 680,-54.97 674,-54.97 668,-48.97 668,-42.97 668,-42.97 668,-30.97 668,-30.97 668,-24.97 674,-18.97 680,-18.97 680,-18.97 710,-18.97 710,-18.97 716,-18.97 722,-24.97 722,-30.97 722,-30.97 722,-42.97 722,-42.97 722,-48.97 716,-54.97 710,-54.97"/>
<text xml:space="preserve" text-anchor="middle" x="695" y="-33.09" font-family="Helvetica,sans-Serif" font-size="10.00">Spotify</text>
</g>
<!-- WORKER&#45;&gt;SPOT -->
<g id="edge7" class="edge">
<title>WORKER&#45;&gt;SPOT</title>
<path fill="none" stroke="#475569" d="M448.65,-141.24C502,-137.64 590.2,-125.58 654,-85.94 662.83,-80.45 670.74,-72.44 677.21,-64.54"/>
<polygon fill="#475569" stroke="#475569" points="679.93,-66.74 683.19,-56.66 674.36,-62.51 679.93,-66.74"/>
<text xml:space="preserve" text-anchor="middle" x="661.38" y="-95.14" font-family="Helvetica,sans-Serif" font-size="9.00">sync / export</text>
</g>
<!-- LFM -->
<g id="node8" class="node">
<title>LFM</title>
<path fill="#eef2ff" stroke="#3730a3" d="M793,-54.97C793,-54.97 763,-54.97 763,-54.97 757,-54.97 751,-48.97 751,-42.97 751,-42.97 751,-30.97 751,-30.97 751,-24.97 757,-18.97 763,-18.97 763,-18.97 793,-18.97 793,-18.97 799,-18.97 805,-24.97 805,-30.97 805,-30.97 805,-42.97 805,-42.97 805,-48.97 799,-54.97 793,-54.97"/>
<text xml:space="preserve" text-anchor="middle" x="778" y="-33.09" font-family="Helvetica,sans-Serif" font-size="10.00">Last.fm</text>
</g>
<!-- WORKER&#45;&gt;LFM -->
<g id="edge8" class="edge">
<title>WORKER&#45;&gt;LFM</title>
<path fill="none" stroke="#475569" d="M449,-140.16C507.32,-136.17 609.41,-126.38 694,-103.69 713.97,-98.33 720.26,-98.08 737,-85.94 745.29,-79.93 752.99,-71.91 759.42,-64.16"/>
<polygon fill="#475569" stroke="#475569" points="762.01,-66.53 765.42,-56.51 756.5,-62.22 762.01,-66.53"/>
<text xml:space="preserve" text-anchor="middle" x="749.61" y="-95.14" font-family="Helvetica,sans-Serif" font-size="9.00">sync / enrich</text>
</g>
<!-- LBZ -->
<g id="node9" class="node">
<title>LBZ</title>
<path fill="#eef2ff" stroke="#3730a3" d="M417,-54.97C417,-54.97 371,-54.97 371,-54.97 365,-54.97 359,-48.97 359,-42.97 359,-42.97 359,-30.97 359,-30.97 359,-24.97 365,-18.97 371,-18.97 371,-18.97 417,-18.97 417,-18.97 423,-18.97 429,-24.97 429,-30.97 429,-30.97 429,-42.97 429,-42.97 429,-48.97 423,-54.97 417,-54.97"/>
<text xml:space="preserve" text-anchor="middle" x="394" y="-33.09" font-family="Helvetica,sans-Serif" font-size="10.00">ListenBrainz</text>
</g>
<!-- WORKER&#45;&gt;LBZ -->
<g id="edge9" class="edge">
<title>WORKER&#45;&gt;LBZ</title>
<path fill="none" stroke="#475569" d="M400.68,-125.4C399.46,-109.48 397.64,-85.56 396.2,-66.76"/>
<polygon fill="#475569" stroke="#475569" points="399.69,-66.5 395.44,-56.8 392.71,-67.03 399.69,-66.5"/>
<text xml:space="preserve" text-anchor="middle" x="424.45" y="-95.14" font-family="Helvetica,sans-Serif" font-size="9.00">sync / enrich</text>
</g>
<!-- MB -->
<g id="node10" class="node">
<title>MB</title>
<path fill="#eef2ff" stroke="#3730a3" d="M516,-54.97C516,-54.97 470,-54.97 470,-54.97 464,-54.97 458,-48.97 458,-42.97 458,-42.97 458,-30.97 458,-30.97 458,-24.97 464,-18.97 470,-18.97 470,-18.97 516,-18.97 516,-18.97 522,-18.97 528,-24.97 528,-30.97 528,-30.97 528,-42.97 528,-42.97 528,-48.97 522,-54.97 516,-54.97"/>
<text xml:space="preserve" text-anchor="middle" x="493" y="-33.09" font-family="Helvetica,sans-Serif" font-size="10.00">MusicBrainz</text>
</g>
<!-- WORKER&#45;&gt;MB -->
<g id="edge10" class="edge">
<title>WORKER&#45;&gt;MB</title>
<path fill="none" stroke="#475569" d="M431.69,-125.28C440.52,-119.19 449.76,-111.82 457,-103.69 466.97,-92.49 475.26,-78.06 481.36,-65.57"/>
<polygon fill="#475569" stroke="#475569" points="484.49,-67.15 485.51,-56.6 478.13,-64.21 484.49,-67.15"/>
<text xml:space="preserve" text-anchor="middle" x="490.86" y="-95.14" font-family="Helvetica,sans-Serif" font-size="9.00">MBID lookup</text>
</g>
<!-- SK -->
<g id="node11" class="node">
<title>SK</title>
<path fill="#eef2ff" stroke="#3730a3" d="M627.38,-54.97C627.38,-54.97 568.62,-54.97 568.62,-54.97 562.62,-54.97 556.62,-48.97 556.62,-42.97 556.62,-42.97 556.62,-30.97 556.62,-30.97 556.62,-24.97 562.62,-18.97 568.62,-18.97 568.62,-18.97 627.38,-18.97 627.38,-18.97 633.38,-18.97 639.38,-24.97 639.38,-30.97 639.38,-30.97 639.38,-42.97 639.38,-42.97 639.38,-48.97 633.38,-54.97 627.38,-54.97"/>
<text xml:space="preserve" text-anchor="middle" x="598" y="-33.09" font-family="Helvetica,sans-Serif" font-size="10.00">Songkick / iCal</text>
</g>
<!-- WORKER&#45;&gt;SK -->
<g id="edge11" class="edge">
<title>WORKER&#45;&gt;SK</title>
<path fill="none" stroke="#475569" d="M449.08,-132.54C472.56,-126.29 500.81,-116.9 524,-103.69 542.79,-92.98 561,-76.92 574.65,-63.35"/>
<polygon fill="#475569" stroke="#475569" points="576.97,-65.97 581.46,-56.38 571.97,-61.08 576.97,-65.97"/>
<text xml:space="preserve" text-anchor="middle" x="557.47" y="-95.14" font-family="Helvetica,sans-Serif" font-size="9.00">feed fetch</text>
</g>
<!-- REDIS&#45;&gt;WORKER -->
<g id="edge4" class="edge">
<title>REDIS&#45;&gt;WORKER</title>
<path fill="none" stroke="#475569" d="M193.68,-58.39C206.33,-68.23 222.64,-79.31 239,-85.94 259.45,-94.22 266.81,-87.78 288,-93.94 311.41,-100.74 336.42,-111.07 357.03,-120.47"/>
<polygon fill="#475569" stroke="#475569" points="355.46,-123.6 366,-124.64 358.41,-117.25 355.46,-123.6"/>
<text xml:space="preserve" text-anchor="middle" x="342.24" y="-95.14" font-family="Helvetica,sans-Serif" font-size="9.00">consume jobs</text>
</g>
</g>
</svg>
