<?xml version="1.0" encoding="UTF-8" standalone="no"?>
<!DOCTYPE svg PUBLIC "-//W3C//DTD SVG 1.1//EN"
 "http://www.w3.org/Graphics/SVG/1.1/DTD/svg11.dtd">
<!-- Generated by graphviz version 15.0.0 (20260523.1842)
 -->
<!-- Title: system_architecture Pages: 1 -->
<svg width="837pt" height="312pt"
 viewBox="0.00 0.00 837.00 312.00" xmlns="http://www.w3.org/2000/svg" xmlns:xlink="http://www.w3.org/1999/xlink">
<g id="graph0" class="graph" transform="scale(1 1) rotate(0) translate(4 307.63)">
<title>system_architecture</title>
<polygon fill="white" stroke="none" points="-4,4 -4,-307.63 833,-307.63 833,4 -4,4"/>
<g id="clust1" class="cluster">
<title>cluster_clients</title>
<polygon fill="#f8faff" stroke="#e8f0fe" points="163,-220.63 163,-295.63 375,-295.63 375,-220.63 163,-220.63"/>
<text xml:space="preserve" text-anchor="middle" x="269" y="-278.33" font-family="Helvetica,sans-Serif" font-size="14.00">Clients</text>
</g>
<g id="clust2" class="cluster">
<title>cluster_app</title>
<polygon fill="#fffde7" stroke="#fff9c4" points="216,-117.88 216,-192.88 476,-192.88 476,-117.88 216,-117.88"/>
<text xml:space="preserve" text-anchor="middle" x="346" y="-175.58" font-family="Helvetica,sans-Serif" font-size="14.00">Resonance app — megadoomer&#45;do K8s</text>
</g>
<g id="clust3" class="cluster">
<title>cluster_data</title>
<polygon fill="#fef6f5" stroke="#fce8e6" points="8,-8.6 8,-89.54 222,-89.54 222,-8.6 8,-8.6"/>
<text xml:space="preserve" text-anchor="middle" x="115" y="-72.24" font-family="Helvetica,sans-Serif" font-size="14.00">Stateful backends</text>
</g>
<g id="clust4" class="cluster">
<title>cluster_ext</title>
<polygon fill="none" stroke="#999999" stroke-dasharray="5,2" points="230,-8 230,-90.13 821,-90.13 821,-8 230,-8"/>
<text xml:space="preserve" text-anchor="middle" x="525.5" y="-72.83" font-family="Helvetica,sans-Serif" font-size="14.00" fill="#999999">External services</text>
</g>
<!-- UI -->
<g id="node1" class="node">
<title>UI</title>
<path fill="#f5f5f5" stroke="black" d="M241,-264.63C241,-264.63 183,-264.63 183,-264.63 177,-264.63 171,-258.63 171,-252.63 171,-252.63 171,-240.63 171,-240.63 171,-234.63 177,-228.63 183,-228.63 183,-228.63 241,-228.63 241,-228.63 247,-228.63 253,-234.63 253,-240.63 253,-240.63 253,-252.63 253,-252.63 253,-258.63 247,-264.63 241,-264.63"/>
<text xml:space="preserve" text-anchor="middle" x="212" y="-248.38" font-family="Helvetica,sans-Serif" font-size="10.00">Browser UI</text>
<text xml:space="preserve" text-anchor="middle" x="212" y="-237.13" font-family="Helvetica,sans-Serif" font-size="10.00">Jinja2 + HTMX</text>
</g>
<!-- WEB -->
<g id="node3" class="node">
<title>WEB</title>
<path fill="#f5f5f5" stroke="black" d="M309.88,-161.88C309.88,-161.88 236.12,-161.88 236.12,-161.88 230.12,-161.88 224.12,-155.88 224.12,-149.88 224.12,-149.88 224.12,-137.88 224.12,-137.88 224.12,-131.88 230.12,-125.88 236.12,-125.88 236.12,-125.88 309.88,-125.88 309.88,-125.88 315.88,-125.88 321.88,-131.88 321.88,-137.88 321.88,-137.88 321.88,-149.88 321.88,-149.88 321.88,-155.88 315.88,-161.88 309.88,-161.88"/>
<text xml:space="preserve" text-anchor="middle" x="273" y="-145.63" font-family="Helvetica,sans-Serif" font-size="10.00">FastAPI web</text>
<text xml:space="preserve" text-anchor="middle" x="273" y="-134.38" font-family="Helvetica,sans-Serif" font-size="10.00">UI routes + /api/v1</text>
</g>
<!-- UI&#45;&gt;WEB -->
<g id="edge1" class="edge">
<title>UI&#45;&gt;WEB</title>
<path fill="none" stroke="black" d="M222.35,-228.54C231.77,-212.98 245.83,-189.76 256.75,-171.72"/>
<polygon fill="black" stroke="black" points="259.63,-173.72 261.82,-163.35 253.64,-170.09 259.63,-173.72"/>
<text xml:space="preserve" text-anchor="middle" x="250.47" y="-202.08" font-family="Helvetica,sans-Serif" font-size="9.00">HTTP</text>
</g>
<!-- CLI -->
<g id="node2" class="node">
<title>CLI</title>
<path fill="#f5f5f5" stroke="black" d="M354.75,-264.63C354.75,-264.63 283.25,-264.63 283.25,-264.63 277.25,-264.63 271.25,-258.63 271.25,-252.63 271.25,-252.63 271.25,-240.63 271.25,-240.63 271.25,-234.63 277.25,-228.63 283.25,-228.63 283.25,-228.63 354.75,-228.63 354.75,-228.63 360.75,-228.63 366.75,-234.63 366.75,-240.63 366.75,-240.63 366.75,-252.63 366.75,-252.63 366.75,-258.63 360.75,-264.63 354.75,-264.63"/>
<text xml:space="preserve" text-anchor="middle" x="319" y="-242.76" font-family="Helvetica,sans-Serif" font-size="10.00">resonance&#45;api CLI</text>
</g>
<!-- CLI&#45;&gt;WEB -->
<g id="edge2" class="edge">
<title>CLI&#45;&gt;WEB</title>
<path fill="none" stroke="black" d="M311.2,-228.54C304.19,-213.2 293.78,-190.4 285.6,-172.48"/>
<polygon fill="black" stroke="black" points="288.81,-171.08 281.47,-163.44 282.44,-173.99 288.81,-171.08"/>
<text xml:space="preserve" text-anchor="middle" x="330.93" y="-202.08" font-family="Helvetica,sans-Serif" font-size="9.00">/api/v1 bearer</text>
</g>
<!-- PG -->
<g id="node5" class="node">
<title>PG</title>
<path fill="#e8f0fe" stroke="black" d="M85.62,-52.29C85.62,-54.1 70.11,-55.57 51,-55.57 31.89,-55.57 16.38,-54.1 16.38,-52.29 16.38,-52.29 16.38,-22.84 16.38,-22.84 16.38,-21.03 31.89,-19.57 51,-19.57 70.11,-19.57 85.62,-21.03 85.62,-22.84 85.62,-22.84 85.62,-52.29 85.62,-52.29"/>
<path fill="none" stroke="black" d="M85.62,-52.29C85.62,-50.49 70.11,-49.02 51,-49.02 31.89,-49.02 16.38,-50.49 16.38,-52.29"/>
<text xml:space="preserve" text-anchor="middle" x="51" y="-33.69" font-family="Helvetica,sans-Serif" font-size="10.00">PostgreSQL</text>
</g>
<!-- WEB&#45;&gt;PG -->
<g id="edge5" class="edge">
<title>WEB&#45;&gt;PG</title>
<path fill="none" stroke="black" d="M223.73,-136.09C186.09,-129.14 134.19,-115.6 95,-90.13 84.89,-83.57 75.83,-74 68.59,-64.88"/>
<polygon fill="black" stroke="black" points="71.43,-62.84 62.65,-56.91 65.82,-67.02 71.43,-62.84"/>
</g>
<!-- REDIS -->
<g id="node6" class="node">
<title>REDIS</title>
<path fill="#fce8e6" stroke="black" d="M213.88,-54.72C213.88,-56.83 189.28,-58.54 159,-58.54 128.72,-58.54 104.12,-56.83 104.12,-54.72 104.12,-54.72 104.12,-20.41 104.12,-20.41 104.12,-18.31 128.72,-16.6 159,-16.6 189.28,-16.6 213.88,-18.31 213.88,-20.41 213.88,-20.41 213.88,-54.72 213.88,-54.72"/>
<path fill="none" stroke="black" d="M213.88,-54.72C213.88,-52.62 189.28,-50.91 159,-50.91 128.72,-50.91 104.12,-52.62 104.12,-54.72"/>
<text xml:space="preserve" text-anchor="middle" x="159" y="-39.32" font-family="Helvetica,sans-Serif" font-size="10.00">Redis</text>
<text xml:space="preserve" text-anchor="middle" x="159" y="-28.07" font-family="Helvetica,sans-Serif" font-size="10.00">arq queue + sessions</text>
</g>
<!-- WEB&#45;&gt;REDIS -->
<g id="edge3" class="edge">
<title>WEB&#45;&gt;REDIS</title>
<path fill="none" stroke="black" d="M243.51,-125.53C235.48,-120.27 227.01,-114.2 219.75,-107.88 205.92,-95.85 192.31,-80.7 181.48,-67.64"/>
<polygon fill="black" stroke="black" points="184.44,-65.73 175.42,-60.17 179,-70.14 184.44,-65.73"/>
<text xml:space="preserve" text-anchor="middle" x="247.88" y="-99.33" font-family="Helvetica,sans-Serif" font-size="9.00">enqueue jobs</text>
</g>
<!-- DEX -->
<g id="node12" class="node">
<title>DEX</title>
<ellipse fill="#fce8e6" stroke="black" cx="292" cy="-37.57" rx="53.74" ry="21.57"/>
<text xml:space="preserve" text-anchor="middle" x="292" y="-39.32" font-family="Helvetica,sans-Serif" font-size="10.00">Dex OIDC</text>
<text xml:space="preserve" text-anchor="middle" x="292" y="-28.07" font-family="Helvetica,sans-Serif" font-size="10.00">(GitHub login)</text>
</g>
<!-- WEB&#45;&gt;DEX -->
<g id="edge12" class="edge">
<title>WEB&#45;&gt;DEX</title>
<path fill="none" stroke="black" d="M276.14,-125.66C278.85,-110.75 282.85,-88.8 286.15,-70.67"/>
<polygon fill="black" stroke="black" points="289.58,-71.37 287.93,-60.9 282.7,-70.11 289.58,-71.37"/>
<text xml:space="preserve" text-anchor="middle" x="290.92" y="-99.33" font-family="Helvetica,sans-Serif" font-size="9.00">login</text>
</g>
<!-- WORKER -->
<g id="node4" class="node">
<title>WORKER</title>
<path fill="#f5f5f5" stroke="black" d="M455.62,-161.88C455.62,-161.88 386.38,-161.88 386.38,-161.88 380.38,-161.88 374.38,-155.88 374.38,-149.88 374.38,-149.88 374.38,-137.88 374.38,-137.88 374.38,-131.88 380.38,-125.88 386.38,-125.88 386.38,-125.88 455.62,-125.88 455.62,-125.88 461.62,-125.88 467.62,-131.88 467.62,-137.88 467.62,-137.88 467.62,-149.88 467.62,-149.88 467.62,-155.88 461.62,-161.88 455.62,-161.88"/>
<text xml:space="preserve" text-anchor="middle" x="421" y="-145.63" font-family="Helvetica,sans-Serif" font-size="10.00">arq worker</text>
<text xml:space="preserve" text-anchor="middle" x="421" y="-134.38" font-family="Helvetica,sans-Serif" font-size="10.00">background tasks</text>
</g>
<!-- WORKER&#45;&gt;PG -->
<g id="edge6" class="edge">
<title>WORKER&#45;&gt;PG</title>
<path fill="none" stroke="black" d="M374.03,-128.97C360.23,-125.11 345.07,-121.11 331,-117.88 306.78,-112.33 300.42,-112.48 276,-107.88 253.75,-103.69 248.46,-101 226,-98.13 197.07,-94.45 121.1,-103.15 95,-90.13 83.86,-84.58 74.42,-74.81 67.17,-65.26"/>
<polygon fill="black" stroke="black" points="70.13,-63.39 61.54,-57.19 64.39,-67.4 70.13,-63.39"/>
</g>
<!-- SPOT -->
<g id="node7" class="node">
<title>SPOT</title>
<ellipse fill="#e8f0fe" stroke="black" cx="709" cy="-37.57" rx="27.66" ry="18"/>
<text xml:space="preserve" text-anchor="middle" x="709" y="-33.69" font-family="Helvetica,sans-Serif" font-size="10.00">Spotify</text>
</g>
<!-- WORKER&#45;&gt;SPOT -->
<g id="edge7" class="edge">
<title>WORKER&#45;&gt;SPOT</title>
<path fill="none" stroke="black" d="M467.91,-143.03C521.47,-141.07 609.7,-131.14 672,-90.13 681.6,-83.82 689.52,-74.09 695.53,-64.78"/>
<polygon fill="black" stroke="black" points="698.45,-66.71 700.53,-56.32 692.43,-63.15 698.45,-66.71"/>
<text xml:space="preserve" text-anchor="middle" x="679.75" y="-99.33" font-family="Helvetica,sans-Serif" font-size="9.00">sync / export</text>
</g>
<!-- LFM -->
<g id="node8" class="node">
<title>LFM</title>
<ellipse fill="#e8f0fe" stroke="black" cx="784" cy="-37.57" rx="28.99" ry="18"/>
<text xml:space="preserve" text-anchor="middle" x="784" y="-33.69" font-family="Helvetica,sans-Serif" font-size="10.00">Last.fm</text>
</g>
<!-- WORKER&#45;&gt;LFM -->
<g id="edge8" class="edge">
<title>WORKER&#45;&gt;LFM</title>
<path fill="none" stroke="black" d="M468.08,-141.84C525.89,-139.51 626.44,-131.99 709,-107.88 726.51,-102.77 731.95,-101.76 746,-90.13 754.59,-83.02 762.28,-73.57 768.46,-64.7"/>
<polygon fill="black" stroke="black" points="771.37,-66.64 773.93,-56.36 765.52,-62.81 771.37,-66.64"/>
<text xml:space="preserve" text-anchor="middle" x="759.98" y="-99.33" font-family="Helvetica,sans-Serif" font-size="9.00">sync / enrich</text>
</g>
<!-- LBZ -->
<g id="node9" class="node">
<title>LBZ</title>
<ellipse fill="#e8f0fe" stroke="black" cx="405" cy="-37.57" rx="41.42" ry="18"/>
<text xml:space="preserve" text-anchor="middle" x="405" y="-33.69" font-family="Helvetica,sans-Serif" font-size="10.00">ListenBrainz</text>
</g>
<!-- WORKER&#45;&gt;LBZ -->
<g id="edge9" class="edge">
<title>WORKER&#45;&gt;LBZ</title>
<path fill="none" stroke="black" d="M418.36,-125.66C415.91,-109.73 412.24,-85.75 409.36,-66.98"/>
<polygon fill="black" stroke="black" points="412.85,-66.67 407.88,-57.31 405.93,-67.73 412.85,-66.67"/>
<text xml:space="preserve" text-anchor="middle" x="440.87" y="-99.33" font-family="Helvetica,sans-Serif" font-size="9.00">sync / enrich</text>
</g>
<!-- MB -->
<g id="node10" class="node">
<title>MB</title>
<ellipse fill="#e8f0fe" stroke="black" cx="506" cy="-37.57" rx="41.42" ry="18"/>
<text xml:space="preserve" text-anchor="middle" x="506" y="-33.69" font-family="Helvetica,sans-Serif" font-size="10.00">MusicBrainz</text>
</g>
<!-- WORKER&#45;&gt;MB -->
<g id="edge10" class="edge">
<title>WORKER&#45;&gt;MB</title>
<path fill="none" stroke="black" d="M450.1,-125.51C457.16,-120.42 464.31,-114.44 470,-107.88 480.73,-95.52 489.35,-79.4 495.46,-65.82"/>
<polygon fill="black" stroke="black" points="498.52,-67.56 499.22,-56.98 492.08,-64.81 498.52,-67.56"/>
<text xml:space="preserve" text-anchor="middle" x="502.79" y="-99.33" font-family="Helvetica,sans-Serif" font-size="9.00">MBID lookup</text>
</g>
<!-- SK -->
<g id="node11" class="node">
<title>SK</title>
<ellipse fill="#e8f0fe" stroke="black" cx="614" cy="-37.57" rx="48.96" ry="18"/>
<text xml:space="preserve" text-anchor="middle" x="614" y="-33.69" font-family="Helvetica,sans-Serif" font-size="10.00">Songkick / iCal</text>
</g>
<!-- WORKER&#45;&gt;SK -->
<g id="edge11" class="edge">
<title>WORKER&#45;&gt;SK</title>
<path fill="none" stroke="black" d="M467.96,-132.2C488.58,-126.51 512.67,-118.47 533,-107.88 544.45,-101.92 546.06,-98.37 556,-90.13 566.75,-81.22 578.3,-71.08 588.25,-62.15"/>
<polygon fill="black" stroke="black" points="590.31,-65 595.39,-55.7 585.62,-59.81 590.31,-65"/>
<text xml:space="preserve" text-anchor="middle" x="566.78" y="-99.33" font-family="Helvetica,sans-Serif" font-size="9.00">feed fetch</text>
</g>
<!-- REDIS&#45;&gt;WORKER -->
<g id="edge4" class="edge">
<title>REDIS&#45;&gt;WORKER</title>
<path fill="none" stroke="black" d="M179.12,-58.88C191.53,-70.1 208.4,-83.14 226,-90.13 258.79,-103.17 270.68,-89.93 305,-98.13 327.97,-103.62 352.5,-112.6 373.06,-121.07"/>
<polygon fill="black" stroke="black" points="371.45,-124.19 382.02,-124.85 374.17,-117.74 371.45,-124.19"/>
<text xml:space="preserve" text-anchor="middle" x="366.2" y="-99.33" font-family="Helvetica,sans-Serif" font-size="9.00">consume jobs</text>
</g>
</g>
</svg>
